<?xml version="1.0" encoding="utf-8" standalone="no"?>
<!DOCTYPE svg PUBLIC "-//W3C//DTD SVG 1.1//EN"
  "http://www.w3.org/Graphics/SVG/1.1/DTD/svg11.dtd">
<svg height="170.789844pt" version="1.1" viewBox="0 0 504.166562 170.789844" width="504.166562pt" xmlns="http://www.w3.org/2000/svg" xmlns:xlink="http://www.w3.org/1999/xlink">
 <metadata>
  <rdf:RDF xmlns:cc="http://creativecommons.org/ns#" xmlns:dc="http://purl.org/dc/elements/1.1/" xmlns:rdf="http://www.w3.org/1999/02/22-rdf-syntax-ns#">
   <cc:Work>
    <dc:type rdf:resource="http://purl.org/dc/dcmitype/StillImage"/>
    <dc:date>2021-10-17T16:50:35.409842</dc:date>
    <dc:format>image/svg+xml</dc:format>
    <dc:creator>
     <cc:Agent>
      <dc:title>Matplotlib v3.4.3, https://matplotlib.org/</dc:title>
     </cc:Agent>
    </dc:creator>
   </cc:Work>
  </rdf:RDF>
 </metadata>
 <defs>
  <style type="text/css">*{stroke-linecap:butt;stroke-linejoin:round;}</style>
 </defs>
 <g id="figure_1">
  <g id="patch_1">
   <path d="M 0 170.789844 
L 504.166562 170.789844 
L 504.166562 0 
L 0 0 
z
" style="fill:none;"/>
  </g>
  <g id="axes_1">
   <g id="patch_2">
    <path d="M 50.566563 135 
L 496.966563 135 
L 496.966563 30 
L 50.566563 30 
z
" style="fill:none;"/>
   </g>
   <g id="matplotlib.axis_1">
    <g id="xtick_1">
     <g id="line2d_1">
      <defs>
       <path d="M 0 0 
L 0 3.5 
" id="ma7a8e22242" style="stroke:#000000;stroke-width:0.8;"/>
      </defs>
      <g>
       <use style="stroke:#000000;stroke-width:0.8;" x="50.838426" xlink:href="#ma7a8e22242" y="135"/>
      </g>
     </g>
     <g id="text_1">
      <text style="font-family:Helvetica;font-size:9px;font-stretch:normal;font-style:normal;font-weight:normal;text-anchor:middle;" transform="rotate(-0, 50.838426, 148.456094)" x="50.838426" y="148.456094">2</text>
     </g>
    </g>
    <g id="xtick_2">
     <g id="line2d_2">
      <g>
       <use style="stroke:#000000;stroke-width:0.8;" x="78.024784" xlink:href="#ma7a8e22242" y="135"/>
      </g>
     </g>
     <g id="text_2">
      <text style="font-family:Helvetica;font-size:9px;font-stretch:normal;font-style:normal;font-weight:normal;text-anchor:middle;" transform="rotate(-0, 78.024784, 148.456094)" x="78.024784" y="148.456094">12</text>
     </g>
    </g>
    <g id="xtick_3">
     <g id="line2d_3">
      <g>
       <use style="stroke:#000000;stroke-width:0.8;" x="105.211142" xlink:href="#ma7a8e22242" y="135"/>
      </g>
     </g>
     <g id="text_3">
      <text style="font-family:Helvetica;font-size:9px;font-stretch:normal;font-style:normal;font-weight:normal;text-anchor:middle;" transform="rotate(-0, 105.211142, 148.456094)" x="105.211142" y="148.456094">22</text>
     </g>
    </g>
    <g id="xtick_4">
     <g id="line2d_4">
      <g>
       <use style="stroke:#000000;stroke-width:0.8;" x="132.3975" xlink:href="#ma7a8e22242" y="135"/>
      </g>
     </g>
     <g id="text_4">
      <text style="font-family:Helvetica;font-size:9px;font-stretch:normal;font-style:normal;font-weight:normal;text-anchor:middle;" transform="rotate(-0, 132.3975, 148.456094)" x="132.3975" y="148.456094">32</text>
     </g>
    </g>
    <g id="xtick_5">
     <g id="line2d_5">
      <g>
       <use style="stroke:#000000;stroke-width:0.8;" x="159.583858" xlink:href="#ma7a8e22242" y="135"/>
      </g>
     </g>
     <g id="text_5">
      <text style="font-family:Helvetica;font-size:9px;font-stretch:normal;font-style:normal;font-weight:normal;text-anchor:middle;" transform="rotate(-0, 159.583858, 148.456094)" x="159.583858" y="148.456094">42</text>
     </g>
    </g>
    <g id="xtick_6">
     <g id="line2d_6">
      <g>
       <use style="stroke:#000000;stroke-width:0.8;" x="186.770217" xlink:href="#ma7a8e22242" y="135"/>
      </g>
     </g>
     <g id="text_6">
      <text style="font-family:Helvetica;font-size:9px;font-stretch:normal;font-style:normal;font-weight:normal;text-anchor:middle;" transform="rotate(-0, 186.770217, 148.456094)" x="186.770217" y="148.456094">52</text>
     </g>
    </g>
    <g id="xtick_7">
     <g id="line2d_7">
      <g>
       <use style="stroke:#000000;stroke-width:0.8;" x="213.956575" xlink:href="#ma7a8e22242" y="135"/>
      </g>
     </g>
     <g id="text_7">
      <text style="font-family:Helvetica;font-size:9px;font-stretch:normal;font-style:normal;font-weight:normal;text-anchor:middle;" transform="rotate(-0, 213.956575, 148.456094)" x="213.956575" y="148.456094">62</text>
     </g>
    </g>
    <g id="xtick_8">
     <g id="line2d_8">
      <g>
       <use style="stroke:#000000;stroke-width:0.8;" x="241.142933" xlink:href="#ma7a8e22242" y="135"/>
      </g>
     </g>
     <g id="text_8">
      <text style="font-family:Helvetica;font-size:9px;font-stretch:normal;font-style:normal;font-weight:normal;text-anchor:middle;" transform="rotate(-0, 241.142933, 148.456094)" x="241.142933" y="148.456094">72</text>
     </g>
    </g>
    <g id="xtick_9">
     <g id="line2d_9">
      <g>
       <use style="stroke:#000000;stroke-width:0.8;" x="268.329291" xlink:href="#ma7a8e22242" y="135"/>
      </g>
     </g>
     <g id="text_9">
      <text style="font-family:Helvetica;font-size:9px;font-stretch:normal;font-style:normal;font-weight:normal;text-anchor:middle;" transform="rotate(-0, 268.329291, 148.456094)" x="268.329291" y="148.456094">82</text>
     </g>
    </g>
    <g id="xtick_10">
     <g id="line2d_10">
      <g>
       <use style="stroke:#000000;stroke-width:0.8;" x="295.515649" xlink:href="#ma7a8e22242" y="135"/>
      </g>
     </g>
     <g id="text_10">
      <text style="font-family:Helvetica;font-size:9px;font-stretch:normal;font-style:normal;font-weight:normal;text-anchor:middle;" transform="rotate(-0, 295.515649, 148.456094)" x="295.515649" y="148.456094">92</text>
     </g>
    </g>
    <g id="xtick_11">
     <g id="line2d_11">
      <g>
       <use style="stroke:#000000;stroke-width:0.8;" x="322.702007" xlink:href="#ma7a8e22242" y="135"/>
      </g>
     </g>
     <g id="text_11">
      <text style="font-family:Helvetica;font-size:9px;font-stretch:normal;font-style:normal;font-weight:normal;text-anchor:middle;" transform="rotate(-0, 322.702007, 148.456094)" x="322.702007" y="148.456094">102</text>
     </g>
    </g>
    <g id="xtick_12">
     <g id="line2d_12">
      <g>
       <use style="stroke:#000000;stroke-width:0.8;" x="349.888365" xlink:href="#ma7a8e22242" y="135"/>
      </g>
     </g>
     <g id="text_12">
      <text style="font-family:Helvetica;font-size:9px;font-stretch:normal;font-style:normal;font-weight:normal;text-anchor:middle;" transform="rotate(-0, 349.888365, 148.456094)" x="349.888365" y="148.456094">112</text>
     </g>
    </g>
    <g id="xtick_13">
     <g id="line2d_13">
      <g>
       <use style="stroke:#000000;stroke-width:0.8;" x="377.074723" xlink:href="#ma7a8e22242" y="135"/>
      </g>
     </g>
     <g id="text_13">
      <text style="font-family:Helvetica;font-size:9px;font-stretch:normal;font-style:normal;font-weight:normal;text-anchor:middle;" transform="rotate(-0, 377.074723, 148.456094)" x="377.074723" y="148.456094">122</text>
     </g>
    </g>
    <g id="xtick_14">
     <g id="line2d_14">
      <g>
       <use style="stroke:#000000;stroke-width:0.8;" x="404.261081" xlink:href="#ma7a8e22242" y="135"/>
      </g>
     </g>
     <g id="text_14">
      <text style="font-family:Helvetica;font-size:9px;font-stretch:normal;font-style:normal;font-weight:normal;text-anchor:middle;" transform="rotate(-0, 404.261081, 148.456094)" x="404.261081" y="148.456094">132</text>
     </g>
    </g>
    <g id="xtick_15">
     <g id="line2d_15">
      <g>
       <use style="stroke:#000000;stroke-width:0.8;" x="431.447439" xlink:href="#ma7a8e22242" y="135"/>
      </g>
     </g>
     <g id="text_15">
      <text style="font-family:Helvetica;font-size:9px;font-stretch:normal;font-style:normal;font-weight:normal;text-anchor:middle;" transform="rotate(-0, 431.447439, 148.456094)" x="431.447439" y="148.456094">142</text>
     </g>
    </g>
    <g id="xtick_16">
     <g id="line2d_16">
      <g>
       <use style="stroke:#000000;stroke-width:0.8;" x="458.633798" xlink:href="#ma7a8e22242" y="135"/>
      </g>
     </g>
     <g id="text_16">
      <text style="font-family:Helvetica;font-size:9px;font-stretch:normal;font-style:normal;font-weight:normal;text-anchor:middle;" transform="rotate(-0, 458.633798, 148.456094)" x="458.633798" y="148.456094">152</text>
     </g>
    </g>
    <g id="xtick_17">
     <g id="line2d_17">
      <g>
       <use style="stroke:#000000;stroke-width:0.8;" x="485.820156" xlink:href="#ma7a8e22242" y="135"/>
      </g>
     </g>
     <g id="text_17">
      <text style="font-family:Helvetica;font-size:9px;font-stretch:normal;font-style:normal;font-weight:normal;text-anchor:middle;" transform="rotate(-0, 485.820156, 148.456094)" x="485.820156" y="148.456094">162</text>
     </g>
    </g>
    <g id="text_18">
     <text style="font-family:Helvetica;font-size:10px;font-stretch:normal;font-style:normal;font-weight:normal;text-anchor:middle;" transform="rotate(-0, 273.766562, 161.505469)" x="273.766562" y="161.505469">Residue</text>
    </g>
   </g>
   <g id="matplotlib.axis_2">
    <g id="ytick_1">
     <g id="line2d_18">
      <defs>
       <path d="M 0 0 
L -3.5 0 
" id="ma55e8d7eb1" style="stroke:#000000;stroke-width:0.8;"/>
      </defs>
      <g>
       <use style="stroke:#000000;stroke-width:0.8;" x="50.566563" xlink:href="#ma55e8d7eb1" y="128.637978"/>
      </g>
     </g>
     <g id="text_19">
      <text style="font-family:Helvetica;font-size:9px;font-stretch:normal;font-style:normal;font-weight:normal;text-anchor:end;" transform="rotate(-0, 43.566563, 131.866025)" x="43.566563" y="131.866025">−1.5</text>
     </g>
    </g>
    <g id="ytick_2">
     <g id="line2d_19">
      <g>
       <use style="stroke:#000000;stroke-width:0.8;" x="50.566563" xlink:href="#ma55e8d7eb1" y="103.489869"/>
      </g>
     </g>
     <g id="text_20">
      <text style="font-family:Helvetica;font-size:9px;font-stretch:normal;font-style:normal;font-weight:normal;text-anchor:end;" transform="rotate(-0, 43.566563, 106.717916)" x="43.566563" y="106.717916">−1.0</text>
     </g>
    </g>
    <g id="ytick_3">
     <g id="line2d_20">
      <g>
       <use style="stroke:#000000;stroke-width:0.8;" x="50.566563" xlink:href="#ma55e8d7eb1" y="78.34176"/>
      </g>
     </g>
     <g id="text_21">
      <text style="font-family:Helvetica;font-size:9px;font-stretch:normal;font-style:normal;font-weight:normal;text-anchor:end;" transform="rotate(-0, 43.566563, 81.569806)" x="43.566563" y="81.569806">−0.5</text>
     </g>
    </g>
    <g id="ytick_4">
     <g id="line2d_21">
      <g>
       <use style="stroke:#000000;stroke-width:0.8;" x="50.566563" xlink:href="#ma55e8d7eb1" y="53.193651"/>
      </g>
     </g>
     <g id="text_22">
      <text style="font-family:Helvetica;font-size:9px;font-stretch:normal;font-style:normal;font-weight:normal;text-anchor:end;" transform="rotate(-0, 43.566563, 56.421697)" x="43.566563" y="56.421697">0.0</text>
     </g>
    </g>
    <g id="text_23">
     <!-- $∆E^i_x$ -->
     <g transform="translate(7.2 79.8)">
      <text>
       <tspan style="font-family:DejaVu Sans;font-size:10px;font-style:book;font-weight:book;" x="0" y="-0.3156250000000007">∆</tspan>
       <tspan style="font-family:Helvetica;font-size:10px;font-style:oblique;font-weight:oblique;" x="6.689453" y="-0.3156250000000007">E</tspan>
       <tspan style="font-family:Helvetica;font-size:7px;font-style:oblique;font-weight:oblique;" x="13.359375 14.058099" y="2.3015624999999993 -3.9796875000000007">xi</tspan>
      </text>
     </g>
    </g>
   </g>
   <g id="patch_3">
    <path clip-path="url(#p54f8d4dfb3)" d="M 49.207245 53.193651 
L 52.469608 53.193651 
L 52.469608 56.163052 
L 49.207245 56.163052 
z
" style="fill:#0000ff;"/>
   </g>
   <g id="patch_4">
    <path clip-path="url(#p54f8d4dfb3)" d="M 51.92588 53.193651 
L 55.188243 53.193651 
L 55.188243 79.477323 
L 51.92588 79.477323 
z
" style="fill:#0000ff;"/>
   </g>
   <g id="patch_5">
    <path clip-path="url(#p54f8d4dfb3)" d="M 54.644516 53.193651 
L 57.906879 53.193651 
L 57.906879 60.842615 
L 54.644516 60.842615 
z
" style="fill:#0000ff;"/>
   </g>
   <g id="patch_6">
    <path clip-path="url(#p54f8d4dfb3)" d="M 57.363152 53.193651 
L 60.625515 53.193651 
L 60.625515 67.674938 
L 57.363152 67.674938 
z
" style="fill:#0000ff;"/>
   </g>
   <g id="patch_7">
    <path clip-path="url(#p54f8d4dfb3)" d="M 60.081788 53.193651 
L 63.344151 53.193651 
L 63.344151 101.923127 
L 60.081788 101.923127 
z
" style="fill:#0000ff;"/>
   </g>
   <g id="patch_8">
    <path clip-path="url(#p54f8d4dfb3)" d="M 62.800424 53.193651 
L 66.062787 53.193651 
L 66.062787 79.184217 
L 62.800424 79.184217 
z
" style="fill:#0000ff;"/>
   </g>
   <g id="patch_9">
    <path clip-path="url(#p54f8d4dfb3)" d="M 65.519059 53.193651 
L 68.781422 53.193651 
L 68.781422 95.04206 
L 65.519059 95.04206 
z
" style="fill:#0000ff;"/>
   </g>
   <g id="patch_10">
    <path clip-path="url(#p54f8d4dfb3)" d="M 68.237695 53.193651 
L 71.500058 53.193651 
L 71.500058 82.211049 
L 68.237695 82.211049 
z
" style="fill:#0000ff;"/>
   </g>
   <g id="patch_11">
    <path clip-path="url(#p54f8d4dfb3)" d="M 70.956331 53.193651 
L 74.218694 53.193651 
L 74.218694 128.104847 
L 70.956331 128.104847 
z
" style="fill:#0000ff;"/>
   </g>
   <g id="patch_12">
    <path clip-path="url(#p54f8d4dfb3)" d="M 73.674967 53.193651 
L 76.93733 53.193651 
L 76.93733 60.821634 
L 73.674967 60.821634 
z
" style="fill:#0000ff;"/>
   </g>
   <g id="patch_13">
    <path clip-path="url(#p54f8d4dfb3)" d="M 76.393603 53.193651 
L 79.655966 53.193651 
L 79.655966 46.012127 
L 76.393603 46.012127 
z
" style="fill:#ff0000;"/>
   </g>
   <g id="patch_14">
    <path clip-path="url(#p54f8d4dfb3)" d="M 79.112239 53.193651 
L 82.374601 53.193651 
L 82.374601 48.51311 
L 79.112239 48.51311 
z
" style="fill:#ff0000;"/>
   </g>
   <g id="patch_15">
    <path clip-path="url(#p54f8d4dfb3)" d="M 81.830874 53.193651 
L 85.093237 53.193651 
L 85.093237 68.513314 
L 81.830874 68.513314 
z
" style="fill:#0000ff;"/>
   </g>
   <g id="patch_16">
    <path clip-path="url(#p54f8d4dfb3)" d="M 84.54951 53.193651 
L 87.811873 53.193651 
L 87.811873 128.218065 
L 84.54951 128.218065 
z
" style="fill:#0000ff;"/>
   </g>
   <g id="patch_17">
    <path clip-path="url(#p54f8d4dfb3)" d="M 87.268146 53.193651 
L 90.530509 53.193651 
L 90.530509 125.060087 
L 87.268146 125.060087 
z
" style="fill:#0000ff;"/>
   </g>
   <g id="patch_18">
    <path clip-path="url(#p54f8d4dfb3)" d="M 89.986782 53.193651 
L 93.249145 53.193651 
L 93.249145 124.856611 
L 89.986782 124.856611 
z
" style="fill:#0000ff;"/>
   </g>
   <g id="patch_19">
    <path clip-path="url(#p54f8d4dfb3)" d="M 92.705418 53.193651 
L 95.967781 53.193651 
L 95.967781 83.483053 
L 92.705418 83.483053 
z
" style="fill:#0000ff;"/>
   </g>
   <g id="patch_20">
    <path clip-path="url(#p54f8d4dfb3)" d="M 95.424053 53.193651 
L 98.686416 53.193651 
L 98.686416 80.66891 
L 95.424053 80.66891 
z
" style="fill:#0000ff;"/>
   </g>
   <g id="patch_21">
    <path clip-path="url(#p54f8d4dfb3)" d="M 98.142689 53.193651 
L 101.405052 53.193651 
L 101.405052 84.079164 
L 98.142689 84.079164 
z
" style="fill:#0000ff;"/>
   </g>
   <g id="patch_22">
    <path clip-path="url(#p54f8d4dfb3)" d="M 100.861325 53.193651 
L 104.123688 53.193651 
L 104.123688 86.493163 
L 100.861325 86.493163 
z
" style="fill:#0000ff;"/>
   </g>
   <g id="patch_23">
    <path clip-path="url(#p54f8d4dfb3)" d="M 103.579961 53.193651 
L 106.842324 53.193651 
L 106.842324 55.098224 
L 103.579961 55.098224 
z
" style="fill:#0000ff;"/>
   </g>
   <g id="patch_24">
    <path clip-path="url(#p54f8d4dfb3)" d="M 106.298597 53.193651 
L 109.56096 53.193651 
L 109.56096 56.490387 
L 106.298597 56.490387 
z
" style="fill:#0000ff;"/>
   </g>
   <g id="patch_25">
    <path clip-path="url(#p54f8d4dfb3)" d="M 109.017232 53.193651 
L 112.279595 53.193651 
L 112.279595 65.026922 
L 109.017232 65.026922 
z
" style="fill:#0000ff;"/>
   </g>
   <g id="patch_26">
    <path clip-path="url(#p54f8d4dfb3)" d="M 111.735868 53.193651 
L 114.998231 53.193651 
L 114.998231 62.62987 
L 111.735868 62.62987 
z
" style="fill:#0000ff;"/>
   </g>
   <g id="patch_27">
    <path clip-path="url(#p54f8d4dfb3)" d="M 114.454504 53.193651 
L 117.716867 53.193651 
L 117.716867 55.443669 
L 114.454504 55.443669 
z
" style="fill:#0000ff;"/>
   </g>
   <g id="patch_28">
    <path clip-path="url(#p54f8d4dfb3)" d="M 117.17314 53.193651 
L 120.435503 53.193651 
L 120.435503 52.610043 
L 117.17314 52.610043 
z
" style="fill:#ff0000;"/>
   </g>
   <g id="patch_29">
    <path clip-path="url(#p54f8d4dfb3)" d="M 119.891776 53.193651 
L 123.154139 53.193651 
L 123.154139 93.412696 
L 119.891776 93.412696 
z
" style="fill:#0000ff;"/>
   </g>
   <g id="patch_30">
    <path clip-path="url(#p54f8d4dfb3)" d="M 122.610411 53.193651 
L 125.872774 53.193651 
L 125.872774 61.488298 
L 122.610411 61.488298 
z
" style="fill:#0000ff;"/>
   </g>
   <g id="patch_31">
    <path clip-path="url(#p54f8d4dfb3)" d="M 125.329047 53.193651 
L 128.59141 53.193651 
L 128.59141 60.475258 
L 125.329047 60.475258 
z
" style="fill:#0000ff;"/>
   </g>
   <g id="patch_32">
    <path clip-path="url(#p54f8d4dfb3)" d="M 128.047683 53.193651 
L 131.310046 53.193651 
L 131.310046 81.934592 
L 128.047683 81.934592 
z
" style="fill:#0000ff;"/>
   </g>
   <g id="patch_33">
    <path clip-path="url(#p54f8d4dfb3)" d="M 130.766319 53.193651 
L 134.028682 53.193651 
L 134.028682 88.373881 
L 130.766319 88.373881 
z
" style="fill:#0000ff;"/>
   </g>
   <g id="patch_34">
    <path clip-path="url(#p54f8d4dfb3)" d="M 133.484955 53.193651 
L 136.747318 53.193651 
L 136.747318 90.963073 
L 133.484955 90.963073 
z
" style="fill:#0000ff;"/>
   </g>
   <g id="patch_35">
    <path clip-path="url(#p54f8d4dfb3)" d="M 136.203591 53.193651 
L 139.465953 53.193651 
L 139.465953 93.934814 
L 136.203591 93.934814 
z
" style="fill:#0000ff;"/>
   </g>
   <g id="patch_36">
    <path clip-path="url(#p54f8d4dfb3)" d="M 138.922226 53.193651 
L 142.184589 53.193651 
L 142.184589 129.83044 
L 138.922226 129.83044 
z
" style="fill:#0000ff;"/>
   </g>
   <g id="patch_37">
    <path clip-path="url(#p54f8d4dfb3)" d="M 141.640862 53.193651 
L 144.903225 53.193651 
L 144.903225 93.941461 
L 141.640862 93.941461 
z
" style="fill:#0000ff;"/>
   </g>
   <g id="patch_38">
    <path clip-path="url(#p54f8d4dfb3)" d="M 144.359498 53.193651 
L 147.621861 53.193651 
L 147.621861 100.160837 
L 144.359498 100.160837 
z
" style="fill:#0000ff;"/>
   </g>
   <g id="patch_39">
    <path clip-path="url(#p54f8d4dfb3)" d="M 147.078134 53.193651 
L 150.340497 53.193651 
L 150.340497 123.552071 
L 147.078134 123.552071 
z
" style="fill:#0000ff;"/>
   </g>
   <g id="patch_40">
    <path clip-path="url(#p54f8d4dfb3)" d="M 149.79677 53.193651 
L 153.059133 53.193651 
L 153.059133 75.707905 
L 149.79677 75.707905 
z
" style="fill:#0000ff;"/>
   </g>
   <g id="patch_41">
    <path clip-path="url(#p54f8d4dfb3)" d="M 152.515405 53.193651 
L 155.777768 53.193651 
L 155.777768 130.227273 
L 152.515405 130.227273 
z
" style="fill:#0000ff;"/>
   </g>
   <g id="patch_42">
    <path clip-path="url(#p54f8d4dfb3)" d="M 155.234041 53.193651 
L 158.496404 53.193651 
L 158.496404 71.508434 
L 155.234041 71.508434 
z
" style="fill:#0000ff;"/>
   </g>
   <g id="patch_43">
    <path clip-path="url(#p54f8d4dfb3)" d="M 157.952677 53.193651 
L 161.21504 53.193651 
L 161.21504 45.909571 
L 157.952677 45.909571 
z
" style="fill:#ff0000;"/>
   </g>
   <g id="patch_44">
    <path clip-path="url(#p54f8d4dfb3)" d="M 160.671313 53.193651 
L 163.933676 53.193651 
L 163.933676 55.932236 
L 160.671313 55.932236 
z
" style="fill:#0000ff;"/>
   </g>
   <g id="patch_45">
    <path clip-path="url(#p54f8d4dfb3)" d="M 163.389949 53.193651 
L 166.652312 53.193651 
L 166.652312 53.645838 
L 163.389949 53.645838 
z
" style="fill:#0000ff;"/>
   </g>
   <g id="patch_46">
    <path clip-path="url(#p54f8d4dfb3)" d="M 166.108584 53.193651 
L 169.370947 53.193651 
L 169.370947 55.914173 
L 166.108584 55.914173 
z
" style="fill:#0000ff;"/>
   </g>
   <g id="patch_47">
    <path clip-path="url(#p54f8d4dfb3)" d="M 168.82722 53.193651 
L 172.089583 53.193651 
L 172.089583 61.679172 
L 168.82722 61.679172 
z
" style="fill:#0000ff;"/>
   </g>
   <g id="patch_48">
    <path clip-path="url(#p54f8d4dfb3)" d="M 171.545856 53.193651 
L 174.808219 53.193651 
L 174.808219 55.468052 
L 171.545856 55.468052 
z
" style="fill:#0000ff;"/>
   </g>
   <g id="patch_49">
    <path clip-path="url(#p54f8d4dfb3)" d="M 174.264492 53.193651 
L 177.526855 53.193651 
L 177.526855 60.915225 
L 174.264492 60.915225 
z
" style="fill:#0000ff;"/>
   </g>
   <g id="patch_50">
    <path clip-path="url(#p54f8d4dfb3)" d="M 176.983128 53.193651 
L 180.245491 53.193651 
L 180.245491 55.526009 
L 176.983128 55.526009 
z
" style="fill:#0000ff;"/>
   </g>
   <g id="patch_51">
    <path clip-path="url(#p54f8d4dfb3)" d="M 179.701763 53.193651 
L 182.964126 53.193651 
L 182.964126 57.126439 
L 179.701763 57.126439 
z
" style="fill:#0000ff;"/>
   </g>
   <g id="patch_52">
    <path clip-path="url(#p54f8d4dfb3)" d="M 182.420399 53.193651 
L 185.682762 53.193651 
L 185.682762 55.334206 
L 182.420399 55.334206 
z
" style="fill:#0000ff;"/>
   </g>
   <g id="patch_53">
    <path clip-path="url(#p54f8d4dfb3)" d="M 185.139035 53.193651 
L 188.401398 53.193651 
L 188.401398 51.441331 
L 185.139035 51.441331 
z
" style="fill:#ff0000;"/>
   </g>
   <g id="patch_54">
    <path clip-path="url(#p54f8d4dfb3)" d="M 187.857671 53.193651 
L 191.120034 53.193651 
L 191.120034 85.024318 
L 187.857671 85.024318 
z
" style="fill:#0000ff;"/>
   </g>
   <g id="patch_55">
    <path clip-path="url(#p54f8d4dfb3)" d="M 190.576307 53.193651 
L 193.83867 53.193651 
L 193.83867 95.595694 
L 190.576307 95.595694 
z
" style="fill:#0000ff;"/>
   </g>
   <g id="patch_56">
    <path clip-path="url(#p54f8d4dfb3)" d="M 193.294943 53.193651 
L 196.557305 53.193651 
L 196.557305 98.976478 
L 193.294943 98.976478 
z
" style="fill:#0000ff;"/>
   </g>
   <g id="patch_57">
    <path clip-path="url(#p54f8d4dfb3)" d="M 196.013578 53.193651 
L 199.275941 53.193651 
L 199.275941 58.464225 
L 196.013578 58.464225 
z
" style="fill:#0000ff;"/>
   </g>
   <g id="patch_58">
    <path clip-path="url(#p54f8d4dfb3)" d="M 198.732214 53.193651 
L 201.994577 53.193651 
L 201.994577 113.708502 
L 198.732214 113.708502 
z
" style="fill:#0000ff;"/>
   </g>
   <g id="patch_59">
    <path clip-path="url(#p54f8d4dfb3)" d="M 201.45085 53.193651 
L 204.713213 53.193651 
L 204.713213 84.566627 
L 201.45085 84.566627 
z
" style="fill:#0000ff;"/>
   </g>
   <g id="patch_60">
    <path clip-path="url(#p54f8d4dfb3)" d="M 204.169486 53.193651 
L 207.431849 53.193651 
L 207.431849 75.743824 
L 204.169486 75.743824 
z
" style="fill:#0000ff;"/>
   </g>
   <g id="patch_61">
    <path clip-path="url(#p54f8d4dfb3)" d="M 206.888122 53.193651 
L 210.150485 53.193651 
L 210.150485 89.191924 
L 206.888122 89.191924 
z
" style="fill:#0000ff;"/>
   </g>
   <g id="patch_62">
    <path clip-path="url(#p54f8d4dfb3)" d="M 209.606757 53.193651 
L 212.86912 53.193651 
L 212.86912 39.652345 
L 209.606757 39.652345 
z
" style="fill:#ff0000;"/>
   </g>
   <g id="patch_63">
    <path clip-path="url(#p54f8d4dfb3)" d="M 212.325393 53.193651 
L 215.587756 53.193651 
L 215.587756 40.642774 
L 212.325393 40.642774 
z
" style="fill:#ff0000;"/>
   </g>
   <g id="patch_64">
    <path clip-path="url(#p54f8d4dfb3)" d="M 215.044029 53.193651 
L 218.306392 53.193651 
L 218.306392 34.772727 
L 215.044029 34.772727 
z
" style="fill:#ff0000;"/>
   </g>
   <g id="patch_65">
    <path clip-path="url(#p54f8d4dfb3)" d="M 217.762665 53.193651 
L 221.025028 53.193651 
L 221.025028 51.028076 
L 217.762665 51.028076 
z
" style="fill:#ff0000;"/>
   </g>
   <g id="patch_66">
    <path clip-path="url(#p54f8d4dfb3)" d="M 220.481301 53.193651 
L 223.743664 53.193651 
L 223.743664 56.425417 
L 220.481301 56.425417 
z
" style="fill:#0000ff;"/>
   </g>
   <g id="patch_67">
    <path clip-path="url(#p54f8d4dfb3)" d="M 223.199936 53.193651 
L 226.462299 53.193651 
L 226.462299 51.572933 
L 223.199936 51.572933 
z
" style="fill:#ff0000;"/>
   </g>
   <g id="patch_68">
    <path clip-path="url(#p54f8d4dfb3)" d="M 225.918572 53.193651 
L 229.180935 53.193651 
L 229.180935 49.212412 
L 225.918572 49.212412 
z
" style="fill:#ff0000;"/>
   </g>
   <g id="patch_69">
    <path clip-path="url(#p54f8d4dfb3)" d="M 228.637208 53.193651 
L 231.899571 53.193651 
L 231.899571 43.416005 
L 228.637208 43.416005 
z
" style="fill:#ff0000;"/>
   </g>
   <g id="patch_70">
    <path clip-path="url(#p54f8d4dfb3)" d="M 231.355844 53.193651 
L 234.618207 53.193651 
L 234.618207 67.630454 
L 231.355844 67.630454 
z
" style="fill:#0000ff;"/>
   </g>
   <g id="patch_71">
    <path clip-path="url(#p54f8d4dfb3)" d="M 234.07448 53.193651 
L 237.336843 53.193651 
L 237.336843 56.518502 
L 234.07448 56.518502 
z
" style="fill:#0000ff;"/>
   </g>
   <g id="patch_72">
    <path clip-path="url(#p54f8d4dfb3)" d="M 236.793115 53.193651 
L 240.055478 53.193651 
L 240.055478 50.901154 
L 236.793115 50.901154 
z
" style="fill:#ff0000;"/>
   </g>
   <g id="patch_73">
    <path clip-path="url(#p54f8d4dfb3)" d="M 239.511751 53.193651 
L 242.774114 53.193651 
L 242.774114 54.990856 
L 239.511751 54.990856 
z
" style="fill:#0000ff;"/>
   </g>
   <g id="patch_74">
    <path clip-path="url(#p54f8d4dfb3)" d="M 242.230387 53.193651 
L 245.49275 53.193651 
L 245.49275 54.156822 
L 242.230387 54.156822 
z
" style="fill:#0000ff;"/>
   </g>
   <g id="patch_75">
    <path clip-path="url(#p54f8d4dfb3)" d="M 244.949023 53.193651 
L 248.211386 53.193651 
L 248.211386 48.380407 
L 244.949023 48.380407 
z
" style="fill:#ff0000;"/>
   </g>
   <g id="patch_76">
    <path clip-path="url(#p54f8d4dfb3)" d="M 247.667659 53.193651 
L 250.930022 53.193651 
L 250.930022 61.726091 
L 247.667659 61.726091 
z
" style="fill:#0000ff;"/>
   </g>
   <g id="patch_77">
    <path clip-path="url(#p54f8d4dfb3)" d="M 250.386295 53.193651 
L 253.648658 53.193651 
L 253.648658 60.835954 
L 250.386295 60.835954 
z
" style="fill:#0000ff;"/>
   </g>
   <g id="patch_78">
    <path clip-path="url(#p54f8d4dfb3)" d="M 253.10493 53.193651 
L 256.367293 53.193651 
L 256.367293 83.039064 
L 253.10493 83.039064 
z
" style="fill:#0000ff;"/>
   </g>
   <g id="patch_79">
    <path clip-path="url(#p54f8d4dfb3)" d="M 255.823566 53.193651 
L 259.085929 53.193651 
L 259.085929 94.615962 
L 255.823566 94.615962 
z
" style="fill:#0000ff;"/>
   </g>
   <g id="patch_80">
    <path clip-path="url(#p54f8d4dfb3)" d="M 258.542202 53.193651 
L 261.804565 53.193651 
L 261.804565 93.431571 
L 258.542202 93.431571 
z
" style="fill:#0000ff;"/>
   </g>
   <g id="patch_81">
    <path clip-path="url(#p54f8d4dfb3)" d="M 261.260838 53.193651 
L 264.523201 53.193651 
L 264.523201 81.891947 
L 261.260838 81.891947 
z
" style="fill:#0000ff;"/>
   </g>
   <g id="patch_82">
    <path clip-path="url(#p54f8d4dfb3)" d="M 263.979474 53.193651 
L 267.241837 53.193651 
L 267.241837 93.095356 
L 263.979474 93.095356 
z
" style="fill:#0000ff;"/>
   </g>
   <g id="patch_83">
    <path clip-path="url(#p54f8d4dfb3)" d="M 266.698109 53.193651 
L 269.960472 53.193651 
L 269.960472 87.98819 
L 266.698109 87.98819 
z
" style="fill:#0000ff;"/>
   </g>
   <g id="patch_84">
    <path clip-path="url(#p54f8d4dfb3)" d="M 269.416745 53.193651 
L 272.679108 53.193651 
L 272.679108 66.456752 
L 269.416745 66.456752 
z
" style="fill:#0000ff;"/>
   </g>
   <g id="patch_85">
    <path clip-path="url(#p54f8d4dfb3)" d="M 272.135381 53.193651 
L 275.397744 53.193651 
L 275.397744 48.198692 
L 272.135381 48.198692 
z
" style="fill:#ff0000;"/>
   </g>
   <g id="patch_86">
    <path clip-path="url(#p54f8d4dfb3)" d="M 274.854017 53.193651 
L 278.11638 53.193651 
L 278.11638 59.967463 
L 274.854017 59.967463 
z
" style="fill:#0000ff;"/>
   </g>
   <g id="patch_87">
    <path clip-path="url(#p54f8d4dfb3)" d="M 277.572653 53.193651 
L 280.835016 53.193651 
L 280.835016 71.006006 
L 277.572653 71.006006 
z
" style="fill:#0000ff;"/>
   </g>
   <g id="patch_88">
    <path clip-path="url(#p54f8d4dfb3)" d="M 280.291288 53.193651 
L 283.553651 53.193651 
L 283.553651 51.422832 
L 280.291288 51.422832 
z
" style="fill:#ff0000;"/>
   </g>
   <g id="patch_89">
    <path clip-path="url(#p54f8d4dfb3)" d="M 283.009924 53.193651 
L 286.272287 53.193651 
L 286.272287 61.816759 
L 283.009924 61.816759 
z
" style="fill:#0000ff;"/>
   </g>
   <g id="patch_90">
    <path clip-path="url(#p54f8d4dfb3)" d="M 285.72856 53.193651 
L 288.990923 53.193651 
L 288.990923 71.640795 
L 285.72856 71.640795 
z
" style="fill:#0000ff;"/>
   </g>
   <g id="patch_91">
    <path clip-path="url(#p54f8d4dfb3)" d="M 288.447196 53.193651 
L 291.709559 53.193651 
L 291.709559 72.828774 
L 288.447196 72.828774 
z
" style="fill:#0000ff;"/>
   </g>
   <g id="patch_92">
    <path clip-path="url(#p54f8d4dfb3)" d="M 291.165832 53.193651 
L 294.428195 53.193651 
L 294.428195 58.798765 
L 291.165832 58.798765 
z
" style="fill:#0000ff;"/>
   </g>
   <g id="patch_93">
    <path clip-path="url(#p54f8d4dfb3)" d="M 293.884467 53.193651 
L 297.14683 53.193651 
L 297.14683 48.118082 
L 293.884467 48.118082 
z
" style="fill:#ff0000;"/>
   </g>
   <g id="patch_94">
    <path clip-path="url(#p54f8d4dfb3)" d="M 296.603103 53.193651 
L 299.865466 53.193651 
L 299.865466 89.29986 
L 296.603103 89.29986 
z
" style="fill:#0000ff;"/>
   </g>
   <g id="patch_95">
    <path clip-path="url(#p54f8d4dfb3)" d="M 299.321739 53.193651 
L 302.584102 53.193651 
L 302.584102 53.602345 
L 299.321739 53.602345 
z
" style="fill:#0000ff;"/>
   </g>
   <g id="patch_96">
    <path clip-path="url(#p54f8d4dfb3)" d="M 302.040375 53.193651 
L 305.302738 53.193651 
L 305.302738 53.468889 
L 302.040375 53.468889 
z
" style="fill:#0000ff;"/>
   </g>
   <g id="patch_97">
    <path clip-path="url(#p54f8d4dfb3)" d="M 304.759011 53.193651 
L 308.021374 53.193651 
L 308.021374 58.121997 
L 304.759011 58.121997 
z
" style="fill:#0000ff;"/>
   </g>
   <g id="patch_98">
    <path clip-path="url(#p54f8d4dfb3)" d="M 307.477647 53.193651 
L 310.74001 53.193651 
L 310.74001 59.248664 
L 307.477647 59.248664 
z
" style="fill:#0000ff;"/>
   </g>
   <g id="patch_99">
    <path clip-path="url(#p54f8d4dfb3)" d="M 310.196282 53.193651 
L 313.458645 53.193651 
L 313.458645 67.63381 
L 310.196282 67.63381 
z
" style="fill:#0000ff;"/>
   </g>
   <g id="patch_100">
    <path clip-path="url(#p54f8d4dfb3)" d="M 312.914918 53.193651 
L 316.177281 53.193651 
L 316.177281 48.92822 
L 312.914918 48.92822 
z
" style="fill:#ff0000;"/>
   </g>
   <g id="patch_101">
    <path clip-path="url(#p54f8d4dfb3)" d="M 315.633554 53.193651 
L 318.895917 53.193651 
L 318.895917 90.359006 
L 315.633554 90.359006 
z
" style="fill:#0000ff;"/>
   </g>
   <g id="patch_102">
    <path clip-path="url(#p54f8d4dfb3)" d="M 318.35219 53.193651 
L 321.614553 53.193651 
L 321.614553 66.359853 
L 318.35219 66.359853 
z
" style="fill:#0000ff;"/>
   </g>
   <g id="patch_103">
    <path clip-path="url(#p54f8d4dfb3)" d="M 321.070826 53.193651 
L 324.333189 53.193651 
L 324.333189 68.907703 
L 321.070826 68.907703 
z
" style="fill:#0000ff;"/>
   </g>
   <g id="patch_104">
    <path clip-path="url(#p54f8d4dfb3)" d="M 323.789461 53.193651 
L 327.051824 53.193651 
L 327.051824 59.779766 
L 323.789461 59.779766 
z
" style="fill:#0000ff;"/>
   </g>
   <g id="patch_105">
    <path clip-path="url(#p54f8d4dfb3)" d="M 326.508097 53.193651 
L 329.77046 53.193651 
L 329.77046 61.646775 
L 326.508097 61.646775 
z
" style="fill:#0000ff;"/>
   </g>
   <g id="patch_106">
    <path clip-path="url(#p54f8d4dfb3)" d="M 329.226733 53.193651 
L 332.489096 53.193651 
L 332.489096 54.023072 
L 329.226733 54.023072 
z
" style="fill:#0000ff;"/>
   </g>
   <g id="patch_107">
    <path clip-path="url(#p54f8d4dfb3)" d="M 331.945369 53.193651 
L 335.207732 53.193651 
L 335.207732 55.241109 
L 331.945369 55.241109 
z
" style="fill:#0000ff;"/>
   </g>
   <g id="patch_108">
    <path clip-path="url(#p54f8d4dfb3)" d="M 334.664005 53.193651 
L 337.926368 53.193651 
L 337.926368 52.832651 
L 334.664005 52.832651 
z
" style="fill:#ff0000;"/>
   </g>
   <g id="patch_109">
    <path clip-path="url(#p54f8d4dfb3)" d="M 337.38264 53.193651 
L 340.645003 53.193651 
L 340.645003 54.160348 
L 337.38264 54.160348 
z
" style="fill:#0000ff;"/>
   </g>
   <g id="patch_110">
    <path clip-path="url(#p54f8d4dfb3)" d="M 340.101276 53.193651 
L 343.363639 53.193651 
L 343.363639 72.004216 
L 340.101276 72.004216 
z
" style="fill:#0000ff;"/>
   </g>
   <g id="patch_111">
    <path clip-path="url(#p54f8d4dfb3)" d="M 342.819912 53.193651 
L 346.082275 53.193651 
L 346.082275 67.297338 
L 342.819912 67.297338 
z
" style="fill:#0000ff;"/>
   </g>
   <g id="patch_112">
    <path clip-path="url(#p54f8d4dfb3)" d="M 345.538548 53.193651 
L 348.800911 53.193651 
L 348.800911 93.984344 
L 345.538548 93.984344 
z
" style="fill:#0000ff;"/>
   </g>
   <g id="patch_113">
    <path clip-path="url(#p54f8d4dfb3)" d="M 348.257184 53.193651 
L 351.519547 53.193651 
L 351.519547 107.408036 
L 348.257184 107.408036 
z
" style="fill:#0000ff;"/>
   </g>
   <g id="patch_114">
    <path clip-path="url(#p54f8d4dfb3)" d="M 350.97582 53.193651 
L 354.238182 53.193651 
L 354.238182 98.491488 
L 350.97582 98.491488 
z
" style="fill:#0000ff;"/>
   </g>
   <g id="patch_115">
    <path clip-path="url(#p54f8d4dfb3)" d="M 353.694455 53.193651 
L 356.956818 53.193651 
L 356.956818 108.699704 
L 353.694455 108.699704 
z
" style="fill:#0000ff;"/>
   </g>
   <g id="patch_116">
    <path clip-path="url(#p54f8d4dfb3)" d="M 356.413091 53.193651 
L 359.675454 53.193651 
L 359.675454 79.5571 
L 356.413091 79.5571 
z
" style="fill:#0000ff;"/>
   </g>
   <g id="patch_117">
    <path clip-path="url(#p54f8d4dfb3)" d="M 359.131727 53.193651 
L 362.39409 53.193651 
L 362.39409 75.27478 
L 359.131727 75.27478 
z
" style="fill:#0000ff;"/>
   </g>
   <g id="patch_118">
    <path clip-path="url(#p54f8d4dfb3)" d="M 361.850363 53.193651 
L 365.112726 53.193651 
L 365.112726 44.968915 
L 361.850363 44.968915 
z
" style="fill:#ff0000;"/>
   </g>
   <g id="patch_119">
    <path clip-path="url(#p54f8d4dfb3)" d="M 364.568999 53.193651 
L 367.831362 53.193651 
L 367.831362 58.256217 
L 364.568999 58.256217 
z
" style="fill:#0000ff;"/>
   </g>
   <g id="patch_120">
    <path clip-path="url(#p54f8d4dfb3)" d="M 367.287634 53.193651 
L 370.549997 53.193651 
L 370.549997 95.029866 
L 367.287634 95.029866 
z
" style="fill:#0000ff;"/>
   </g>
   <g id="patch_121">
    <path clip-path="url(#p54f8d4dfb3)" d="M 370.00627 53.193651 
L 373.268633 53.193651 
L 373.268633 37.630877 
L 370.00627 37.630877 
z
" style="fill:#ff0000;"/>
   </g>
   <g id="patch_122">
    <path clip-path="url(#p54f8d4dfb3)" d="M 372.724906 53.193651 
L 375.987269 53.193651 
L 375.987269 54.558031 
L 372.724906 54.558031 
z
" style="fill:#0000ff;"/>
   </g>
   <g id="patch_123">
    <path clip-path="url(#p54f8d4dfb3)" d="M 375.443542 53.193651 
L 378.705905 53.193651 
L 378.705905 53.828892 
L 375.443542 53.828892 
z
" style="fill:#0000ff;"/>
   </g>
   <g id="patch_124">
    <path clip-path="url(#p54f8d4dfb3)" d="M 378.162178 53.193651 
L 381.424541 53.193651 
L 381.424541 49.386202 
L 378.162178 49.386202 
z
" style="fill:#ff0000;"/>
   </g>
   <g id="patch_125">
    <path clip-path="url(#p54f8d4dfb3)" d="M 380.880813 53.193651 
L 384.143176 53.193651 
L 384.143176 55.834743 
L 380.880813 55.834743 
z
" style="fill:#0000ff;"/>
   </g>
   <g id="patch_126">
    <path clip-path="url(#p54f8d4dfb3)" d="M 383.599449 53.193651 
L 386.861812 53.193651 
L 386.861812 53.251993 
L 383.599449 53.251993 
z
" style="fill:#0000ff;"/>
   </g>
   <g id="patch_127">
    <path clip-path="url(#p54f8d4dfb3)" d="M 386.318085 53.193651 
L 389.580448 53.193651 
L 389.580448 56.305486 
L 386.318085 56.305486 
z
" style="fill:#0000ff;"/>
   </g>
   <g id="patch_128">
    <path clip-path="url(#p54f8d4dfb3)" d="M 389.036721 53.193651 
L 392.299084 53.193651 
L 392.299084 55.753898 
L 389.036721 55.753898 
z
" style="fill:#0000ff;"/>
   </g>
   <g id="patch_129">
    <path clip-path="url(#p54f8d4dfb3)" d="M 391.755357 53.193651 
L 395.01772 53.193651 
L 395.01772 51.481422 
L 391.755357 51.481422 
z
" style="fill:#ff0000;"/>
   </g>
   <g id="patch_130">
    <path clip-path="url(#p54f8d4dfb3)" d="M 394.473992 53.193651 
L 397.736355 53.193651 
L 397.736355 57.106526 
L 394.473992 57.106526 
z
" style="fill:#0000ff;"/>
   </g>
   <g id="patch_131">
    <path clip-path="url(#p54f8d4dfb3)" d="M 397.192628 53.193651 
L 400.454991 53.193651 
L 400.454991 62.901822 
L 397.192628 62.901822 
z
" style="fill:#0000ff;"/>
   </g>
   <g id="patch_132">
    <path clip-path="url(#p54f8d4dfb3)" d="M 399.911264 53.193651 
L 403.173627 53.193651 
L 403.173627 58.787463 
L 399.911264 58.787463 
z
" style="fill:#0000ff;"/>
   </g>
   <g id="patch_133">
    <path clip-path="url(#p54f8d4dfb3)" d="M 402.6299 53.193651 
L 405.892263 53.193651 
L 405.892263 63.815567 
L 402.6299 63.815567 
z
" style="fill:#0000ff;"/>
   </g>
   <g id="patch_134">
    <path clip-path="url(#p54f8d4dfb3)" d="M 405.348536 53.193651 
L 408.610899 53.193651 
L 408.610899 65.511879 
L 405.348536 65.511879 
z
" style="fill:#0000ff;"/>
   </g>
   <g id="patch_135">
    <path clip-path="url(#p54f8d4dfb3)" d="M 408.067172 53.193651 
L 411.329534 53.193651 
L 411.329534 77.852506 
L 408.067172 77.852506 
z
" style="fill:#0000ff;"/>
   </g>
   <g id="patch_136">
    <path clip-path="url(#p54f8d4dfb3)" d="M 410.785807 53.193651 
L 414.04817 53.193651 
L 414.04817 60.449569 
L 410.785807 60.449569 
z
" style="fill:#0000ff;"/>
   </g>
   <g id="patch_137">
    <path clip-path="url(#p54f8d4dfb3)" d="M 413.504443 53.193651 
L 416.766806 53.193651 
L 416.766806 55.321137 
L 413.504443 55.321137 
z
" style="fill:#0000ff;"/>
   </g>
   <g id="patch_138">
    <path clip-path="url(#p54f8d4dfb3)" d="M 416.223079 53.193651 
L 419.485442 53.193651 
L 419.485442 61.594216 
L 416.223079 61.594216 
z
" style="fill:#0000ff;"/>
   </g>
   <g id="patch_139">
    <path clip-path="url(#p54f8d4dfb3)" d="M 418.941715 53.193651 
L 422.204078 53.193651 
L 422.204078 78.216832 
L 418.941715 78.216832 
z
" style="fill:#0000ff;"/>
   </g>
   <g id="patch_140">
    <path clip-path="url(#p54f8d4dfb3)" d="M 421.660351 53.193651 
L 424.922714 53.193651 
L 424.922714 73.568616 
L 421.660351 73.568616 
z
" style="fill:#0000ff;"/>
   </g>
   <g id="patch_141">
    <path clip-path="url(#p54f8d4dfb3)" d="M 424.378986 53.193651 
L 427.641349 53.193651 
L 427.641349 64.913902 
L 424.378986 64.913902 
z
" style="fill:#0000ff;"/>
   </g>
   <g id="patch_142">
    <path clip-path="url(#p54f8d4dfb3)" d="M 427.097622 53.193651 
L 430.359985 53.193651 
L 430.359985 92.552665 
L 427.097622 92.552665 
z
" style="fill:#0000ff;"/>
   </g>
   <g id="patch_143">
    <path clip-path="url(#p54f8d4dfb3)" d="M 429.816258 53.193651 
L 433.078621 53.193651 
L 433.078621 75.087276 
L 429.816258 75.087276 
z
" style="fill:#0000ff;"/>
   </g>
   <g id="patch_144">
    <path clip-path="url(#p54f8d4dfb3)" d="M 432.534894 53.193651 
L 435.797257 53.193651 
L 435.797257 80.764772 
L 432.534894 80.764772 
z
" style="fill:#0000ff;"/>
   </g>
   <g id="patch_145">
    <path clip-path="url(#p54f8d4dfb3)" d="M 435.25353 53.193651 
L 438.515893 53.193651 
L 438.515893 78.947232 
L 435.25353 78.947232 
z
" style="fill:#0000ff;"/>
   </g>
   <g id="patch_146">
    <path clip-path="url(#p54f8d4dfb3)" d="M 437.972165 53.193651 
L 441.234528 53.193651 
L 441.234528 56.525579 
L 437.972165 56.525579 
z
" style="fill:#0000ff;"/>
   </g>
   <g id="patch_147">
    <path clip-path="url(#p54f8d4dfb3)" d="M 440.690801 53.193651 
L 443.953164 53.193651 
L 443.953164 88.044615 
L 440.690801 88.044615 
z
" style="fill:#0000ff;"/>
   </g>
   <g id="patch_148">
    <path clip-path="url(#p54f8d4dfb3)" d="M 443.409437 53.193651 
L 446.6718 53.193651 
L 446.6718 39.669156 
L 443.409437 39.669156 
z
" style="fill:#ff0000;"/>
   </g>
   <g id="patch_149">
    <path clip-path="url(#p54f8d4dfb3)" d="M 446.128073 53.193651 
L 449.390436 53.193651 
L 449.390436 51.032224 
L 446.128073 51.032224 
z
" style="fill:#ff0000;"/>
   </g>
   <g id="patch_150">
    <path clip-path="url(#p54f8d4dfb3)" d="M 448.846709 53.193651 
L 452.109072 53.193651 
L 452.109072 39.392184 
L 448.846709 39.392184 
z
" style="fill:#ff0000;"/>
   </g>
   <g id="patch_151">
    <path clip-path="url(#p54f8d4dfb3)" d="M 451.565344 53.193651 
L 454.827707 53.193651 
L 454.827707 56.60809 
L 451.565344 56.60809 
z
" style="fill:#0000ff;"/>
   </g>
   <g id="patch_152">
    <path clip-path="url(#p54f8d4dfb3)" d="M 454.28398 53.193651 
L 457.546343 53.193651 
L 457.546343 56.526638 
L 454.28398 56.526638 
z
" style="fill:#0000ff;"/>
   </g>
   <g id="patch_153">
    <path clip-path="url(#p54f8d4dfb3)" d="M 457.002616 53.193651 
L 460.264979 53.193651 
L 460.264979 53.187588 
L 457.002616 53.187588 
z
" style="fill:#ff0000;"/>
   </g>
   <g id="patch_154">
    <path clip-path="url(#p54f8d4dfb3)" d="M 459.721252 53.193651 
L 462.983615 53.193651 
L 462.983615 54.122207 
L 459.721252 54.122207 
z
" style="fill:#0000ff;"/>
   </g>
   <g id="patch_155">
    <path clip-path="url(#p54f8d4dfb3)" d="M 462.439888 53.193651 
L 465.702251 53.193651 
L 465.702251 64.699689 
L 462.439888 64.699689 
z
" style="fill:#0000ff;"/>
   </g>
   <g id="patch_156">
    <path clip-path="url(#p54f8d4dfb3)" d="M 465.158524 53.193651 
L 468.420886 53.193651 
L 468.420886 78.756846 
L 465.158524 78.756846 
z
" style="fill:#0000ff;"/>
   </g>
   <g id="patch_157">
    <path clip-path="url(#p54f8d4dfb3)" d="M 467.877159 53.193651 
L 471.139522 53.193651 
L 471.139522 85.094365 
L 467.877159 85.094365 
z
" style="fill:#0000ff;"/>
   </g>
   <g id="patch_158">
    <path clip-path="url(#p54f8d4dfb3)" d="M 470.595795 53.193651 
L 473.858158 53.193651 
L 473.858158 44.538098 
L 470.595795 44.538098 
z
" style="fill:#ff0000;"/>
   </g>
   <g id="patch_159">
    <path clip-path="url(#p54f8d4dfb3)" d="M 473.314431 53.193651 
L 476.576794 53.193651 
L 476.576794 54.930932 
L 473.314431 54.930932 
z
" style="fill:#0000ff;"/>
   </g>
   <g id="patch_160">
    <path clip-path="url(#p54f8d4dfb3)" d="M 476.033067 53.193651 
L 479.29543 53.193651 
L 479.29543 98.001659 
L 476.033067 98.001659 
z
" style="fill:#0000ff;"/>
   </g>
   <g id="patch_161">
    <path clip-path="url(#p54f8d4dfb3)" d="M 478.751703 53.193651 
L 482.014066 53.193651 
L 482.014066 77.749437 
L 478.751703 77.749437 
z
" style="fill:#0000ff;"/>
   </g>
   <g id="patch_162">
    <path clip-path="url(#p54f8d4dfb3)" d="M 481.470338 53.193651 
L 484.732701 53.193651 
L 484.732701 57.755033 
L 481.470338 57.755033 
z
" style="fill:#0000ff;"/>
   </g>
   <g id="patch_163">
    <path clip-path="url(#p54f8d4dfb3)" d="M 484.188974 53.193651 
L 487.451337 53.193651 
L 487.451337 55.102398 
L 484.188974 55.102398 
z
" style="fill:#0000ff;"/>
   </g>
   <g id="patch_164">
    <path clip-path="url(#p54f8d4dfb3)" d="M 486.90761 53.193651 
L 490.169973 53.193651 
L 490.169973 76.309275 
L 486.90761 76.309275 
z
" style="fill:#0000ff;"/>
   </g>
   <g id="patch_165">
    <path clip-path="url(#p54f8d4dfb3)" d="M 489.626246 53.193651 
L 492.888609 53.193651 
L 492.888609 52.827723 
L 489.626246 52.827723 
z
" style="fill:#ff0000;"/>
   </g>
   <g id="patch_166">
    <path clip-path="url(#p54f8d4dfb3)" d="M 492.344882 53.193651 
L 495.607245 53.193651 
L 495.607245 59.290322 
L 492.344882 59.290322 
z
" style="fill:#0000ff;"/>
   </g>
   <g id="patch_167">
    <path clip-path="url(#p54f8d4dfb3)" d="M 495.063517 53.193651 
L 498.32588 53.193651 
L 498.32588 47.683639 
L 495.063517 47.683639 
z
" style="fill:#ff0000;"/>
   </g>
   <g id="patch_168">
    <path d="M 50.566563 135 
L 50.566563 30 
" style="fill:none;stroke:#000000;stroke-linecap:square;stroke-linejoin:miter;stroke-width:0.8;"/>
   </g>
   <g id="patch_169">
    <path d="M 496.966563 135 
L 496.966563 30 
" style="fill:none;stroke:#000000;stroke-linecap:square;stroke-linejoin:miter;stroke-width:0.8;"/>
   </g>
   <g id="patch_170">
    <path d="M 50.566563 135 
L 496.966563 135 
" style="fill:none;stroke:#000000;stroke-linecap:square;stroke-linejoin:miter;stroke-width:0.8;"/>
   </g>
   <g id="patch_171">
    <path d="M 50.566563 30 
L 496.966563 30 
" style="fill:none;stroke:#000000;stroke-linecap:square;stroke-linejoin:miter;stroke-width:0.8;"/>
   </g>
  </g>
  <g id="axes_2">
   <g id="patch_172">
    <path clip-path="url(#pfc0562ac14)" d="M 50.836617 18.866667 
L 72.440973 18.866667 
L 72.440973 16.533333 
L 50.836617 16.533333 
z
"/>
   </g>
   <g id="patch_173">
    <path clip-path="url(#pfc0562ac14)" d="M 72.440973 17.7 
L 64.339339 27.033333 
L 64.339339 22.366667 
L 50.836617 22.366667 
L 50.836617 13.033333 
L 64.339339 13.033333 
L 64.339339 8.366667 
z
" style="fill:#90ee90;stroke:#000000;stroke-linejoin:miter;"/>
   </g>
   <g id="patch_174">
    <path clip-path="url(#pfc0562ac14)" d="M 72.440973 18.866667 
L 88.644239 18.866667 
L 88.644239 16.533333 
L 72.440973 16.533333 
z
"/>
   </g>
   <g id="patch_175">
    <path clip-path="url(#pfc0562ac14)" d="M 88.644239 22.833333 
L 115.649684 22.833333 
L 115.649684 12.566667 
L 88.644239 12.566667 
z
" style="fill:#e6e6fa;stroke:#000000;stroke-linejoin:miter;"/>
   </g>
   <g id="patch_176">
    <path clip-path="url(#pfc0562ac14)" d="M 115.649684 18.866667 
L 145.355673 18.866667 
L 145.355673 16.533333 
L 115.649684 16.533333 
z
"/>
   </g>
   <g id="patch_177">
    <path clip-path="url(#pfc0562ac14)" d="M 145.355673 18.866667 
L 172.361118 18.866667 
L 172.361118 16.533333 
L 145.355673 16.533333 
z
"/>
   </g>
   <g id="patch_178">
    <path clip-path="url(#pfc0562ac14)" d="M 172.361118 17.7 
L 164.259484 27.033333 
L 164.259484 22.366667 
L 145.355673 22.366667 
L 145.355673 13.033333 
L 164.259484 13.033333 
L 164.259484 8.366667 
z
" style="fill:#90ee90;stroke:#000000;stroke-linejoin:miter;"/>
   </g>
   <g id="patch_179">
    <path clip-path="url(#pfc0562ac14)" d="M 172.361118 18.866667 
L 177.762207 18.866667 
L 177.762207 16.533333 
L 172.361118 16.533333 
z
"/>
   </g>
   <g id="patch_180">
    <path clip-path="url(#pfc0562ac14)" d="M 177.762207 18.866667 
L 204.767651 18.866667 
L 204.767651 16.533333 
L 177.762207 16.533333 
z
"/>
   </g>
   <g id="patch_181">
    <path clip-path="url(#pfc0562ac14)" d="M 204.767651 17.7 
L 196.666018 27.033333 
L 196.666018 22.366667 
L 177.762207 22.366667 
L 177.762207 13.033333 
L 196.666018 13.033333 
L 196.666018 8.366667 
z
" style="fill:#90ee90;stroke:#000000;stroke-linejoin:miter;"/>
   </g>
   <g id="patch_182">
    <path clip-path="url(#pfc0562ac14)" d="M 204.767651 18.866667 
L 220.970918 18.866667 
L 220.970918 16.533333 
L 204.767651 16.533333 
z
"/>
   </g>
   <g id="patch_183">
    <path clip-path="url(#pfc0562ac14)" d="M 220.970918 22.833333 
L 247.976363 22.833333 
L 247.976363 12.566667 
L 220.970918 12.566667 
z
" style="fill:#e6e6fa;stroke:#000000;stroke-linejoin:miter;"/>
   </g>
   <g id="patch_184">
    <path clip-path="url(#pfc0562ac14)" d="M 247.976363 18.866667 
L 253.377452 18.866667 
L 253.377452 16.533333 
L 247.976363 16.533333 
z
"/>
   </g>
   <g id="patch_185">
    <path clip-path="url(#pfc0562ac14)" d="M 253.377452 18.866667 
L 272.281263 18.866667 
L 272.281263 16.533333 
L 253.377452 16.533333 
z
"/>
   </g>
   <g id="patch_186">
    <path clip-path="url(#pfc0562ac14)" d="M 272.281263 17.7 
L 264.17963 27.033333 
L 264.17963 22.366667 
L 253.377452 22.366667 
L 253.377452 13.033333 
L 264.17963 13.033333 
L 264.17963 8.366667 
z
" style="fill:#90ee90;stroke:#000000;stroke-linejoin:miter;"/>
   </g>
   <g id="patch_187">
    <path clip-path="url(#pfc0562ac14)" d="M 272.281263 18.866667 
L 280.382896 18.866667 
L 280.382896 16.533333 
L 272.281263 16.533333 
z
"/>
   </g>
   <g id="patch_188">
    <path clip-path="url(#pfc0562ac14)" d="M 280.382896 22.833333 
L 326.292152 22.833333 
L 326.292152 12.566667 
L 280.382896 12.566667 
z
" style="fill:#e6e6fa;stroke:#000000;stroke-linejoin:miter;"/>
   </g>
   <g id="patch_189">
    <path clip-path="url(#pfc0562ac14)" d="M 326.292152 18.866667 
L 345.195964 18.866667 
L 345.195964 16.533333 
L 326.292152 16.533333 
z
"/>
   </g>
   <g id="patch_190">
    <path clip-path="url(#pfc0562ac14)" d="M 345.195964 18.866667 
L 361.39923 18.866667 
L 361.39923 16.533333 
L 345.195964 16.533333 
z
"/>
   </g>
   <g id="patch_191">
    <path clip-path="url(#pfc0562ac14)" d="M 361.39923 17.7 
L 353.297597 27.033333 
L 353.297597 22.366667 
L 345.195964 22.366667 
L 345.195964 13.033333 
L 353.297597 13.033333 
L 353.297597 8.366667 
z
" style="fill:#90ee90;stroke:#000000;stroke-linejoin:miter;"/>
   </g>
   <g id="patch_192">
    <path clip-path="url(#pfc0562ac14)" d="M 361.39923 18.866667 
L 388.404675 18.866667 
L 388.404675 16.533333 
L 361.39923 16.533333 
z
"/>
   </g>
   <g id="patch_193">
    <path clip-path="url(#pfc0562ac14)" d="M 388.404675 22.833333 
L 418.110664 22.833333 
L 418.110664 12.566667 
L 388.404675 12.566667 
z
" style="fill:#e6e6fa;stroke:#000000;stroke-linejoin:miter;"/>
   </g>
   <g id="patch_194">
    <path clip-path="url(#pfc0562ac14)" d="M 418.110664 18.866667 
L 426.212298 18.866667 
L 426.212298 16.533333 
L 418.110664 16.533333 
z
"/>
   </g>
   <g id="patch_195">
    <path clip-path="url(#pfc0562ac14)" d="M 426.212298 18.866667 
L 434.313931 18.866667 
L 434.313931 16.533333 
L 426.212298 16.533333 
z
"/>
   </g>
   <g id="patch_196">
    <path clip-path="url(#pfc0562ac14)" d="M 434.313931 17.7 
L 426.212298 27.033333 
L 426.212298 22.366667 
L 426.212298 22.366667 
L 426.212298 13.033333 
L 426.212298 13.033333 
L 426.212298 8.366667 
z
" style="fill:#90ee90;stroke:#000000;stroke-linejoin:miter;"/>
   </g>
   <g id="patch_197">
    <path clip-path="url(#pfc0562ac14)" d="M 434.313931 18.866667 
L 455.918287 18.866667 
L 455.918287 16.533333 
L 434.313931 16.533333 
z
"/>
   </g>
   <g id="patch_198">
    <path clip-path="url(#pfc0562ac14)" d="M 455.918287 22.833333 
L 496.426454 22.833333 
L 496.426454 12.566667 
L 455.918287 12.566667 
z
" style="fill:#e6e6fa;stroke:#000000;stroke-linejoin:miter;"/>
   </g>
  </g>
 </g>
 <defs>
  <clipPath id="p54f8d4dfb3">
   <rect height="105" width="446.4" x="50.566563" y="30"/>
  </clipPath>
  <clipPath id="pfc0562ac14">
   <rect height="21" width="446.4" x="50.566563" y="7.2"/>
  </clipPath>
 </defs>
</svg>
