<?xml version="1.0" encoding="utf-8" standalone="no"?>
<!DOCTYPE svg PUBLIC "-//W3C//DTD SVG 1.1//EN"
  "http://www.w3.org/Graphics/SVG/1.1/DTD/svg11.dtd">
<svg height="170.789844pt" version="1.1" viewBox="0 0 392.566562 170.789844" width="392.566562pt" xmlns="http://www.w3.org/2000/svg" xmlns:xlink="http://www.w3.org/1999/xlink">
 <metadata>
  <rdf:RDF xmlns:cc="http://creativecommons.org/ns#" xmlns:dc="http://purl.org/dc/elements/1.1/" xmlns:rdf="http://www.w3.org/1999/02/22-rdf-syntax-ns#">
   <cc:Work>
    <dc:type rdf:resource="http://purl.org/dc/dcmitype/StillImage"/>
    <dc:date>2021-10-17T19:09:35.795919</dc:date>
    <dc:format>image/svg+xml</dc:format>
    <dc:creator>
     <cc:Agent>
      <dc:title>Matplotlib v3.4.3, https://matplotlib.org/</dc:title>
     </cc:Agent>
    </dc:creator>
   </cc:Work>
  </rdf:RDF>
 </metadata>
 <defs>
  <style type="text/css">*{stroke-linecap:butt;stroke-linejoin:round;}</style>
 </defs>
 <g id="figure_1">
  <g id="patch_1">
   <path d="M -0 170.789844 
L 392.566562 170.789844 
L 392.566562 0 
L -0 0 
z
" style="fill:none;"/>
  </g>
  <g id="axes_1">
   <g id="patch_2">
    <path d="M 50.566563 135 
L 385.366562 135 
L 385.366562 30 
L 50.566563 30 
z
" style="fill:none;"/>
   </g>
   <g id="matplotlib.axis_1">
    <g id="xtick_1">
     <g id="line2d_1">
      <defs>
       <path d="M 0 0 
L 0 3.5 
" id="m06bdecd065" style="stroke:#000000;stroke-width:0.8;"/>
      </defs>
      <g>
       <use style="stroke:#000000;stroke-width:0.8;" x="50.77046" xlink:href="#m06bdecd065" y="135"/>
      </g>
     </g>
     <g id="text_1">
      <text style="font-family:Helvetica;font-size:9px;font-stretch:normal;font-style:normal;font-weight:normal;text-anchor:middle;" transform="rotate(-0, 50.77046, 148.456094)" x="50.77046" y="148.456094">2</text>
     </g>
    </g>
    <g id="xtick_2">
     <g id="line2d_2">
      <g>
       <use style="stroke:#000000;stroke-width:0.8;" x="71.160229" xlink:href="#m06bdecd065" y="135"/>
      </g>
     </g>
     <g id="text_2">
      <text style="font-family:Helvetica;font-size:9px;font-stretch:normal;font-style:normal;font-weight:normal;text-anchor:middle;" transform="rotate(-0, 71.160229, 148.456094)" x="71.160229" y="148.456094">12</text>
     </g>
    </g>
    <g id="xtick_3">
     <g id="line2d_3">
      <g>
       <use style="stroke:#000000;stroke-width:0.8;" x="91.549997" xlink:href="#m06bdecd065" y="135"/>
      </g>
     </g>
     <g id="text_3">
      <text style="font-family:Helvetica;font-size:9px;font-stretch:normal;font-style:normal;font-weight:normal;text-anchor:middle;" transform="rotate(-0, 91.549997, 148.456094)" x="91.549997" y="148.456094">22</text>
     </g>
    </g>
    <g id="xtick_4">
     <g id="line2d_4">
      <g>
       <use style="stroke:#000000;stroke-width:0.8;" x="111.939766" xlink:href="#m06bdecd065" y="135"/>
      </g>
     </g>
     <g id="text_4">
      <text style="font-family:Helvetica;font-size:9px;font-stretch:normal;font-style:normal;font-weight:normal;text-anchor:middle;" transform="rotate(-0, 111.939766, 148.456094)" x="111.939766" y="148.456094">32</text>
     </g>
    </g>
    <g id="xtick_5">
     <g id="line2d_5">
      <g>
       <use style="stroke:#000000;stroke-width:0.8;" x="132.329534" xlink:href="#m06bdecd065" y="135"/>
      </g>
     </g>
     <g id="text_5">
      <text style="font-family:Helvetica;font-size:9px;font-stretch:normal;font-style:normal;font-weight:normal;text-anchor:middle;" transform="rotate(-0, 132.329534, 148.456094)" x="132.329534" y="148.456094">42</text>
     </g>
    </g>
    <g id="xtick_6">
     <g id="line2d_6">
      <g>
       <use style="stroke:#000000;stroke-width:0.8;" x="152.719303" xlink:href="#m06bdecd065" y="135"/>
      </g>
     </g>
     <g id="text_6">
      <text style="font-family:Helvetica;font-size:9px;font-stretch:normal;font-style:normal;font-weight:normal;text-anchor:middle;" transform="rotate(-0, 152.719303, 148.456094)" x="152.719303" y="148.456094">52</text>
     </g>
    </g>
    <g id="xtick_7">
     <g id="line2d_7">
      <g>
       <use style="stroke:#000000;stroke-width:0.8;" x="173.109072" xlink:href="#m06bdecd065" y="135"/>
      </g>
     </g>
     <g id="text_7">
      <text style="font-family:Helvetica;font-size:9px;font-stretch:normal;font-style:normal;font-weight:normal;text-anchor:middle;" transform="rotate(-0, 173.109072, 148.456094)" x="173.109072" y="148.456094">62</text>
     </g>
    </g>
    <g id="xtick_8">
     <g id="line2d_8">
      <g>
       <use style="stroke:#000000;stroke-width:0.8;" x="193.49884" xlink:href="#m06bdecd065" y="135"/>
      </g>
     </g>
     <g id="text_8">
      <text style="font-family:Helvetica;font-size:9px;font-stretch:normal;font-style:normal;font-weight:normal;text-anchor:middle;" transform="rotate(-0, 193.49884, 148.456094)" x="193.49884" y="148.456094">72</text>
     </g>
    </g>
    <g id="xtick_9">
     <g id="line2d_9">
      <g>
       <use style="stroke:#000000;stroke-width:0.8;" x="213.888609" xlink:href="#m06bdecd065" y="135"/>
      </g>
     </g>
     <g id="text_9">
      <text style="font-family:Helvetica;font-size:9px;font-stretch:normal;font-style:normal;font-weight:normal;text-anchor:middle;" transform="rotate(-0, 213.888609, 148.456094)" x="213.888609" y="148.456094">82</text>
     </g>
    </g>
    <g id="xtick_10">
     <g id="line2d_10">
      <g>
       <use style="stroke:#000000;stroke-width:0.8;" x="234.278377" xlink:href="#m06bdecd065" y="135"/>
      </g>
     </g>
     <g id="text_10">
      <text style="font-family:Helvetica;font-size:9px;font-stretch:normal;font-style:normal;font-weight:normal;text-anchor:middle;" transform="rotate(-0, 234.278377, 148.456094)" x="234.278377" y="148.456094">92</text>
     </g>
    </g>
    <g id="xtick_11">
     <g id="line2d_11">
      <g>
       <use style="stroke:#000000;stroke-width:0.8;" x="254.668146" xlink:href="#m06bdecd065" y="135"/>
      </g>
     </g>
     <g id="text_11">
      <text style="font-family:Helvetica;font-size:9px;font-stretch:normal;font-style:normal;font-weight:normal;text-anchor:middle;" transform="rotate(-0, 254.668146, 148.456094)" x="254.668146" y="148.456094">102</text>
     </g>
    </g>
    <g id="xtick_12">
     <g id="line2d_12">
      <g>
       <use style="stroke:#000000;stroke-width:0.8;" x="275.057915" xlink:href="#m06bdecd065" y="135"/>
      </g>
     </g>
     <g id="text_12">
      <text style="font-family:Helvetica;font-size:9px;font-stretch:normal;font-style:normal;font-weight:normal;text-anchor:middle;" transform="rotate(-0, 275.057915, 148.456094)" x="275.057915" y="148.456094">112</text>
     </g>
    </g>
    <g id="xtick_13">
     <g id="line2d_13">
      <g>
       <use style="stroke:#000000;stroke-width:0.8;" x="295.447683" xlink:href="#m06bdecd065" y="135"/>
      </g>
     </g>
     <g id="text_13">
      <text style="font-family:Helvetica;font-size:9px;font-stretch:normal;font-style:normal;font-weight:normal;text-anchor:middle;" transform="rotate(-0, 295.447683, 148.456094)" x="295.447683" y="148.456094">122</text>
     </g>
    </g>
    <g id="xtick_14">
     <g id="line2d_14">
      <g>
       <use style="stroke:#000000;stroke-width:0.8;" x="315.837452" xlink:href="#m06bdecd065" y="135"/>
      </g>
     </g>
     <g id="text_14">
      <text style="font-family:Helvetica;font-size:9px;font-stretch:normal;font-style:normal;font-weight:normal;text-anchor:middle;" transform="rotate(-0, 315.837452, 148.456094)" x="315.837452" y="148.456094">132</text>
     </g>
    </g>
    <g id="xtick_15">
     <g id="line2d_15">
      <g>
       <use style="stroke:#000000;stroke-width:0.8;" x="336.22722" xlink:href="#m06bdecd065" y="135"/>
      </g>
     </g>
     <g id="text_15">
      <text style="font-family:Helvetica;font-size:9px;font-stretch:normal;font-style:normal;font-weight:normal;text-anchor:middle;" transform="rotate(-0, 336.22722, 148.456094)" x="336.22722" y="148.456094">142</text>
     </g>
    </g>
    <g id="xtick_16">
     <g id="line2d_16">
      <g>
       <use style="stroke:#000000;stroke-width:0.8;" x="356.616989" xlink:href="#m06bdecd065" y="135"/>
      </g>
     </g>
     <g id="text_16">
      <text style="font-family:Helvetica;font-size:9px;font-stretch:normal;font-style:normal;font-weight:normal;text-anchor:middle;" transform="rotate(-0, 356.616989, 148.456094)" x="356.616989" y="148.456094">152</text>
     </g>
    </g>
    <g id="xtick_17">
     <g id="line2d_17">
      <g>
       <use style="stroke:#000000;stroke-width:0.8;" x="377.006757" xlink:href="#m06bdecd065" y="135"/>
      </g>
     </g>
     <g id="text_17">
      <text style="font-family:Helvetica;font-size:9px;font-stretch:normal;font-style:normal;font-weight:normal;text-anchor:middle;" transform="rotate(-0, 377.006757, 148.456094)" x="377.006757" y="148.456094">162</text>
     </g>
    </g>
    <g id="text_18">
     <text style="font-family:Helvetica;font-size:10px;font-stretch:normal;font-style:normal;font-weight:normal;text-anchor:middle;" transform="rotate(-0, 217.966562, 161.505469)" x="217.966562" y="161.505469">Residue</text>
    </g>
   </g>
   <g id="matplotlib.axis_2">
    <g id="ytick_1">
     <g id="line2d_18">
      <defs>
       <path d="M 0 0 
L -3.5 0 
" id="m1a434ed77a" style="stroke:#000000;stroke-width:0.8;"/>
      </defs>
      <g>
       <use style="stroke:#000000;stroke-width:0.8;" x="50.566563" xlink:href="#m1a434ed77a" y="128.637978"/>
      </g>
     </g>
     <g id="text_19">
      <text style="font-family:Helvetica;font-size:9px;font-stretch:normal;font-style:normal;font-weight:normal;text-anchor:end;" transform="rotate(-0, 43.566563, 131.866025)" x="43.566563" y="131.866025">−1.5</text>
     </g>
    </g>
    <g id="ytick_2">
     <g id="line2d_19">
      <g>
       <use style="stroke:#000000;stroke-width:0.8;" x="50.566563" xlink:href="#m1a434ed77a" y="103.489869"/>
      </g>
     </g>
     <g id="text_20">
      <text style="font-family:Helvetica;font-size:9px;font-stretch:normal;font-style:normal;font-weight:normal;text-anchor:end;" transform="rotate(-0, 43.566563, 106.717916)" x="43.566563" y="106.717916">−1.0</text>
     </g>
    </g>
    <g id="ytick_3">
     <g id="line2d_20">
      <g>
       <use style="stroke:#000000;stroke-width:0.8;" x="50.566563" xlink:href="#m1a434ed77a" y="78.34176"/>
      </g>
     </g>
     <g id="text_21">
      <text style="font-family:Helvetica;font-size:9px;font-stretch:normal;font-style:normal;font-weight:normal;text-anchor:end;" transform="rotate(-0, 43.566563, 81.569806)" x="43.566563" y="81.569806">−0.5</text>
     </g>
    </g>
    <g id="ytick_4">
     <g id="line2d_21">
      <g>
       <use style="stroke:#000000;stroke-width:0.8;" x="50.566563" xlink:href="#m1a434ed77a" y="53.193651"/>
      </g>
     </g>
     <g id="text_22">
      <text style="font-family:Helvetica;font-size:9px;font-stretch:normal;font-style:normal;font-weight:normal;text-anchor:end;" transform="rotate(-0, 43.566563, 56.421697)" x="43.566563" y="56.421697">0.0</text>
     </g>
    </g>
    <g id="text_23">
     <!-- $∆E^i_x$ -->
     <g transform="translate(7.2 79.8)">
      <text>
       <tspan style="font-family:DejaVu Sans;font-size:10px;font-style:book;font-weight:book;" x="0" y="-0.3156250000000007">∆</tspan>
       <tspan style="font-family:Helvetica;font-size:10px;font-style:oblique;font-weight:oblique;" x="6.689453" y="-0.3156250000000007">E</tspan>
       <tspan style="font-family:Helvetica;font-size:7px;font-style:oblique;font-weight:oblique;" x="13.359375 14.058099" y="2.3015624999999993 -3.9796875000000007">xi</tspan>
      </text>
     </g>
    </g>
   </g>
   <g id="patch_3">
    <path clip-path="url(#pc6925801c4)" d="M 49.547074 53.193651 
L 51.993846 53.193651 
L 51.993846 56.163052 
L 49.547074 56.163052 
z
" style="fill:#0000ff;"/>
   </g>
   <g id="patch_4">
    <path clip-path="url(#pc6925801c4)" d="M 51.586051 53.193651 
L 54.032823 53.193651 
L 54.032823 79.477323 
L 51.586051 79.477323 
z
" style="fill:#0000ff;"/>
   </g>
   <g id="patch_5">
    <path clip-path="url(#pc6925801c4)" d="M 53.625028 53.193651 
L 56.0718 53.193651 
L 56.0718 60.842615 
L 53.625028 60.842615 
z
" style="fill:#0000ff;"/>
   </g>
   <g id="patch_6">
    <path clip-path="url(#pc6925801c4)" d="M 55.664005 53.193651 
L 58.110777 53.193651 
L 58.110777 67.674938 
L 55.664005 67.674938 
z
" style="fill:#0000ff;"/>
   </g>
   <g id="patch_7">
    <path clip-path="url(#pc6925801c4)" d="M 57.702982 53.193651 
L 60.149754 53.193651 
L 60.149754 101.923127 
L 57.702982 101.923127 
z
" style="fill:#0000ff;"/>
   </g>
   <g id="patch_8">
    <path clip-path="url(#pc6925801c4)" d="M 59.741958 53.193651 
L 62.188731 53.193651 
L 62.188731 79.184217 
L 59.741958 79.184217 
z
" style="fill:#0000ff;"/>
   </g>
   <g id="patch_9">
    <path clip-path="url(#pc6925801c4)" d="M 61.780935 53.193651 
L 64.227707 53.193651 
L 64.227707 95.04206 
L 61.780935 95.04206 
z
" style="fill:#0000ff;"/>
   </g>
   <g id="patch_10">
    <path clip-path="url(#pc6925801c4)" d="M 63.819912 53.193651 
L 66.266684 53.193651 
L 66.266684 82.211049 
L 63.819912 82.211049 
z
" style="fill:#0000ff;"/>
   </g>
   <g id="patch_11">
    <path clip-path="url(#pc6925801c4)" d="M 65.858889 53.193651 
L 68.305661 53.193651 
L 68.305661 128.104847 
L 65.858889 128.104847 
z
" style="fill:#0000ff;"/>
   </g>
   <g id="patch_12">
    <path clip-path="url(#pc6925801c4)" d="M 67.897866 53.193651 
L 70.344638 53.193651 
L 70.344638 60.821634 
L 67.897866 60.821634 
z
" style="fill:#0000ff;"/>
   </g>
   <g id="patch_13">
    <path clip-path="url(#pc6925801c4)" d="M 69.936843 53.193651 
L 72.383615 53.193651 
L 72.383615 46.012127 
L 69.936843 46.012127 
z
" style="fill:#ff0000;"/>
   </g>
   <g id="patch_14">
    <path clip-path="url(#pc6925801c4)" d="M 71.97582 53.193651 
L 74.422592 53.193651 
L 74.422592 48.51311 
L 71.97582 48.51311 
z
" style="fill:#ff0000;"/>
   </g>
   <g id="patch_15">
    <path clip-path="url(#pc6925801c4)" d="M 74.014796 53.193651 
L 76.461569 53.193651 
L 76.461569 68.513314 
L 74.014796 68.513314 
z
" style="fill:#0000ff;"/>
   </g>
   <g id="patch_16">
    <path clip-path="url(#pc6925801c4)" d="M 76.053773 53.193651 
L 78.500545 53.193651 
L 78.500545 128.218065 
L 76.053773 128.218065 
z
" style="fill:#0000ff;"/>
   </g>
   <g id="patch_17">
    <path clip-path="url(#pc6925801c4)" d="M 78.09275 53.193651 
L 80.539522 53.193651 
L 80.539522 125.060087 
L 78.09275 125.060087 
z
" style="fill:#0000ff;"/>
   </g>
   <g id="patch_18">
    <path clip-path="url(#pc6925801c4)" d="M 80.131727 53.193651 
L 82.578499 53.193651 
L 82.578499 124.856611 
L 80.131727 124.856611 
z
" style="fill:#0000ff;"/>
   </g>
   <g id="patch_19">
    <path clip-path="url(#pc6925801c4)" d="M 82.170704 53.193651 
L 84.617476 53.193651 
L 84.617476 83.483053 
L 82.170704 83.483053 
z
" style="fill:#0000ff;"/>
   </g>
   <g id="patch_20">
    <path clip-path="url(#pc6925801c4)" d="M 84.209681 53.193651 
L 86.656453 53.193651 
L 86.656453 80.66891 
L 84.209681 80.66891 
z
" style="fill:#0000ff;"/>
   </g>
   <g id="patch_21">
    <path clip-path="url(#pc6925801c4)" d="M 86.248658 53.193651 
L 88.69543 53.193651 
L 88.69543 84.079164 
L 86.248658 84.079164 
z
" style="fill:#0000ff;"/>
   </g>
   <g id="patch_22">
    <path clip-path="url(#pc6925801c4)" d="M 88.287634 53.193651 
L 90.734407 53.193651 
L 90.734407 86.493163 
L 88.287634 86.493163 
z
" style="fill:#0000ff;"/>
   </g>
   <g id="patch_23">
    <path clip-path="url(#pc6925801c4)" d="M 90.326611 53.193651 
L 92.773383 53.193651 
L 92.773383 55.098224 
L 90.326611 55.098224 
z
" style="fill:#0000ff;"/>
   </g>
   <g id="patch_24">
    <path clip-path="url(#pc6925801c4)" d="M 92.365588 53.193651 
L 94.81236 53.193651 
L 94.81236 56.490387 
L 92.365588 56.490387 
z
" style="fill:#0000ff;"/>
   </g>
   <g id="patch_25">
    <path clip-path="url(#pc6925801c4)" d="M 94.404565 53.193651 
L 96.851337 53.193651 
L 96.851337 65.026922 
L 94.404565 65.026922 
z
" style="fill:#0000ff;"/>
   </g>
   <g id="patch_26">
    <path clip-path="url(#pc6925801c4)" d="M 96.443542 53.193651 
L 98.890314 53.193651 
L 98.890314 62.62987 
L 96.443542 62.62987 
z
" style="fill:#0000ff;"/>
   </g>
   <g id="patch_27">
    <path clip-path="url(#pc6925801c4)" d="M 98.482519 53.193651 
L 100.929291 53.193651 
L 100.929291 55.443669 
L 98.482519 55.443669 
z
" style="fill:#0000ff;"/>
   </g>
   <g id="patch_28">
    <path clip-path="url(#pc6925801c4)" d="M 100.521496 53.193651 
L 102.968268 53.193651 
L 102.968268 52.610043 
L 100.521496 52.610043 
z
" style="fill:#ff0000;"/>
   </g>
   <g id="patch_29">
    <path clip-path="url(#pc6925801c4)" d="M 102.560472 53.193651 
L 105.007245 53.193651 
L 105.007245 93.412696 
L 102.560472 93.412696 
z
" style="fill:#0000ff;"/>
   </g>
   <g id="patch_30">
    <path clip-path="url(#pc6925801c4)" d="M 104.599449 53.193651 
L 107.046221 53.193651 
L 107.046221 61.488298 
L 104.599449 61.488298 
z
" style="fill:#0000ff;"/>
   </g>
   <g id="patch_31">
    <path clip-path="url(#pc6925801c4)" d="M 106.638426 53.193651 
L 109.085198 53.193651 
L 109.085198 60.475258 
L 106.638426 60.475258 
z
" style="fill:#0000ff;"/>
   </g>
   <g id="patch_32">
    <path clip-path="url(#pc6925801c4)" d="M 108.677403 53.193651 
L 111.124175 53.193651 
L 111.124175 81.934592 
L 108.677403 81.934592 
z
" style="fill:#0000ff;"/>
   </g>
   <g id="patch_33">
    <path clip-path="url(#pc6925801c4)" d="M 110.71638 53.193651 
L 113.163152 53.193651 
L 113.163152 88.373881 
L 110.71638 88.373881 
z
" style="fill:#0000ff;"/>
   </g>
   <g id="patch_34">
    <path clip-path="url(#pc6925801c4)" d="M 112.755357 53.193651 
L 115.202129 53.193651 
L 115.202129 90.963073 
L 112.755357 90.963073 
z
" style="fill:#0000ff;"/>
   </g>
   <g id="patch_35">
    <path clip-path="url(#pc6925801c4)" d="M 114.794334 53.193651 
L 117.241106 53.193651 
L 117.241106 93.934814 
L 114.794334 93.934814 
z
" style="fill:#0000ff;"/>
   </g>
   <g id="patch_36">
    <path clip-path="url(#pc6925801c4)" d="M 116.83331 53.193651 
L 119.280083 53.193651 
L 119.280083 129.83044 
L 116.83331 129.83044 
z
" style="fill:#0000ff;"/>
   </g>
   <g id="patch_37">
    <path clip-path="url(#pc6925801c4)" d="M 118.872287 53.193651 
L 121.319059 53.193651 
L 121.319059 93.941461 
L 118.872287 93.941461 
z
" style="fill:#0000ff;"/>
   </g>
   <g id="patch_38">
    <path clip-path="url(#pc6925801c4)" d="M 120.911264 53.193651 
L 123.358036 53.193651 
L 123.358036 100.160837 
L 120.911264 100.160837 
z
" style="fill:#0000ff;"/>
   </g>
   <g id="patch_39">
    <path clip-path="url(#pc6925801c4)" d="M 122.950241 53.193651 
L 125.397013 53.193651 
L 125.397013 123.552071 
L 122.950241 123.552071 
z
" style="fill:#0000ff;"/>
   </g>
   <g id="patch_40">
    <path clip-path="url(#pc6925801c4)" d="M 124.989218 53.193651 
L 127.43599 53.193651 
L 127.43599 75.707905 
L 124.989218 75.707905 
z
" style="fill:#0000ff;"/>
   </g>
   <g id="patch_41">
    <path clip-path="url(#pc6925801c4)" d="M 127.028195 53.193651 
L 129.474967 53.193651 
L 129.474967 130.227273 
L 127.028195 130.227273 
z
" style="fill:#0000ff;"/>
   </g>
   <g id="patch_42">
    <path clip-path="url(#pc6925801c4)" d="M 129.067172 53.193651 
L 131.513944 53.193651 
L 131.513944 71.508434 
L 129.067172 71.508434 
z
" style="fill:#0000ff;"/>
   </g>
   <g id="patch_43">
    <path clip-path="url(#pc6925801c4)" d="M 131.106148 53.193651 
L 133.552921 53.193651 
L 133.552921 45.909571 
L 131.106148 45.909571 
z
" style="fill:#ff0000;"/>
   </g>
   <g id="patch_44">
    <path clip-path="url(#pc6925801c4)" d="M 133.145125 53.193651 
L 135.591897 53.193651 
L 135.591897 55.932236 
L 133.145125 55.932236 
z
" style="fill:#0000ff;"/>
   </g>
   <g id="patch_45">
    <path clip-path="url(#pc6925801c4)" d="M 135.184102 53.193651 
L 137.630874 53.193651 
L 137.630874 53.645838 
L 135.184102 53.645838 
z
" style="fill:#0000ff;"/>
   </g>
   <g id="patch_46">
    <path clip-path="url(#pc6925801c4)" d="M 137.223079 53.193651 
L 139.669851 53.193651 
L 139.669851 55.914173 
L 137.223079 55.914173 
z
" style="fill:#0000ff;"/>
   </g>
   <g id="patch_47">
    <path clip-path="url(#pc6925801c4)" d="M 139.262056 53.193651 
L 141.708828 53.193651 
L 141.708828 61.679172 
L 139.262056 61.679172 
z
" style="fill:#0000ff;"/>
   </g>
   <g id="patch_48">
    <path clip-path="url(#pc6925801c4)" d="M 141.301033 53.193651 
L 143.747805 53.193651 
L 143.747805 55.468052 
L 141.301033 55.468052 
z
" style="fill:#0000ff;"/>
   </g>
   <g id="patch_49">
    <path clip-path="url(#pc6925801c4)" d="M 143.34001 53.193651 
L 145.786782 53.193651 
L 145.786782 60.915225 
L 143.34001 60.915225 
z
" style="fill:#0000ff;"/>
   </g>
   <g id="patch_50">
    <path clip-path="url(#pc6925801c4)" d="M 145.378986 53.193651 
L 147.825759 53.193651 
L 147.825759 55.526009 
L 145.378986 55.526009 
z
" style="fill:#0000ff;"/>
   </g>
   <g id="patch_51">
    <path clip-path="url(#pc6925801c4)" d="M 147.417963 53.193651 
L 149.864735 53.193651 
L 149.864735 57.126439 
L 147.417963 57.126439 
z
" style="fill:#0000ff;"/>
   </g>
   <g id="patch_52">
    <path clip-path="url(#pc6925801c4)" d="M 149.45694 53.193651 
L 151.903712 53.193651 
L 151.903712 55.334206 
L 149.45694 55.334206 
z
" style="fill:#0000ff;"/>
   </g>
   <g id="patch_53">
    <path clip-path="url(#pc6925801c4)" d="M 151.495917 53.193651 
L 153.942689 53.193651 
L 153.942689 51.441331 
L 151.495917 51.441331 
z
" style="fill:#ff0000;"/>
   </g>
   <g id="patch_54">
    <path clip-path="url(#pc6925801c4)" d="M 153.534894 53.193651 
L 155.981666 53.193651 
L 155.981666 85.024318 
L 153.534894 85.024318 
z
" style="fill:#0000ff;"/>
   </g>
   <g id="patch_55">
    <path clip-path="url(#pc6925801c4)" d="M 155.573871 53.193651 
L 158.020643 53.193651 
L 158.020643 95.595694 
L 155.573871 95.595694 
z
" style="fill:#0000ff;"/>
   </g>
   <g id="patch_56">
    <path clip-path="url(#pc6925801c4)" d="M 157.612848 53.193651 
L 160.05962 53.193651 
L 160.05962 98.976478 
L 157.612848 98.976478 
z
" style="fill:#0000ff;"/>
   </g>
   <g id="patch_57">
    <path clip-path="url(#pc6925801c4)" d="M 159.651824 53.193651 
L 162.098597 53.193651 
L 162.098597 58.464225 
L 159.651824 58.464225 
z
" style="fill:#0000ff;"/>
   </g>
   <g id="patch_58">
    <path clip-path="url(#pc6925801c4)" d="M 161.690801 53.193651 
L 164.137573 53.193651 
L 164.137573 113.708502 
L 161.690801 113.708502 
z
" style="fill:#0000ff;"/>
   </g>
   <g id="patch_59">
    <path clip-path="url(#pc6925801c4)" d="M 163.729778 53.193651 
L 166.17655 53.193651 
L 166.17655 84.566627 
L 163.729778 84.566627 
z
" style="fill:#0000ff;"/>
   </g>
   <g id="patch_60">
    <path clip-path="url(#pc6925801c4)" d="M 165.768755 53.193651 
L 168.215527 53.193651 
L 168.215527 75.743824 
L 165.768755 75.743824 
z
" style="fill:#0000ff;"/>
   </g>
   <g id="patch_61">
    <path clip-path="url(#pc6925801c4)" d="M 167.807732 53.193651 
L 170.254504 53.193651 
L 170.254504 89.191924 
L 167.807732 89.191924 
z
" style="fill:#0000ff;"/>
   </g>
   <g id="patch_62">
    <path clip-path="url(#pc6925801c4)" d="M 169.846709 53.193651 
L 172.293481 53.193651 
L 172.293481 39.652345 
L 169.846709 39.652345 
z
" style="fill:#ff0000;"/>
   </g>
   <g id="patch_63">
    <path clip-path="url(#pc6925801c4)" d="M 171.885686 53.193651 
L 174.332458 53.193651 
L 174.332458 40.642774 
L 171.885686 40.642774 
z
" style="fill:#ff0000;"/>
   </g>
   <g id="patch_64">
    <path clip-path="url(#pc6925801c4)" d="M 173.924662 53.193651 
L 176.371435 53.193651 
L 176.371435 34.772727 
L 173.924662 34.772727 
z
" style="fill:#ff0000;"/>
   </g>
   <g id="patch_65">
    <path clip-path="url(#pc6925801c4)" d="M 175.963639 53.193651 
L 178.410411 53.193651 
L 178.410411 51.028076 
L 175.963639 51.028076 
z
" style="fill:#ff0000;"/>
   </g>
   <g id="patch_66">
    <path clip-path="url(#pc6925801c4)" d="M 178.002616 53.193651 
L 180.449388 53.193651 
L 180.449388 56.425417 
L 178.002616 56.425417 
z
" style="fill:#0000ff;"/>
   </g>
   <g id="patch_67">
    <path clip-path="url(#pc6925801c4)" d="M 180.041593 53.193651 
L 182.488365 53.193651 
L 182.488365 51.572933 
L 180.041593 51.572933 
z
" style="fill:#ff0000;"/>
   </g>
   <g id="patch_68">
    <path clip-path="url(#pc6925801c4)" d="M 182.08057 53.193651 
L 184.527342 53.193651 
L 184.527342 49.212412 
L 182.08057 49.212412 
z
" style="fill:#ff0000;"/>
   </g>
   <g id="patch_69">
    <path clip-path="url(#pc6925801c4)" d="M 184.119547 53.193651 
L 186.566319 53.193651 
L 186.566319 43.416005 
L 184.119547 43.416005 
z
" style="fill:#ff0000;"/>
   </g>
   <g id="patch_70">
    <path clip-path="url(#pc6925801c4)" d="M 186.158524 53.193651 
L 188.605296 53.193651 
L 188.605296 67.630454 
L 186.158524 67.630454 
z
" style="fill:#0000ff;"/>
   </g>
   <g id="patch_71">
    <path clip-path="url(#pc6925801c4)" d="M 188.1975 53.193651 
L 190.644273 53.193651 
L 190.644273 56.518502 
L 188.1975 56.518502 
z
" style="fill:#0000ff;"/>
   </g>
   <g id="patch_72">
    <path clip-path="url(#pc6925801c4)" d="M 190.236477 53.193651 
L 192.683249 53.193651 
L 192.683249 50.901154 
L 190.236477 50.901154 
z
" style="fill:#ff0000;"/>
   </g>
   <g id="patch_73">
    <path clip-path="url(#pc6925801c4)" d="M 192.275454 53.193651 
L 194.722226 53.193651 
L 194.722226 54.990856 
L 192.275454 54.990856 
z
" style="fill:#0000ff;"/>
   </g>
   <g id="patch_74">
    <path clip-path="url(#pc6925801c4)" d="M 194.314431 53.193651 
L 196.761203 53.193651 
L 196.761203 54.156822 
L 194.314431 54.156822 
z
" style="fill:#0000ff;"/>
   </g>
   <g id="patch_75">
    <path clip-path="url(#pc6925801c4)" d="M 196.353408 53.193651 
L 198.80018 53.193651 
L 198.80018 48.380407 
L 196.353408 48.380407 
z
" style="fill:#ff0000;"/>
   </g>
   <g id="patch_76">
    <path clip-path="url(#pc6925801c4)" d="M 198.392385 53.193651 
L 200.839157 53.193651 
L 200.839157 61.726091 
L 198.392385 61.726091 
z
" style="fill:#0000ff;"/>
   </g>
   <g id="patch_77">
    <path clip-path="url(#pc6925801c4)" d="M 200.431362 53.193651 
L 202.878134 53.193651 
L 202.878134 60.835954 
L 200.431362 60.835954 
z
" style="fill:#0000ff;"/>
   </g>
   <g id="patch_78">
    <path clip-path="url(#pc6925801c4)" d="M 202.470338 53.193651 
L 204.917111 53.193651 
L 204.917111 83.039064 
L 202.470338 83.039064 
z
" style="fill:#0000ff;"/>
   </g>
   <g id="patch_79">
    <path clip-path="url(#pc6925801c4)" d="M 204.509315 53.193651 
L 206.956087 53.193651 
L 206.956087 94.615962 
L 204.509315 94.615962 
z
" style="fill:#0000ff;"/>
   </g>
   <g id="patch_80">
    <path clip-path="url(#pc6925801c4)" d="M 206.548292 53.193651 
L 208.995064 53.193651 
L 208.995064 93.431571 
L 206.548292 93.431571 
z
" style="fill:#0000ff;"/>
   </g>
   <g id="patch_81">
    <path clip-path="url(#pc6925801c4)" d="M 208.587269 53.193651 
L 211.034041 53.193651 
L 211.034041 81.891947 
L 208.587269 81.891947 
z
" style="fill:#0000ff;"/>
   </g>
   <g id="patch_82">
    <path clip-path="url(#pc6925801c4)" d="M 210.626246 53.193651 
L 213.073018 53.193651 
L 213.073018 93.095356 
L 210.626246 93.095356 
z
" style="fill:#0000ff;"/>
   </g>
   <g id="patch_83">
    <path clip-path="url(#pc6925801c4)" d="M 212.665223 53.193651 
L 215.111995 53.193651 
L 215.111995 87.98819 
L 212.665223 87.98819 
z
" style="fill:#0000ff;"/>
   </g>
   <g id="patch_84">
    <path clip-path="url(#pc6925801c4)" d="M 214.7042 53.193651 
L 217.150972 53.193651 
L 217.150972 66.456752 
L 214.7042 66.456752 
z
" style="fill:#0000ff;"/>
   </g>
   <g id="patch_85">
    <path clip-path="url(#pc6925801c4)" d="M 216.743176 53.193651 
L 219.189949 53.193651 
L 219.189949 48.198692 
L 216.743176 48.198692 
z
" style="fill:#ff0000;"/>
   </g>
   <g id="patch_86">
    <path clip-path="url(#pc6925801c4)" d="M 218.782153 53.193651 
L 221.228925 53.193651 
L 221.228925 59.967463 
L 218.782153 59.967463 
z
" style="fill:#0000ff;"/>
   </g>
   <g id="patch_87">
    <path clip-path="url(#pc6925801c4)" d="M 220.82113 53.193651 
L 223.267902 53.193651 
L 223.267902 71.006006 
L 220.82113 71.006006 
z
" style="fill:#0000ff;"/>
   </g>
   <g id="patch_88">
    <path clip-path="url(#pc6925801c4)" d="M 222.860107 53.193651 
L 225.306879 53.193651 
L 225.306879 51.422832 
L 222.860107 51.422832 
z
" style="fill:#ff0000;"/>
   </g>
   <g id="patch_89">
    <path clip-path="url(#pc6925801c4)" d="M 224.899084 53.193651 
L 227.345856 53.193651 
L 227.345856 61.816759 
L 224.899084 61.816759 
z
" style="fill:#0000ff;"/>
   </g>
   <g id="patch_90">
    <path clip-path="url(#pc6925801c4)" d="M 226.938061 53.193651 
L 229.384833 53.193651 
L 229.384833 71.640795 
L 226.938061 71.640795 
z
" style="fill:#0000ff;"/>
   </g>
   <g id="patch_91">
    <path clip-path="url(#pc6925801c4)" d="M 228.977038 53.193651 
L 231.42381 53.193651 
L 231.42381 72.828774 
L 228.977038 72.828774 
z
" style="fill:#0000ff;"/>
   </g>
   <g id="patch_92">
    <path clip-path="url(#pc6925801c4)" d="M 231.016014 53.193651 
L 233.462787 53.193651 
L 233.462787 58.798765 
L 231.016014 58.798765 
z
" style="fill:#0000ff;"/>
   </g>
   <g id="patch_93">
    <path clip-path="url(#pc6925801c4)" d="M 233.054991 53.193651 
L 235.501763 53.193651 
L 235.501763 48.118082 
L 233.054991 48.118082 
z
" style="fill:#ff0000;"/>
   </g>
   <g id="patch_94">
    <path clip-path="url(#pc6925801c4)" d="M 235.093968 53.193651 
L 237.54074 53.193651 
L 237.54074 89.29986 
L 235.093968 89.29986 
z
" style="fill:#0000ff;"/>
   </g>
   <g id="patch_95">
    <path clip-path="url(#pc6925801c4)" d="M 237.132945 53.193651 
L 239.579717 53.193651 
L 239.579717 53.602345 
L 237.132945 53.602345 
z
" style="fill:#0000ff;"/>
   </g>
   <g id="patch_96">
    <path clip-path="url(#pc6925801c4)" d="M 239.171922 53.193651 
L 241.618694 53.193651 
L 241.618694 53.468889 
L 239.171922 53.468889 
z
" style="fill:#0000ff;"/>
   </g>
   <g id="patch_97">
    <path clip-path="url(#pc6925801c4)" d="M 241.210899 53.193651 
L 243.657671 53.193651 
L 243.657671 58.121997 
L 241.210899 58.121997 
z
" style="fill:#0000ff;"/>
   </g>
   <g id="patch_98">
    <path clip-path="url(#pc6925801c4)" d="M 243.249876 53.193651 
L 245.696648 53.193651 
L 245.696648 59.248664 
L 243.249876 59.248664 
z
" style="fill:#0000ff;"/>
   </g>
   <g id="patch_99">
    <path clip-path="url(#pc6925801c4)" d="M 245.288852 53.193651 
L 247.735625 53.193651 
L 247.735625 67.63381 
L 245.288852 67.63381 
z
" style="fill:#0000ff;"/>
   </g>
   <g id="patch_100">
    <path clip-path="url(#pc6925801c4)" d="M 247.327829 53.193651 
L 249.774601 53.193651 
L 249.774601 48.92822 
L 247.327829 48.92822 
z
" style="fill:#ff0000;"/>
   </g>
   <g id="patch_101">
    <path clip-path="url(#pc6925801c4)" d="M 249.366806 53.193651 
L 251.813578 53.193651 
L 251.813578 90.359006 
L 249.366806 90.359006 
z
" style="fill:#0000ff;"/>
   </g>
   <g id="patch_102">
    <path clip-path="url(#pc6925801c4)" d="M 251.405783 53.193651 
L 253.852555 53.193651 
L 253.852555 66.359853 
L 251.405783 66.359853 
z
" style="fill:#0000ff;"/>
   </g>
   <g id="patch_103">
    <path clip-path="url(#pc6925801c4)" d="M 253.44476 53.193651 
L 255.891532 53.193651 
L 255.891532 68.907703 
L 253.44476 68.907703 
z
" style="fill:#0000ff;"/>
   </g>
   <g id="patch_104">
    <path clip-path="url(#pc6925801c4)" d="M 255.483737 53.193651 
L 257.930509 53.193651 
L 257.930509 59.779766 
L 255.483737 59.779766 
z
" style="fill:#0000ff;"/>
   </g>
   <g id="patch_105">
    <path clip-path="url(#pc6925801c4)" d="M 257.522714 53.193651 
L 259.969486 53.193651 
L 259.969486 61.646775 
L 257.522714 61.646775 
z
" style="fill:#0000ff;"/>
   </g>
   <g id="patch_106">
    <path clip-path="url(#pc6925801c4)" d="M 259.56169 53.193651 
L 262.008463 53.193651 
L 262.008463 54.023072 
L 259.56169 54.023072 
z
" style="fill:#0000ff;"/>
   </g>
   <g id="patch_107">
    <path clip-path="url(#pc6925801c4)" d="M 261.600667 53.193651 
L 264.047439 53.193651 
L 264.047439 55.241109 
L 261.600667 55.241109 
z
" style="fill:#0000ff;"/>
   </g>
   <g id="patch_108">
    <path clip-path="url(#pc6925801c4)" d="M 263.639644 53.193651 
L 266.086416 53.193651 
L 266.086416 52.832651 
L 263.639644 52.832651 
z
" style="fill:#ff0000;"/>
   </g>
   <g id="patch_109">
    <path clip-path="url(#pc6925801c4)" d="M 265.678621 53.193651 
L 268.125393 53.193651 
L 268.125393 54.160348 
L 265.678621 54.160348 
z
" style="fill:#0000ff;"/>
   </g>
   <g id="patch_110">
    <path clip-path="url(#pc6925801c4)" d="M 267.717598 53.193651 
L 270.16437 53.193651 
L 270.16437 72.004216 
L 267.717598 72.004216 
z
" style="fill:#0000ff;"/>
   </g>
   <g id="patch_111">
    <path clip-path="url(#pc6925801c4)" d="M 269.756575 53.193651 
L 272.203347 53.193651 
L 272.203347 67.297338 
L 269.756575 67.297338 
z
" style="fill:#0000ff;"/>
   </g>
   <g id="patch_112">
    <path clip-path="url(#pc6925801c4)" d="M 271.795552 53.193651 
L 274.242324 53.193651 
L 274.242324 93.984344 
L 271.795552 93.984344 
z
" style="fill:#0000ff;"/>
   </g>
   <g id="patch_113">
    <path clip-path="url(#pc6925801c4)" d="M 273.834528 53.193651 
L 276.281301 53.193651 
L 276.281301 107.408036 
L 273.834528 107.408036 
z
" style="fill:#0000ff;"/>
   </g>
   <g id="patch_114">
    <path clip-path="url(#pc6925801c4)" d="M 275.873505 53.193651 
L 278.320277 53.193651 
L 278.320277 98.491488 
L 275.873505 98.491488 
z
" style="fill:#0000ff;"/>
   </g>
   <g id="patch_115">
    <path clip-path="url(#pc6925801c4)" d="M 277.912482 53.193651 
L 280.359254 53.193651 
L 280.359254 108.699704 
L 277.912482 108.699704 
z
" style="fill:#0000ff;"/>
   </g>
   <g id="patch_116">
    <path clip-path="url(#pc6925801c4)" d="M 279.951459 53.193651 
L 282.398231 53.193651 
L 282.398231 79.5571 
L 279.951459 79.5571 
z
" style="fill:#0000ff;"/>
   </g>
   <g id="patch_117">
    <path clip-path="url(#pc6925801c4)" d="M 281.990436 53.193651 
L 284.437208 53.193651 
L 284.437208 75.27478 
L 281.990436 75.27478 
z
" style="fill:#0000ff;"/>
   </g>
   <g id="patch_118">
    <path clip-path="url(#pc6925801c4)" d="M 284.029413 53.193651 
L 286.476185 53.193651 
L 286.476185 44.968915 
L 284.029413 44.968915 
z
" style="fill:#ff0000;"/>
   </g>
   <g id="patch_119">
    <path clip-path="url(#pc6925801c4)" d="M 286.06839 53.193651 
L 288.515162 53.193651 
L 288.515162 58.256217 
L 286.06839 58.256217 
z
" style="fill:#0000ff;"/>
   </g>
   <g id="patch_120">
    <path clip-path="url(#pc6925801c4)" d="M 288.107366 53.193651 
L 290.554139 53.193651 
L 290.554139 95.029866 
L 288.107366 95.029866 
z
" style="fill:#0000ff;"/>
   </g>
   <g id="patch_121">
    <path clip-path="url(#pc6925801c4)" d="M 290.146343 53.193651 
L 292.593115 53.193651 
L 292.593115 37.630877 
L 290.146343 37.630877 
z
" style="fill:#ff0000;"/>
   </g>
   <g id="patch_122">
    <path clip-path="url(#pc6925801c4)" d="M 292.18532 53.193651 
L 294.632092 53.193651 
L 294.632092 54.558031 
L 292.18532 54.558031 
z
" style="fill:#0000ff;"/>
   </g>
   <g id="patch_123">
    <path clip-path="url(#pc6925801c4)" d="M 294.224297 53.193651 
L 296.671069 53.193651 
L 296.671069 53.828892 
L 294.224297 53.828892 
z
" style="fill:#0000ff;"/>
   </g>
   <g id="patch_124">
    <path clip-path="url(#pc6925801c4)" d="M 296.263274 53.193651 
L 298.710046 53.193651 
L 298.710046 49.386202 
L 296.263274 49.386202 
z
" style="fill:#ff0000;"/>
   </g>
   <g id="patch_125">
    <path clip-path="url(#pc6925801c4)" d="M 298.302251 53.193651 
L 300.749023 53.193651 
L 300.749023 55.834743 
L 298.302251 55.834743 
z
" style="fill:#0000ff;"/>
   </g>
   <g id="patch_126">
    <path clip-path="url(#pc6925801c4)" d="M 300.341228 53.193651 
L 302.788 53.193651 
L 302.788 53.251993 
L 300.341228 53.251993 
z
" style="fill:#0000ff;"/>
   </g>
   <g id="patch_127">
    <path clip-path="url(#pc6925801c4)" d="M 302.380204 53.193651 
L 304.826977 53.193651 
L 304.826977 56.305486 
L 302.380204 56.305486 
z
" style="fill:#0000ff;"/>
   </g>
   <g id="patch_128">
    <path clip-path="url(#pc6925801c4)" d="M 304.419181 53.193651 
L 306.865953 53.193651 
L 306.865953 55.753898 
L 304.419181 55.753898 
z
" style="fill:#0000ff;"/>
   </g>
   <g id="patch_129">
    <path clip-path="url(#pc6925801c4)" d="M 306.458158 53.193651 
L 308.90493 53.193651 
L 308.90493 51.481422 
L 306.458158 51.481422 
z
" style="fill:#ff0000;"/>
   </g>
   <g id="patch_130">
    <path clip-path="url(#pc6925801c4)" d="M 308.497135 53.193651 
L 310.943907 53.193651 
L 310.943907 57.106526 
L 308.497135 57.106526 
z
" style="fill:#0000ff;"/>
   </g>
   <g id="patch_131">
    <path clip-path="url(#pc6925801c4)" d="M 310.536112 53.193651 
L 312.982884 53.193651 
L 312.982884 62.901822 
L 310.536112 62.901822 
z
" style="fill:#0000ff;"/>
   </g>
   <g id="patch_132">
    <path clip-path="url(#pc6925801c4)" d="M 312.575089 53.193651 
L 315.021861 53.193651 
L 315.021861 58.787463 
L 312.575089 58.787463 
z
" style="fill:#0000ff;"/>
   </g>
   <g id="patch_133">
    <path clip-path="url(#pc6925801c4)" d="M 314.614066 53.193651 
L 317.060838 53.193651 
L 317.060838 63.815567 
L 314.614066 63.815567 
z
" style="fill:#0000ff;"/>
   </g>
   <g id="patch_134">
    <path clip-path="url(#pc6925801c4)" d="M 316.653042 53.193651 
L 319.099815 53.193651 
L 319.099815 65.511879 
L 316.653042 65.511879 
z
" style="fill:#0000ff;"/>
   </g>
   <g id="patch_135">
    <path clip-path="url(#pc6925801c4)" d="M 318.692019 53.193651 
L 321.138791 53.193651 
L 321.138791 77.852506 
L 318.692019 77.852506 
z
" style="fill:#0000ff;"/>
   </g>
   <g id="patch_136">
    <path clip-path="url(#pc6925801c4)" d="M 320.730996 53.193651 
L 323.177768 53.193651 
L 323.177768 60.449569 
L 320.730996 60.449569 
z
" style="fill:#0000ff;"/>
   </g>
   <g id="patch_137">
    <path clip-path="url(#pc6925801c4)" d="M 322.769973 53.193651 
L 325.216745 53.193651 
L 325.216745 55.321137 
L 322.769973 55.321137 
z
" style="fill:#0000ff;"/>
   </g>
   <g id="patch_138">
    <path clip-path="url(#pc6925801c4)" d="M 324.80895 53.193651 
L 327.255722 53.193651 
L 327.255722 61.594216 
L 324.80895 61.594216 
z
" style="fill:#0000ff;"/>
   </g>
   <g id="patch_139">
    <path clip-path="url(#pc6925801c4)" d="M 326.847927 53.193651 
L 329.294699 53.193651 
L 329.294699 78.216832 
L 326.847927 78.216832 
z
" style="fill:#0000ff;"/>
   </g>
   <g id="patch_140">
    <path clip-path="url(#pc6925801c4)" d="M 328.886904 53.193651 
L 331.333676 53.193651 
L 331.333676 73.568616 
L 328.886904 73.568616 
z
" style="fill:#0000ff;"/>
   </g>
   <g id="patch_141">
    <path clip-path="url(#pc6925801c4)" d="M 330.92588 53.193651 
L 333.372653 53.193651 
L 333.372653 64.913902 
L 330.92588 64.913902 
z
" style="fill:#0000ff;"/>
   </g>
   <g id="patch_142">
    <path clip-path="url(#pc6925801c4)" d="M 332.964857 53.193651 
L 335.411629 53.193651 
L 335.411629 92.552665 
L 332.964857 92.552665 
z
" style="fill:#0000ff;"/>
   </g>
   <g id="patch_143">
    <path clip-path="url(#pc6925801c4)" d="M 335.003834 53.193651 
L 337.450606 53.193651 
L 337.450606 75.087276 
L 335.003834 75.087276 
z
" style="fill:#0000ff;"/>
   </g>
   <g id="patch_144">
    <path clip-path="url(#pc6925801c4)" d="M 337.042811 53.193651 
L 339.489583 53.193651 
L 339.489583 80.764772 
L 337.042811 80.764772 
z
" style="fill:#0000ff;"/>
   </g>
   <g id="patch_145">
    <path clip-path="url(#pc6925801c4)" d="M 339.081788 53.193651 
L 341.52856 53.193651 
L 341.52856 78.947232 
L 339.081788 78.947232 
z
" style="fill:#0000ff;"/>
   </g>
   <g id="patch_146">
    <path clip-path="url(#pc6925801c4)" d="M 341.120765 53.193651 
L 343.567537 53.193651 
L 343.567537 56.525579 
L 341.120765 56.525579 
z
" style="fill:#0000ff;"/>
   </g>
   <g id="patch_147">
    <path clip-path="url(#pc6925801c4)" d="M 343.159742 53.193651 
L 345.606514 53.193651 
L 345.606514 88.044615 
L 343.159742 88.044615 
z
" style="fill:#0000ff;"/>
   </g>
   <g id="patch_148">
    <path clip-path="url(#pc6925801c4)" d="M 345.198718 53.193651 
L 347.645491 53.193651 
L 347.645491 39.669156 
L 345.198718 39.669156 
z
" style="fill:#ff0000;"/>
   </g>
   <g id="patch_149">
    <path clip-path="url(#pc6925801c4)" d="M 347.237695 53.193651 
L 349.684467 53.193651 
L 349.684467 51.032224 
L 347.237695 51.032224 
z
" style="fill:#ff0000;"/>
   </g>
   <g id="patch_150">
    <path clip-path="url(#pc6925801c4)" d="M 349.276672 53.193651 
L 351.723444 53.193651 
L 351.723444 39.392184 
L 349.276672 39.392184 
z
" style="fill:#ff0000;"/>
   </g>
   <g id="patch_151">
    <path clip-path="url(#pc6925801c4)" d="M 351.315649 53.193651 
L 353.762421 53.193651 
L 353.762421 56.60809 
L 351.315649 56.60809 
z
" style="fill:#0000ff;"/>
   </g>
   <g id="patch_152">
    <path clip-path="url(#pc6925801c4)" d="M 353.354626 53.193651 
L 355.801398 53.193651 
L 355.801398 56.526638 
L 353.354626 56.526638 
z
" style="fill:#0000ff;"/>
   </g>
   <g id="patch_153">
    <path clip-path="url(#pc6925801c4)" d="M 355.393603 53.193651 
L 357.840375 53.193651 
L 357.840375 53.187588 
L 355.393603 53.187588 
z
" style="fill:#ff0000;"/>
   </g>
   <g id="patch_154">
    <path clip-path="url(#pc6925801c4)" d="M 357.43258 53.193651 
L 359.879352 53.193651 
L 359.879352 54.122207 
L 357.43258 54.122207 
z
" style="fill:#0000ff;"/>
   </g>
   <g id="patch_155">
    <path clip-path="url(#pc6925801c4)" d="M 359.471556 53.193651 
L 361.918329 53.193651 
L 361.918329 64.699689 
L 359.471556 64.699689 
z
" style="fill:#0000ff;"/>
   </g>
   <g id="patch_156">
    <path clip-path="url(#pc6925801c4)" d="M 361.510533 53.193651 
L 363.957305 53.193651 
L 363.957305 78.756846 
L 361.510533 78.756846 
z
" style="fill:#0000ff;"/>
   </g>
   <g id="patch_157">
    <path clip-path="url(#pc6925801c4)" d="M 363.54951 53.193651 
L 365.996282 53.193651 
L 365.996282 85.094365 
L 363.54951 85.094365 
z
" style="fill:#0000ff;"/>
   </g>
   <g id="patch_158">
    <path clip-path="url(#pc6925801c4)" d="M 365.588487 53.193651 
L 368.035259 53.193651 
L 368.035259 44.538098 
L 365.588487 44.538098 
z
" style="fill:#ff0000;"/>
   </g>
   <g id="patch_159">
    <path clip-path="url(#pc6925801c4)" d="M 367.627464 53.193651 
L 370.074236 53.193651 
L 370.074236 54.930932 
L 367.627464 54.930932 
z
" style="fill:#0000ff;"/>
   </g>
   <g id="patch_160">
    <path clip-path="url(#pc6925801c4)" d="M 369.666441 53.193651 
L 372.113213 53.193651 
L 372.113213 98.001659 
L 369.666441 98.001659 
z
" style="fill:#0000ff;"/>
   </g>
   <g id="patch_161">
    <path clip-path="url(#pc6925801c4)" d="M 371.705418 53.193651 
L 374.15219 53.193651 
L 374.15219 77.749437 
L 371.705418 77.749437 
z
" style="fill:#0000ff;"/>
   </g>
   <g id="patch_162">
    <path clip-path="url(#pc6925801c4)" d="M 373.744394 53.193651 
L 376.191167 53.193651 
L 376.191167 57.755033 
L 373.744394 57.755033 
z
" style="fill:#0000ff;"/>
   </g>
   <g id="patch_163">
    <path clip-path="url(#pc6925801c4)" d="M 375.783371 53.193651 
L 378.230143 53.193651 
L 378.230143 55.102398 
L 375.783371 55.102398 
z
" style="fill:#0000ff;"/>
   </g>
   <g id="patch_164">
    <path clip-path="url(#pc6925801c4)" d="M 377.822348 53.193651 
L 380.26912 53.193651 
L 380.26912 76.309275 
L 377.822348 76.309275 
z
" style="fill:#0000ff;"/>
   </g>
   <g id="patch_165">
    <path clip-path="url(#pc6925801c4)" d="M 379.861325 53.193651 
L 382.308097 53.193651 
L 382.308097 52.827723 
L 379.861325 52.827723 
z
" style="fill:#ff0000;"/>
   </g>
   <g id="patch_166">
    <path clip-path="url(#pc6925801c4)" d="M 381.900302 53.193651 
L 384.347074 53.193651 
L 384.347074 59.290322 
L 381.900302 59.290322 
z
" style="fill:#0000ff;"/>
   </g>
   <g id="patch_167">
    <path clip-path="url(#pc6925801c4)" d="M 383.939279 53.193651 
L 386.386051 53.193651 
L 386.386051 47.683639 
L 383.939279 47.683639 
z
" style="fill:#ff0000;"/>
   </g>
   <g id="patch_168">
    <path d="M 50.566563 135 
L 50.566563 30 
" style="fill:none;stroke:#000000;stroke-linecap:square;stroke-linejoin:miter;stroke-width:0.8;"/>
   </g>
   <g id="patch_169">
    <path d="M 385.366562 135 
L 385.366562 30 
" style="fill:none;stroke:#000000;stroke-linecap:square;stroke-linejoin:miter;stroke-width:0.8;"/>
   </g>
   <g id="patch_170">
    <path d="M 50.566563 135 
L 385.366562 135 
" style="fill:none;stroke:#000000;stroke-linecap:square;stroke-linejoin:miter;stroke-width:0.8;"/>
   </g>
   <g id="patch_171">
    <path d="M 50.566563 30 
L 385.366562 30 
" style="fill:none;stroke:#000000;stroke-linecap:square;stroke-linejoin:miter;stroke-width:0.8;"/>
   </g>
  </g>
  <g id="axes_2">
   <g id="patch_172">
    <path clip-path="url(#p81ae70fd2e)" d="M 50.769103 18.866667 
L 66.97237 18.866667 
L 66.97237 16.533333 
L 50.769103 16.533333 
z
"/>
   </g>
   <g id="patch_173">
    <path clip-path="url(#p81ae70fd2e)" d="M 66.97237 17.7 
L 60.896145 27.033333 
L 60.896145 22.366667 
L 50.769103 22.366667 
L 50.769103 13.033333 
L 60.896145 13.033333 
L 60.896145 8.366667 
z
" style="fill:#90ee90;stroke:#000000;stroke-linejoin:miter;"/>
   </g>
   <g id="patch_174">
    <path clip-path="url(#p81ae70fd2e)" d="M 66.97237 18.866667 
L 79.12482 18.866667 
L 79.12482 16.533333 
L 66.97237 16.533333 
z
"/>
   </g>
   <g id="patch_175">
    <path clip-path="url(#p81ae70fd2e)" d="M 79.12482 22.833333 
L 99.378904 22.833333 
L 99.378904 12.566667 
L 79.12482 12.566667 
z
" style="fill:#e6e6fa;stroke:#000000;stroke-linejoin:miter;"/>
   </g>
   <g id="patch_176">
    <path clip-path="url(#p81ae70fd2e)" d="M 99.378904 18.866667 
L 121.658396 18.866667 
L 121.658396 16.533333 
L 99.378904 16.533333 
z
"/>
   </g>
   <g id="patch_177">
    <path clip-path="url(#p81ae70fd2e)" d="M 121.658396 18.866667 
L 141.912479 18.866667 
L 141.912479 16.533333 
L 121.658396 16.533333 
z
"/>
   </g>
   <g id="patch_178">
    <path clip-path="url(#p81ae70fd2e)" d="M 141.912479 17.7 
L 135.836254 27.033333 
L 135.836254 22.366667 
L 121.658396 22.366667 
L 121.658396 13.033333 
L 135.836254 13.033333 
L 135.836254 8.366667 
z
" style="fill:#90ee90;stroke:#000000;stroke-linejoin:miter;"/>
   </g>
   <g id="patch_179">
    <path clip-path="url(#p81ae70fd2e)" d="M 141.912479 18.866667 
L 145.963296 18.866667 
L 145.963296 16.533333 
L 141.912479 16.533333 
z
"/>
   </g>
   <g id="patch_180">
    <path clip-path="url(#p81ae70fd2e)" d="M 145.963296 18.866667 
L 166.217379 18.866667 
L 166.217379 16.533333 
L 145.963296 16.533333 
z
"/>
   </g>
   <g id="patch_181">
    <path clip-path="url(#p81ae70fd2e)" d="M 166.217379 17.7 
L 160.141154 27.033333 
L 160.141154 22.366667 
L 145.963296 22.366667 
L 145.963296 13.033333 
L 160.141154 13.033333 
L 160.141154 8.366667 
z
" style="fill:#90ee90;stroke:#000000;stroke-linejoin:miter;"/>
   </g>
   <g id="patch_182">
    <path clip-path="url(#p81ae70fd2e)" d="M 166.217379 18.866667 
L 178.369829 18.866667 
L 178.369829 16.533333 
L 166.217379 16.533333 
z
"/>
   </g>
   <g id="patch_183">
    <path clip-path="url(#p81ae70fd2e)" d="M 178.369829 22.833333 
L 198.623913 22.833333 
L 198.623913 12.566667 
L 178.369829 12.566667 
z
" style="fill:#e6e6fa;stroke:#000000;stroke-linejoin:miter;"/>
   </g>
   <g id="patch_184">
    <path clip-path="url(#p81ae70fd2e)" d="M 198.623913 18.866667 
L 202.674729 18.866667 
L 202.674729 16.533333 
L 198.623913 16.533333 
z
"/>
   </g>
   <g id="patch_185">
    <path clip-path="url(#p81ae70fd2e)" d="M 202.674729 18.866667 
L 216.852588 18.866667 
L 216.852588 16.533333 
L 202.674729 16.533333 
z
"/>
   </g>
   <g id="patch_186">
    <path clip-path="url(#p81ae70fd2e)" d="M 216.852588 17.7 
L 210.776363 27.033333 
L 210.776363 22.366667 
L 202.674729 22.366667 
L 202.674729 13.033333 
L 210.776363 13.033333 
L 210.776363 8.366667 
z
" style="fill:#90ee90;stroke:#000000;stroke-linejoin:miter;"/>
   </g>
   <g id="patch_187">
    <path clip-path="url(#p81ae70fd2e)" d="M 216.852588 18.866667 
L 222.928813 18.866667 
L 222.928813 16.533333 
L 216.852588 16.533333 
z
"/>
   </g>
   <g id="patch_188">
    <path clip-path="url(#p81ae70fd2e)" d="M 222.928813 22.833333 
L 257.360755 22.833333 
L 257.360755 12.566667 
L 222.928813 12.566667 
z
" style="fill:#e6e6fa;stroke:#000000;stroke-linejoin:miter;"/>
   </g>
   <g id="patch_189">
    <path clip-path="url(#p81ae70fd2e)" d="M 257.360755 18.866667 
L 271.538613 18.866667 
L 271.538613 16.533333 
L 257.360755 16.533333 
z
"/>
   </g>
   <g id="patch_190">
    <path clip-path="url(#p81ae70fd2e)" d="M 271.538613 18.866667 
L 283.691063 18.866667 
L 283.691063 16.533333 
L 271.538613 16.533333 
z
"/>
   </g>
   <g id="patch_191">
    <path clip-path="url(#p81ae70fd2e)" d="M 283.691063 17.7 
L 277.614838 27.033333 
L 277.614838 22.366667 
L 271.538613 22.366667 
L 271.538613 13.033333 
L 277.614838 13.033333 
L 277.614838 8.366667 
z
" style="fill:#90ee90;stroke:#000000;stroke-linejoin:miter;"/>
   </g>
   <g id="patch_192">
    <path clip-path="url(#p81ae70fd2e)" d="M 283.691063 18.866667 
L 303.945147 18.866667 
L 303.945147 16.533333 
L 283.691063 16.533333 
z
"/>
   </g>
   <g id="patch_193">
    <path clip-path="url(#p81ae70fd2e)" d="M 303.945147 22.833333 
L 326.224639 22.833333 
L 326.224639 12.566667 
L 303.945147 12.566667 
z
" style="fill:#e6e6fa;stroke:#000000;stroke-linejoin:miter;"/>
   </g>
   <g id="patch_194">
    <path clip-path="url(#p81ae70fd2e)" d="M 326.224639 18.866667 
L 332.300864 18.866667 
L 332.300864 16.533333 
L 326.224639 16.533333 
z
"/>
   </g>
   <g id="patch_195">
    <path clip-path="url(#p81ae70fd2e)" d="M 332.300864 18.866667 
L 338.377089 18.866667 
L 338.377089 16.533333 
L 332.300864 16.533333 
z
"/>
   </g>
   <g id="patch_196">
    <path clip-path="url(#p81ae70fd2e)" d="M 338.377089 17.7 
L 332.300864 27.033333 
L 332.300864 22.366667 
L 332.300864 22.366667 
L 332.300864 13.033333 
L 332.300864 13.033333 
L 332.300864 8.366667 
z
" style="fill:#90ee90;stroke:#000000;stroke-linejoin:miter;"/>
   </g>
   <g id="patch_197">
    <path clip-path="url(#p81ae70fd2e)" d="M 338.377089 18.866667 
L 354.580356 18.866667 
L 354.580356 16.533333 
L 338.377089 16.533333 
z
"/>
   </g>
   <g id="patch_198">
    <path clip-path="url(#p81ae70fd2e)" d="M 354.580356 22.833333 
L 384.961481 22.833333 
L 384.961481 12.566667 
L 354.580356 12.566667 
z
" style="fill:#e6e6fa;stroke:#000000;stroke-linejoin:miter;"/>
   </g>
  </g>
 </g>
 <defs>
  <clipPath id="pc6925801c4">
   <rect height="105" width="334.8" x="50.566563" y="30"/>
  </clipPath>
  <clipPath id="p81ae70fd2e">
   <rect height="21" width="334.8" x="50.566563" y="7.2"/>
  </clipPath>
 </defs>
</svg>
