<?xml version="1.0" encoding="utf-8" standalone="no"?>
<!DOCTYPE svg PUBLIC "-//W3C//DTD SVG 1.1//EN"
  "http://www.w3.org/Graphics/SVG/1.1/DTD/svg11.dtd">
<svg height="181.589844pt" version="1.1" viewBox="0 0 188.922813 181.589844" width="188.922813pt" xmlns="http://www.w3.org/2000/svg" xmlns:xlink="http://www.w3.org/1999/xlink">
 <metadata>
  <rdf:RDF xmlns:cc="http://creativecommons.org/ns#" xmlns:dc="http://purl.org/dc/elements/1.1/" xmlns:rdf="http://www.w3.org/1999/02/22-rdf-syntax-ns#">
   <cc:Work>
    <dc:type rdf:resource="http://purl.org/dc/dcmitype/StillImage"/>
    <dc:date>2021-10-17T19:09:36.843007</dc:date>
    <dc:format>image/svg+xml</dc:format>
    <dc:creator>
     <cc:Agent>
      <dc:title>Matplotlib v3.4.3, https://matplotlib.org/</dc:title>
     </cc:Agent>
    </dc:creator>
   </cc:Work>
  </rdf:RDF>
 </metadata>
 <defs>
  <style type="text/css">*{stroke-linecap:butt;stroke-linejoin:round;}</style>
 </defs>
 <g id="figure_1">
  <g id="patch_1">
   <path d="M 0 181.589844 
L 188.922813 181.589844 
L 188.922813 0 
L 0 0 
z
" style="fill:none;"/>
  </g>
  <g id="axes_1">
   <g id="patch_2">
    <path d="M 35.967813 145.8 
L 175.467813 145.8 
L 175.467813 7.2 
L 35.967813 7.2 
z
" style="fill:none;"/>
   </g>
   <g id="matplotlib.axis_1">
    <g id="xtick_1">
     <g id="line2d_1">
      <defs>
       <path d="M 0 0 
L 0 3.5 
" id="m5cda10c4c0" style="stroke:#000000;stroke-width:0.8;"/>
      </defs>
      <g>
       <use style="stroke:#000000;stroke-width:0.8;" x="35.967813" xlink:href="#m5cda10c4c0" y="145.8"/>
      </g>
     </g>
     <g id="text_1">
      <text style="font-family:Helvetica;font-size:9px;font-stretch:normal;font-style:normal;font-weight:normal;text-anchor:middle;" transform="rotate(-0, 35.967813, 159.256094)" x="35.967813" y="159.256094">0.0</text>
     </g>
    </g>
    <g id="xtick_2">
     <g id="line2d_2">
      <g>
       <use style="stroke:#000000;stroke-width:0.8;" x="63.867812" xlink:href="#m5cda10c4c0" y="145.8"/>
      </g>
     </g>
     <g id="text_2">
      <text style="font-family:Helvetica;font-size:9px;font-stretch:normal;font-style:normal;font-weight:normal;text-anchor:middle;" transform="rotate(-0, 63.867812, 159.256094)" x="63.867812" y="159.256094">0.2</text>
     </g>
    </g>
    <g id="xtick_3">
     <g id="line2d_3">
      <g>
       <use style="stroke:#000000;stroke-width:0.8;" x="91.767813" xlink:href="#m5cda10c4c0" y="145.8"/>
      </g>
     </g>
     <g id="text_3">
      <text style="font-family:Helvetica;font-size:9px;font-stretch:normal;font-style:normal;font-weight:normal;text-anchor:middle;" transform="rotate(-0, 91.767813, 159.256094)" x="91.767813" y="159.256094">0.4</text>
     </g>
    </g>
    <g id="xtick_4">
     <g id="line2d_4">
      <g>
       <use style="stroke:#000000;stroke-width:0.8;" x="119.667813" xlink:href="#m5cda10c4c0" y="145.8"/>
      </g>
     </g>
     <g id="text_4">
      <text style="font-family:Helvetica;font-size:9px;font-stretch:normal;font-style:normal;font-weight:normal;text-anchor:middle;" transform="rotate(-0, 119.667813, 159.256094)" x="119.667813" y="159.256094">0.6</text>
     </g>
    </g>
    <g id="xtick_5">
     <g id="line2d_5">
      <g>
       <use style="stroke:#000000;stroke-width:0.8;" x="147.567813" xlink:href="#m5cda10c4c0" y="145.8"/>
      </g>
     </g>
     <g id="text_5">
      <text style="font-family:Helvetica;font-size:9px;font-stretch:normal;font-style:normal;font-weight:normal;text-anchor:middle;" transform="rotate(-0, 147.567813, 159.256094)" x="147.567813" y="159.256094">0.8</text>
     </g>
    </g>
    <g id="xtick_6">
     <g id="line2d_6">
      <g>
       <use style="stroke:#000000;stroke-width:0.8;" x="175.467813" xlink:href="#m5cda10c4c0" y="145.8"/>
      </g>
     </g>
     <g id="text_6">
      <text style="font-family:Helvetica;font-size:9px;font-stretch:normal;font-style:normal;font-weight:normal;text-anchor:middle;" transform="rotate(-0, 175.467813, 159.256094)" x="175.467813" y="159.256094">1.0</text>
     </g>
    </g>
    <g id="text_7">
     <text style="font-family:Helvetica;font-size:10px;font-stretch:normal;font-style:normal;font-weight:normal;text-anchor:middle;" transform="rotate(-0, 105.717813, 172.305469)" x="105.717813" y="172.305469">False Positive Rate</text>
    </g>
   </g>
   <g id="matplotlib.axis_2">
    <g id="ytick_1">
     <g id="line2d_7">
      <defs>
       <path d="M 0 0 
L -3.5 0 
" id="m48055684bb" style="stroke:#000000;stroke-width:0.8;"/>
      </defs>
      <g>
       <use style="stroke:#000000;stroke-width:0.8;" x="35.967813" xlink:href="#m48055684bb" y="145.8"/>
      </g>
     </g>
     <g id="text_8">
      <text style="font-family:Helvetica;font-size:9px;font-stretch:normal;font-style:normal;font-weight:normal;text-anchor:end;" transform="rotate(-0, 28.967813, 149.028047)" x="28.967813" y="149.028047">0.0</text>
     </g>
    </g>
    <g id="ytick_2">
     <g id="line2d_8">
      <g>
       <use style="stroke:#000000;stroke-width:0.8;" x="35.967813" xlink:href="#m48055684bb" y="119.4"/>
      </g>
     </g>
     <g id="text_9">
      <text style="font-family:Helvetica;font-size:9px;font-stretch:normal;font-style:normal;font-weight:normal;text-anchor:end;" transform="rotate(-0, 28.967813, 122.628047)" x="28.967813" y="122.628047">0.2</text>
     </g>
    </g>
    <g id="ytick_3">
     <g id="line2d_9">
      <g>
       <use style="stroke:#000000;stroke-width:0.8;" x="35.967813" xlink:href="#m48055684bb" y="93"/>
      </g>
     </g>
     <g id="text_10">
      <text style="font-family:Helvetica;font-size:9px;font-stretch:normal;font-style:normal;font-weight:normal;text-anchor:end;" transform="rotate(-0, 28.967813, 96.228047)" x="28.967813" y="96.228047">0.4</text>
     </g>
    </g>
    <g id="ytick_4">
     <g id="line2d_10">
      <g>
       <use style="stroke:#000000;stroke-width:0.8;" x="35.967813" xlink:href="#m48055684bb" y="66.6"/>
      </g>
     </g>
     <g id="text_11">
      <text style="font-family:Helvetica;font-size:9px;font-stretch:normal;font-style:normal;font-weight:normal;text-anchor:end;" transform="rotate(-0, 28.967813, 69.828047)" x="28.967813" y="69.828047">0.6</text>
     </g>
    </g>
    <g id="ytick_5">
     <g id="line2d_11">
      <g>
       <use style="stroke:#000000;stroke-width:0.8;" x="35.967813" xlink:href="#m48055684bb" y="40.2"/>
      </g>
     </g>
     <g id="text_12">
      <text style="font-family:Helvetica;font-size:9px;font-stretch:normal;font-style:normal;font-weight:normal;text-anchor:end;" transform="rotate(-0, 28.967813, 43.428047)" x="28.967813" y="43.428047">0.8</text>
     </g>
    </g>
    <g id="ytick_6">
     <g id="line2d_12">
      <g>
       <use style="stroke:#000000;stroke-width:0.8;" x="35.967813" xlink:href="#m48055684bb" y="13.8"/>
      </g>
     </g>
     <g id="text_13">
      <text style="font-family:Helvetica;font-size:9px;font-stretch:normal;font-style:normal;font-weight:normal;text-anchor:end;" transform="rotate(-0, 28.967813, 17.028047)" x="28.967813" y="17.028047">1.0</text>
     </g>
    </g>
    <g id="text_14">
     <text style="font-family:Helvetica;font-size:10px;font-stretch:normal;font-style:normal;font-weight:normal;text-anchor:middle;" transform="rotate(-90, 14.373438, 76.5)" x="14.373438" y="76.5">True Positive Rate</text>
    </g>
   </g>
   <g id="line2d_13">
    <path clip-path="url(#p1af3ae77ce)" d="M 35.967813 145.8 
L 36.63923 140.06087 
L 39.428198 135.141615 
L 40.461148 135.141615 
L 41.339156 132.681988 
L 42.32046 131.862112 
L 43.198468 129.402484 
L 44.076476 127.762733 
L 44.954484 125.303106 
L 45.88414 123.663354 
L 46.762148 121.203727 
L 47.536861 117.104348 
L 48.466517 115.464596 
L 51.048894 108.085714 
L 52.030197 107.265839 
L 53.837861 103.986335 
L 54.664221 100.706832 
L 55.645524 99.886957 
L 56.420238 97.427329 
L 57.349893 96.607453 
L 59.364147 96.607453 
L 60.34545 95.787578 
L 62.101467 90.868323 
L 63.909131 87.58882 
L 64.942081 87.58882 
L 66.801393 84.309317 
L 67.679401 81.849689 
L 68.660704 81.029814 
L 69.538712 78.570186 
L 71.398024 75.290683 
L 73.257335 73.650932 
L 74.135343 72.01118 
L 77.027605 69.551553 
L 80.023162 69.551553 
L 80.952818 67.911801 
L 81.934121 67.091925 
L 84.000023 67.091925 
L 84.981326 66.27205 
L 86.014277 66.27205 
L 86.892285 64.632298 
L 87.873588 63.812422 
L 88.906539 63.812422 
L 89.7329 62.172671 
L 90.714203 61.352795 
L 91.488916 58.893168 
L 92.521867 58.893168 
L 93.50317 58.073292 
L 97.583325 58.073292 
L 100.475587 55.613665 
L 101.301948 52.334161 
L 103.264554 50.69441 
L 104.245858 50.69441 
L 105.175513 49.874534 
L 106.208464 49.874534 
L 107.13812 48.234783 
L 108.171071 48.234783 
L 109.100726 47.414907 
L 111.11498 47.414907 
L 112.974292 45.775155 
L 114.936898 45.775155 
L 115.814906 44.95528 
L 116.796209 44.95528 
L 117.62257 43.315528 
L 119.533529 43.315528 
L 120.463185 41.675776 
L 121.496135 41.675776 
L 122.374143 40.036025 
L 123.407094 40.036025 
L 124.33675 39.216149 
L 125.059815 38.396273 
L 126.092766 38.396273 
L 128.003725 36.756522 
L 128.933381 35.11677 
L 129.656446 33.477019 
L 130.586102 33.477019 
L 131.412463 31.837267 
L 135.079438 31.837267 
L 135.957446 31.017391 
L 140.450782 31.017391 
L 141.225495 29.37764 
L 142.258446 29.37764 
L 143.084806 27.737888 
L 143.756224 24.458385 
L 144.47929 22.818634 
L 147.83638 22.818634 
L 148.507798 21.178882 
L 149.230863 20.359006 
L 151.141822 20.359006 
L 151.81324 19.53913 
L 152.484658 19.53913 
L 153.207724 18.719255 
L 154.085732 18.719255 
L 154.808797 17.079503 
L 155.58351 16.259627 
L 156.926346 16.259627 
L 157.494469 15.439752 
L 166.016313 15.439752 
L 166.636084 14.619876 
L 168.59869 14.619876 
L 169.115165 13.8 
L 175.467813 13.8 
L 175.467813 13.8 
" style="fill:none;stroke:#000000;stroke-linecap:square;stroke-width:2;"/>
   </g>
   <g id="line2d_14">
    <path clip-path="url(#p1af3ae77ce)" d="M 35.967813 145.8 
L 175.467813 13.8 
" style="fill:none;stroke:#000080;stroke-dasharray:10,20;stroke-dashoffset:0;stroke-width:2;"/>
   </g>
   <g id="patch_3">
    <path d="M 35.967813 145.8 
L 35.967813 7.2 
" style="fill:none;stroke:#000000;stroke-linecap:square;stroke-linejoin:miter;stroke-width:0.8;"/>
   </g>
   <g id="patch_4">
    <path d="M 175.467813 145.8 
L 175.467813 7.2 
" style="fill:none;stroke:#000000;stroke-linecap:square;stroke-linejoin:miter;stroke-width:0.8;"/>
   </g>
   <g id="patch_5">
    <path d="M 35.967813 145.8 
L 175.467813 145.8 
" style="fill:none;stroke:#000000;stroke-linecap:square;stroke-linejoin:miter;stroke-width:0.8;"/>
   </g>
   <g id="patch_6">
    <path d="M 35.967813 7.2 
L 175.467813 7.2 
" style="fill:none;stroke:#000000;stroke-linecap:square;stroke-linejoin:miter;stroke-width:0.8;"/>
   </g>
   <g id="legend_1">
    <g id="line2d_15">
     <path d="M 114.495937 131.215625 
L 114.495937 131.215625 
" style="fill:none;stroke:#000000;stroke-linecap:square;stroke-width:2;"/>
    </g>
    <g id="line2d_16"/>
    <g id="text_15">
     <text style="font-family:Helvetica;font-size:10px;font-stretch:normal;font-style:normal;font-weight:normal;text-anchor:start;" transform="rotate(-0, 114.495937, 134.715625)" x="114.495937" y="134.715625">AUC = 0.67</text>
    </g>
   </g>
  </g>
 </g>
 <defs>
  <clipPath id="p1af3ae77ce">
   <rect height="138.6" width="139.5" x="35.967813" y="7.2"/>
  </clipPath>
 </defs>
</svg>
