<?xml version="1.0" encoding="utf-8" standalone="no"?>
<!DOCTYPE svg PUBLIC "-//W3C//DTD SVG 1.1//EN"
  "http://www.w3.org/Graphics/SVG/1.1/DTD/svg11.dtd">
<svg height="171.588437pt" version="1.1" viewBox="0 0 397.034101 171.588437" width="397.034101pt" xmlns="http://www.w3.org/2000/svg" xmlns:xlink="http://www.w3.org/1999/xlink">
 <metadata>
  <rdf:RDF xmlns:cc="http://creativecommons.org/ns#" xmlns:dc="http://purl.org/dc/elements/1.1/" xmlns:rdf="http://www.w3.org/1999/02/22-rdf-syntax-ns#">
   <cc:Work>
    <dc:type rdf:resource="http://purl.org/dc/dcmitype/StillImage"/>
    <dc:date>2021-09-15T18:50:57.929394</dc:date>
    <dc:format>image/svg+xml</dc:format>
    <dc:creator>
     <cc:Agent>
      <dc:title>Matplotlib v3.4.3, https://matplotlib.org/</dc:title>
     </cc:Agent>
    </dc:creator>
   </cc:Work>
  </rdf:RDF>
 </metadata>
 <defs>
  <style type="text/css">*{stroke-linecap:butt;stroke-linejoin:round;}</style>
 </defs>
 <g id="figure_1">
  <g id="patch_1">
   <path d="M 0 171.588437 
L 397.034101 171.588437 
L 397.034101 0 
L 0 0 
z
" style="fill:none;"/>
  </g>
  <g id="axes_1">
   <g id="patch_2">
    <path d="M 54.804531 135 
L 389.604531 135 
L 389.604531 30 
L 54.804531 30 
z
" style="fill:none;"/>
   </g>
   <g id="matplotlib.axis_1">
    <g id="xtick_1">
     <g id="line2d_1">
      <defs>
       <path d="M 0 0 
L 0 3.5 
" id="mb6cd72434e" style="stroke:#000000;stroke-width:0.8;"/>
      </defs>
      <g>
       <use style="stroke:#000000;stroke-width:0.8;" x="55.008429" xlink:href="#mb6cd72434e" y="135"/>
      </g>
     </g>
     <g id="text_1">
      <text style="font-family:DejaVu Sans;font-size:9px;font-stretch:normal;font-style:normal;font-weight:normal;text-anchor:middle;" transform="rotate(-0, 55.008429, 148.838594)" x="55.008429" y="148.838594">2</text>
     </g>
    </g>
    <g id="xtick_2">
     <g id="line2d_2">
      <g>
       <use style="stroke:#000000;stroke-width:0.8;" x="95.787966" xlink:href="#mb6cd72434e" y="135"/>
      </g>
     </g>
     <g id="text_2">
      <text style="font-family:DejaVu Sans;font-size:9px;font-stretch:normal;font-style:normal;font-weight:normal;text-anchor:middle;" transform="rotate(-0, 95.787966, 148.838594)" x="95.787966" y="148.838594">22</text>
     </g>
    </g>
    <g id="xtick_3">
     <g id="line2d_3">
      <g>
       <use style="stroke:#000000;stroke-width:0.8;" x="136.567503" xlink:href="#mb6cd72434e" y="135"/>
      </g>
     </g>
     <g id="text_3">
      <text style="font-family:DejaVu Sans;font-size:9px;font-stretch:normal;font-style:normal;font-weight:normal;text-anchor:middle;" transform="rotate(-0, 136.567503, 148.838594)" x="136.567503" y="148.838594">42</text>
     </g>
    </g>
    <g id="xtick_4">
     <g id="line2d_4">
      <g>
       <use style="stroke:#000000;stroke-width:0.8;" x="177.34704" xlink:href="#mb6cd72434e" y="135"/>
      </g>
     </g>
     <g id="text_4">
      <text style="font-family:DejaVu Sans;font-size:9px;font-stretch:normal;font-style:normal;font-weight:normal;text-anchor:middle;" transform="rotate(-0, 177.34704, 148.838594)" x="177.34704" y="148.838594">62</text>
     </g>
    </g>
    <g id="xtick_5">
     <g id="line2d_5">
      <g>
       <use style="stroke:#000000;stroke-width:0.8;" x="218.126578" xlink:href="#mb6cd72434e" y="135"/>
      </g>
     </g>
     <g id="text_5">
      <text style="font-family:DejaVu Sans;font-size:9px;font-stretch:normal;font-style:normal;font-weight:normal;text-anchor:middle;" transform="rotate(-0, 218.126578, 148.838594)" x="218.126578" y="148.838594">82</text>
     </g>
    </g>
    <g id="xtick_6">
     <g id="line2d_6">
      <g>
       <use style="stroke:#000000;stroke-width:0.8;" x="258.906115" xlink:href="#mb6cd72434e" y="135"/>
      </g>
     </g>
     <g id="text_6">
      <text style="font-family:DejaVu Sans;font-size:9px;font-stretch:normal;font-style:normal;font-weight:normal;text-anchor:middle;" transform="rotate(-0, 258.906115, 148.838594)" x="258.906115" y="148.838594">102</text>
     </g>
    </g>
    <g id="xtick_7">
     <g id="line2d_7">
      <g>
       <use style="stroke:#000000;stroke-width:0.8;" x="299.685652" xlink:href="#mb6cd72434e" y="135"/>
      </g>
     </g>
     <g id="text_7">
      <text style="font-family:DejaVu Sans;font-size:9px;font-stretch:normal;font-style:normal;font-weight:normal;text-anchor:middle;" transform="rotate(-0, 299.685652, 148.838594)" x="299.685652" y="148.838594">122</text>
     </g>
    </g>
    <g id="xtick_8">
     <g id="line2d_8">
      <g>
       <use style="stroke:#000000;stroke-width:0.8;" x="340.465189" xlink:href="#mb6cd72434e" y="135"/>
      </g>
     </g>
     <g id="text_8">
      <text style="font-family:DejaVu Sans;font-size:9px;font-stretch:normal;font-style:normal;font-weight:normal;text-anchor:middle;" transform="rotate(-0, 340.465189, 148.838594)" x="340.465189" y="148.838594">142</text>
     </g>
    </g>
    <g id="xtick_9">
     <g id="line2d_9">
      <g>
       <use style="stroke:#000000;stroke-width:0.8;" x="381.244726" xlink:href="#mb6cd72434e" y="135"/>
      </g>
     </g>
     <g id="text_9">
      <text style="font-family:DejaVu Sans;font-size:9px;font-stretch:normal;font-style:normal;font-weight:normal;text-anchor:middle;" transform="rotate(-0, 381.244726, 148.838594)" x="381.244726" y="148.838594">162</text>
     </g>
    </g>
    <g id="text_10">
     <text style="font-family:DejaVu Sans;font-size:10px;font-stretch:normal;font-style:normal;font-weight:normal;text-anchor:middle;" transform="rotate(-0, 222.204531, 162.30875)" x="222.204531" y="162.30875">Residue</text>
    </g>
   </g>
   <g id="matplotlib.axis_2">
    <g id="ytick_1">
     <g id="line2d_10">
      <defs>
       <path d="M 0 0 
L -3.5 0 
" id="m64bb65e745" style="stroke:#000000;stroke-width:0.8;"/>
      </defs>
      <g>
       <use style="stroke:#000000;stroke-width:0.8;" x="54.804531" xlink:href="#m64bb65e745" y="128.637978"/>
      </g>
     </g>
     <g id="text_11">
      <text style="font-family:DejaVu Sans;font-size:9px;font-stretch:normal;font-style:normal;font-weight:normal;text-anchor:end;" transform="rotate(-0, 47.804531, 132.057275)" x="47.804531" y="132.057275">−1.5</text>
     </g>
    </g>
    <g id="ytick_2">
     <g id="line2d_11">
      <g>
       <use style="stroke:#000000;stroke-width:0.8;" x="54.804531" xlink:href="#m64bb65e745" y="103.489869"/>
      </g>
     </g>
     <g id="text_12">
      <text style="font-family:DejaVu Sans;font-size:9px;font-stretch:normal;font-style:normal;font-weight:normal;text-anchor:end;" transform="rotate(-0, 47.804531, 106.909166)" x="47.804531" y="106.909166">−1.0</text>
     </g>
    </g>
    <g id="ytick_3">
     <g id="line2d_12">
      <g>
       <use style="stroke:#000000;stroke-width:0.8;" x="54.804531" xlink:href="#m64bb65e745" y="78.34176"/>
      </g>
     </g>
     <g id="text_13">
      <text style="font-family:DejaVu Sans;font-size:9px;font-stretch:normal;font-style:normal;font-weight:normal;text-anchor:end;" transform="rotate(-0, 47.804531, 81.761056)" x="47.804531" y="81.761056">−0.5</text>
     </g>
    </g>
    <g id="ytick_4">
     <g id="line2d_13">
      <g>
       <use style="stroke:#000000;stroke-width:0.8;" x="54.804531" xlink:href="#m64bb65e745" y="53.193651"/>
      </g>
     </g>
     <g id="text_14">
      <text style="font-family:DejaVu Sans;font-size:9px;font-stretch:normal;font-style:normal;font-weight:normal;text-anchor:end;" transform="rotate(-0, 47.804531, 56.612947)" x="47.804531" y="56.612947">0.0</text>
     </g>
    </g>
    <g id="text_15">
     <!-- $∆E^i_x$ -->
     <g transform="translate(7.2 79.7)">
      <text>
       <tspan style="font-family:DejaVu Sans;font-size:10px;font-style:book;font-weight:book;" x="0" y="-0.8562499999999993">∆</tspan>
       <tspan style="font-family:DejaVu Sans;font-size:10px;font-style:oblique;font-weight:oblique;" x="6.689453" y="-0.8562499999999993">E</tspan>
       <tspan style="font-family:DejaVu Sans;font-size:7px;font-style:oblique;font-weight:oblique;" x="13.007812 13.710365" y="1.878124999999999 -4.684375">xi</tspan>
      </text>
     </g>
    </g>
   </g>
   <g id="patch_3">
    <path clip-path="url(#p98e33a92f1)" d="M 53.785043 53.193651 
L 56.231815 53.193651 
L 56.231815 56.163052 
L 53.785043 56.163052 
z
" style="fill:#0000ff;"/>
   </g>
   <g id="patch_4">
    <path clip-path="url(#p98e33a92f1)" d="M 55.82402 53.193651 
L 58.270792 53.193651 
L 58.270792 79.477323 
L 55.82402 79.477323 
z
" style="fill:#0000ff;"/>
   </g>
   <g id="patch_5">
    <path clip-path="url(#p98e33a92f1)" d="M 57.862997 53.193651 
L 60.309769 53.193651 
L 60.309769 60.842615 
L 57.862997 60.842615 
z
" style="fill:#0000ff;"/>
   </g>
   <g id="patch_6">
    <path clip-path="url(#p98e33a92f1)" d="M 59.901973 53.193651 
L 62.348746 53.193651 
L 62.348746 67.674938 
L 59.901973 67.674938 
z
" style="fill:#0000ff;"/>
   </g>
   <g id="patch_7">
    <path clip-path="url(#p98e33a92f1)" d="M 61.94095 53.193651 
L 64.387722 53.193651 
L 64.387722 101.923127 
L 61.94095 101.923127 
z
" style="fill:#0000ff;"/>
   </g>
   <g id="patch_8">
    <path clip-path="url(#p98e33a92f1)" d="M 63.979927 53.193651 
L 66.426699 53.193651 
L 66.426699 79.184217 
L 63.979927 79.184217 
z
" style="fill:#0000ff;"/>
   </g>
   <g id="patch_9">
    <path clip-path="url(#p98e33a92f1)" d="M 66.018904 53.193651 
L 68.465676 53.193651 
L 68.465676 95.04206 
L 66.018904 95.04206 
z
" style="fill:#0000ff;"/>
   </g>
   <g id="patch_10">
    <path clip-path="url(#p98e33a92f1)" d="M 68.057881 53.193651 
L 70.504653 53.193651 
L 70.504653 82.211049 
L 68.057881 82.211049 
z
" style="fill:#0000ff;"/>
   </g>
   <g id="patch_11">
    <path clip-path="url(#p98e33a92f1)" d="M 70.096858 53.193651 
L 72.54363 53.193651 
L 72.54363 128.104847 
L 70.096858 128.104847 
z
" style="fill:#0000ff;"/>
   </g>
   <g id="patch_12">
    <path clip-path="url(#p98e33a92f1)" d="M 72.135835 53.193651 
L 74.582607 53.193651 
L 74.582607 60.821634 
L 72.135835 60.821634 
z
" style="fill:#0000ff;"/>
   </g>
   <g id="patch_13">
    <path clip-path="url(#p98e33a92f1)" d="M 74.174811 53.193651 
L 76.621584 53.193651 
L 76.621584 46.012127 
L 74.174811 46.012127 
z
" style="fill:#ff0000;"/>
   </g>
   <g id="patch_14">
    <path clip-path="url(#p98e33a92f1)" d="M 76.213788 53.193651 
L 78.66056 53.193651 
L 78.66056 48.51311 
L 76.213788 48.51311 
z
" style="fill:#ff0000;"/>
   </g>
   <g id="patch_15">
    <path clip-path="url(#p98e33a92f1)" d="M 78.252765 53.193651 
L 80.699537 53.193651 
L 80.699537 68.513314 
L 78.252765 68.513314 
z
" style="fill:#0000ff;"/>
   </g>
   <g id="patch_16">
    <path clip-path="url(#p98e33a92f1)" d="M 80.291742 53.193651 
L 82.738514 53.193651 
L 82.738514 128.218065 
L 80.291742 128.218065 
z
" style="fill:#0000ff;"/>
   </g>
   <g id="patch_17">
    <path clip-path="url(#p98e33a92f1)" d="M 82.330719 53.193651 
L 84.777491 53.193651 
L 84.777491 125.060087 
L 82.330719 125.060087 
z
" style="fill:#0000ff;"/>
   </g>
   <g id="patch_18">
    <path clip-path="url(#p98e33a92f1)" d="M 84.369696 53.193651 
L 86.816468 53.193651 
L 86.816468 124.856611 
L 84.369696 124.856611 
z
" style="fill:#0000ff;"/>
   </g>
   <g id="patch_19">
    <path clip-path="url(#p98e33a92f1)" d="M 86.408673 53.193651 
L 88.855445 53.193651 
L 88.855445 83.483053 
L 86.408673 83.483053 
z
" style="fill:#0000ff;"/>
   </g>
   <g id="patch_20">
    <path clip-path="url(#p98e33a92f1)" d="M 88.447649 53.193651 
L 90.894422 53.193651 
L 90.894422 80.66891 
L 88.447649 80.66891 
z
" style="fill:#0000ff;"/>
   </g>
   <g id="patch_21">
    <path clip-path="url(#p98e33a92f1)" d="M 90.486626 53.193651 
L 92.933398 53.193651 
L 92.933398 84.079164 
L 90.486626 84.079164 
z
" style="fill:#0000ff;"/>
   </g>
   <g id="patch_22">
    <path clip-path="url(#p98e33a92f1)" d="M 92.525603 53.193651 
L 94.972375 53.193651 
L 94.972375 86.493163 
L 92.525603 86.493163 
z
" style="fill:#0000ff;"/>
   </g>
   <g id="patch_23">
    <path clip-path="url(#p98e33a92f1)" d="M 94.56458 53.193651 
L 97.011352 53.193651 
L 97.011352 55.098224 
L 94.56458 55.098224 
z
" style="fill:#0000ff;"/>
   </g>
   <g id="patch_24">
    <path clip-path="url(#p98e33a92f1)" d="M 96.603557 53.193651 
L 99.050329 53.193651 
L 99.050329 56.490387 
L 96.603557 56.490387 
z
" style="fill:#0000ff;"/>
   </g>
   <g id="patch_25">
    <path clip-path="url(#p98e33a92f1)" d="M 98.642534 53.193651 
L 101.089306 53.193651 
L 101.089306 65.026922 
L 98.642534 65.026922 
z
" style="fill:#0000ff;"/>
   </g>
   <g id="patch_26">
    <path clip-path="url(#p98e33a92f1)" d="M 100.681511 53.193651 
L 103.128283 53.193651 
L 103.128283 62.62987 
L 100.681511 62.62987 
z
" style="fill:#0000ff;"/>
   </g>
   <g id="patch_27">
    <path clip-path="url(#p98e33a92f1)" d="M 102.720487 53.193651 
L 105.16726 53.193651 
L 105.16726 55.443669 
L 102.720487 55.443669 
z
" style="fill:#0000ff;"/>
   </g>
   <g id="patch_28">
    <path clip-path="url(#p98e33a92f1)" d="M 104.759464 53.193651 
L 107.206236 53.193651 
L 107.206236 52.610043 
L 104.759464 52.610043 
z
" style="fill:#ff0000;"/>
   </g>
   <g id="patch_29">
    <path clip-path="url(#p98e33a92f1)" d="M 106.798441 53.193651 
L 109.245213 53.193651 
L 109.245213 93.412696 
L 106.798441 93.412696 
z
" style="fill:#0000ff;"/>
   </g>
   <g id="patch_30">
    <path clip-path="url(#p98e33a92f1)" d="M 108.837418 53.193651 
L 111.28419 53.193651 
L 111.28419 61.488298 
L 108.837418 61.488298 
z
" style="fill:#0000ff;"/>
   </g>
   <g id="patch_31">
    <path clip-path="url(#p98e33a92f1)" d="M 110.876395 53.193651 
L 113.323167 53.193651 
L 113.323167 60.475258 
L 110.876395 60.475258 
z
" style="fill:#0000ff;"/>
   </g>
   <g id="patch_32">
    <path clip-path="url(#p98e33a92f1)" d="M 112.915372 53.193651 
L 115.362144 53.193651 
L 115.362144 81.934592 
L 112.915372 81.934592 
z
" style="fill:#0000ff;"/>
   </g>
   <g id="patch_33">
    <path clip-path="url(#p98e33a92f1)" d="M 114.954349 53.193651 
L 117.401121 53.193651 
L 117.401121 88.373881 
L 114.954349 88.373881 
z
" style="fill:#0000ff;"/>
   </g>
   <g id="patch_34">
    <path clip-path="url(#p98e33a92f1)" d="M 116.993325 53.193651 
L 119.440098 53.193651 
L 119.440098 90.963073 
L 116.993325 90.963073 
z
" style="fill:#0000ff;"/>
   </g>
   <g id="patch_35">
    <path clip-path="url(#p98e33a92f1)" d="M 119.032302 53.193651 
L 121.479074 53.193651 
L 121.479074 93.934814 
L 119.032302 93.934814 
z
" style="fill:#0000ff;"/>
   </g>
   <g id="patch_36">
    <path clip-path="url(#p98e33a92f1)" d="M 121.071279 53.193651 
L 123.518051 53.193651 
L 123.518051 129.83044 
L 121.071279 129.83044 
z
" style="fill:#0000ff;"/>
   </g>
   <g id="patch_37">
    <path clip-path="url(#p98e33a92f1)" d="M 123.110256 53.193651 
L 125.557028 53.193651 
L 125.557028 93.941461 
L 123.110256 93.941461 
z
" style="fill:#0000ff;"/>
   </g>
   <g id="patch_38">
    <path clip-path="url(#p98e33a92f1)" d="M 125.149233 53.193651 
L 127.596005 53.193651 
L 127.596005 100.160837 
L 125.149233 100.160837 
z
" style="fill:#0000ff;"/>
   </g>
   <g id="patch_39">
    <path clip-path="url(#p98e33a92f1)" d="M 127.18821 53.193651 
L 129.634982 53.193651 
L 129.634982 123.552071 
L 127.18821 123.552071 
z
" style="fill:#0000ff;"/>
   </g>
   <g id="patch_40">
    <path clip-path="url(#p98e33a92f1)" d="M 129.227187 53.193651 
L 131.673959 53.193651 
L 131.673959 75.707905 
L 129.227187 75.707905 
z
" style="fill:#0000ff;"/>
   </g>
   <g id="patch_41">
    <path clip-path="url(#p98e33a92f1)" d="M 131.266163 53.193651 
L 133.712936 53.193651 
L 133.712936 130.227273 
L 131.266163 130.227273 
z
" style="fill:#0000ff;"/>
   </g>
   <g id="patch_42">
    <path clip-path="url(#p98e33a92f1)" d="M 133.30514 53.193651 
L 135.751912 53.193651 
L 135.751912 71.508434 
L 133.30514 71.508434 
z
" style="fill:#0000ff;"/>
   </g>
   <g id="patch_43">
    <path clip-path="url(#p98e33a92f1)" d="M 135.344117 53.193651 
L 137.790889 53.193651 
L 137.790889 45.909571 
L 135.344117 45.909571 
z
" style="fill:#ff0000;"/>
   </g>
   <g id="patch_44">
    <path clip-path="url(#p98e33a92f1)" d="M 137.383094 53.193651 
L 139.829866 53.193651 
L 139.829866 55.932236 
L 137.383094 55.932236 
z
" style="fill:#0000ff;"/>
   </g>
   <g id="patch_45">
    <path clip-path="url(#p98e33a92f1)" d="M 139.422071 53.193651 
L 141.868843 53.193651 
L 141.868843 53.645838 
L 139.422071 53.645838 
z
" style="fill:#0000ff;"/>
   </g>
   <g id="patch_46">
    <path clip-path="url(#p98e33a92f1)" d="M 141.461048 53.193651 
L 143.90782 53.193651 
L 143.90782 55.914173 
L 141.461048 55.914173 
z
" style="fill:#0000ff;"/>
   </g>
   <g id="patch_47">
    <path clip-path="url(#p98e33a92f1)" d="M 143.500025 53.193651 
L 145.946797 53.193651 
L 145.946797 61.679172 
L 143.500025 61.679172 
z
" style="fill:#0000ff;"/>
   </g>
   <g id="patch_48">
    <path clip-path="url(#p98e33a92f1)" d="M 145.539001 53.193651 
L 147.985774 53.193651 
L 147.985774 55.468052 
L 145.539001 55.468052 
z
" style="fill:#0000ff;"/>
   </g>
   <g id="patch_49">
    <path clip-path="url(#p98e33a92f1)" d="M 147.577978 53.193651 
L 150.02475 53.193651 
L 150.02475 60.915225 
L 147.577978 60.915225 
z
" style="fill:#0000ff;"/>
   </g>
   <g id="patch_50">
    <path clip-path="url(#p98e33a92f1)" d="M 149.616955 53.193651 
L 152.063727 53.193651 
L 152.063727 55.526009 
L 149.616955 55.526009 
z
" style="fill:#0000ff;"/>
   </g>
   <g id="patch_51">
    <path clip-path="url(#p98e33a92f1)" d="M 151.655932 53.193651 
L 154.102704 53.193651 
L 154.102704 57.126439 
L 151.655932 57.126439 
z
" style="fill:#0000ff;"/>
   </g>
   <g id="patch_52">
    <path clip-path="url(#p98e33a92f1)" d="M 153.694909 53.193651 
L 156.141681 53.193651 
L 156.141681 55.334206 
L 153.694909 55.334206 
z
" style="fill:#0000ff;"/>
   </g>
   <g id="patch_53">
    <path clip-path="url(#p98e33a92f1)" d="M 155.733886 53.193651 
L 158.180658 53.193651 
L 158.180658 51.441331 
L 155.733886 51.441331 
z
" style="fill:#ff0000;"/>
   </g>
   <g id="patch_54">
    <path clip-path="url(#p98e33a92f1)" d="M 157.772863 53.193651 
L 160.219635 53.193651 
L 160.219635 85.024318 
L 157.772863 85.024318 
z
" style="fill:#0000ff;"/>
   </g>
   <g id="patch_55">
    <path clip-path="url(#p98e33a92f1)" d="M 159.811839 53.193651 
L 162.258612 53.193651 
L 162.258612 95.595694 
L 159.811839 95.595694 
z
" style="fill:#0000ff;"/>
   </g>
   <g id="patch_56">
    <path clip-path="url(#p98e33a92f1)" d="M 161.850816 53.193651 
L 164.297588 53.193651 
L 164.297588 98.976478 
L 161.850816 98.976478 
z
" style="fill:#0000ff;"/>
   </g>
   <g id="patch_57">
    <path clip-path="url(#p98e33a92f1)" d="M 163.889793 53.193651 
L 166.336565 53.193651 
L 166.336565 58.464225 
L 163.889793 58.464225 
z
" style="fill:#0000ff;"/>
   </g>
   <g id="patch_58">
    <path clip-path="url(#p98e33a92f1)" d="M 165.92877 53.193651 
L 168.375542 53.193651 
L 168.375542 113.708502 
L 165.92877 113.708502 
z
" style="fill:#0000ff;"/>
   </g>
   <g id="patch_59">
    <path clip-path="url(#p98e33a92f1)" d="M 167.967747 53.193651 
L 170.414519 53.193651 
L 170.414519 84.566627 
L 167.967747 84.566627 
z
" style="fill:#0000ff;"/>
   </g>
   <g id="patch_60">
    <path clip-path="url(#p98e33a92f1)" d="M 170.006724 53.193651 
L 172.453496 53.193651 
L 172.453496 75.743824 
L 170.006724 75.743824 
z
" style="fill:#0000ff;"/>
   </g>
   <g id="patch_61">
    <path clip-path="url(#p98e33a92f1)" d="M 172.045701 53.193651 
L 174.492473 53.193651 
L 174.492473 89.191924 
L 172.045701 89.191924 
z
" style="fill:#0000ff;"/>
   </g>
   <g id="patch_62">
    <path clip-path="url(#p98e33a92f1)" d="M 174.084677 53.193651 
L 176.53145 53.193651 
L 176.53145 39.652345 
L 174.084677 39.652345 
z
" style="fill:#ff0000;"/>
   </g>
   <g id="patch_63">
    <path clip-path="url(#p98e33a92f1)" d="M 176.123654 53.193651 
L 178.570426 53.193651 
L 178.570426 40.642774 
L 176.123654 40.642774 
z
" style="fill:#ff0000;"/>
   </g>
   <g id="patch_64">
    <path clip-path="url(#p98e33a92f1)" d="M 178.162631 53.193651 
L 180.609403 53.193651 
L 180.609403 34.772727 
L 178.162631 34.772727 
z
" style="fill:#ff0000;"/>
   </g>
   <g id="patch_65">
    <path clip-path="url(#p98e33a92f1)" d="M 180.201608 53.193651 
L 182.64838 53.193651 
L 182.64838 51.028076 
L 180.201608 51.028076 
z
" style="fill:#ff0000;"/>
   </g>
   <g id="patch_66">
    <path clip-path="url(#p98e33a92f1)" d="M 182.240585 53.193651 
L 184.687357 53.193651 
L 184.687357 56.425417 
L 182.240585 56.425417 
z
" style="fill:#0000ff;"/>
   </g>
   <g id="patch_67">
    <path clip-path="url(#p98e33a92f1)" d="M 184.279562 53.193651 
L 186.726334 53.193651 
L 186.726334 51.572933 
L 184.279562 51.572933 
z
" style="fill:#ff0000;"/>
   </g>
   <g id="patch_68">
    <path clip-path="url(#p98e33a92f1)" d="M 186.318539 53.193651 
L 188.765311 53.193651 
L 188.765311 49.212412 
L 186.318539 49.212412 
z
" style="fill:#ff0000;"/>
   </g>
   <g id="patch_69">
    <path clip-path="url(#p98e33a92f1)" d="M 188.357515 53.193651 
L 190.804288 53.193651 
L 190.804288 43.416005 
L 188.357515 43.416005 
z
" style="fill:#ff0000;"/>
   </g>
   <g id="patch_70">
    <path clip-path="url(#p98e33a92f1)" d="M 190.396492 53.193651 
L 192.843265 53.193651 
L 192.843265 67.630454 
L 190.396492 67.630454 
z
" style="fill:#0000ff;"/>
   </g>
   <g id="patch_71">
    <path clip-path="url(#p98e33a92f1)" d="M 192.435469 53.193651 
L 194.882241 53.193651 
L 194.882241 56.518502 
L 192.435469 56.518502 
z
" style="fill:#0000ff;"/>
   </g>
   <g id="patch_72">
    <path clip-path="url(#p98e33a92f1)" d="M 194.474446 53.193651 
L 196.921218 53.193651 
L 196.921218 50.901154 
L 194.474446 50.901154 
z
" style="fill:#ff0000;"/>
   </g>
   <g id="patch_73">
    <path clip-path="url(#p98e33a92f1)" d="M 196.513423 53.193651 
L 198.960195 53.193651 
L 198.960195 54.990856 
L 196.513423 54.990856 
z
" style="fill:#0000ff;"/>
   </g>
   <g id="patch_74">
    <path clip-path="url(#p98e33a92f1)" d="M 198.5524 53.193651 
L 200.999172 53.193651 
L 200.999172 54.156822 
L 198.5524 54.156822 
z
" style="fill:#0000ff;"/>
   </g>
   <g id="patch_75">
    <path clip-path="url(#p98e33a92f1)" d="M 200.591377 53.193651 
L 203.038149 53.193651 
L 203.038149 48.380407 
L 200.591377 48.380407 
z
" style="fill:#ff0000;"/>
   </g>
   <g id="patch_76">
    <path clip-path="url(#p98e33a92f1)" d="M 202.630353 53.193651 
L 205.077126 53.193651 
L 205.077126 61.726091 
L 202.630353 61.726091 
z
" style="fill:#0000ff;"/>
   </g>
   <g id="patch_77">
    <path clip-path="url(#p98e33a92f1)" d="M 204.66933 53.193651 
L 207.116103 53.193651 
L 207.116103 60.835954 
L 204.66933 60.835954 
z
" style="fill:#0000ff;"/>
   </g>
   <g id="patch_78">
    <path clip-path="url(#p98e33a92f1)" d="M 206.708307 53.193651 
L 209.155079 53.193651 
L 209.155079 83.039064 
L 206.708307 83.039064 
z
" style="fill:#0000ff;"/>
   </g>
   <g id="patch_79">
    <path clip-path="url(#p98e33a92f1)" d="M 208.747284 53.193651 
L 211.194056 53.193651 
L 211.194056 94.615962 
L 208.747284 94.615962 
z
" style="fill:#0000ff;"/>
   </g>
   <g id="patch_80">
    <path clip-path="url(#p98e33a92f1)" d="M 210.786261 53.193651 
L 213.233033 53.193651 
L 213.233033 93.431571 
L 210.786261 93.431571 
z
" style="fill:#0000ff;"/>
   </g>
   <g id="patch_81">
    <path clip-path="url(#p98e33a92f1)" d="M 212.825238 53.193651 
L 215.27201 53.193651 
L 215.27201 81.891947 
L 212.825238 81.891947 
z
" style="fill:#0000ff;"/>
   </g>
   <g id="patch_82">
    <path clip-path="url(#p98e33a92f1)" d="M 214.864215 53.193651 
L 217.310987 53.193651 
L 217.310987 93.095356 
L 214.864215 93.095356 
z
" style="fill:#0000ff;"/>
   </g>
   <g id="patch_83">
    <path clip-path="url(#p98e33a92f1)" d="M 216.903191 53.193651 
L 219.349964 53.193651 
L 219.349964 87.98819 
L 216.903191 87.98819 
z
" style="fill:#0000ff;"/>
   </g>
   <g id="patch_84">
    <path clip-path="url(#p98e33a92f1)" d="M 218.942168 53.193651 
L 221.388941 53.193651 
L 221.388941 66.456752 
L 218.942168 66.456752 
z
" style="fill:#0000ff;"/>
   </g>
   <g id="patch_85">
    <path clip-path="url(#p98e33a92f1)" d="M 220.981145 53.193651 
L 223.427917 53.193651 
L 223.427917 48.198692 
L 220.981145 48.198692 
z
" style="fill:#ff0000;"/>
   </g>
   <g id="patch_86">
    <path clip-path="url(#p98e33a92f1)" d="M 223.020122 53.193651 
L 225.466894 53.193651 
L 225.466894 59.967463 
L 223.020122 59.967463 
z
" style="fill:#0000ff;"/>
   </g>
   <g id="patch_87">
    <path clip-path="url(#p98e33a92f1)" d="M 225.059099 53.193651 
L 227.505871 53.193651 
L 227.505871 71.006006 
L 225.059099 71.006006 
z
" style="fill:#0000ff;"/>
   </g>
   <g id="patch_88">
    <path clip-path="url(#p98e33a92f1)" d="M 227.098076 53.193651 
L 229.544848 53.193651 
L 229.544848 51.422832 
L 227.098076 51.422832 
z
" style="fill:#ff0000;"/>
   </g>
   <g id="patch_89">
    <path clip-path="url(#p98e33a92f1)" d="M 229.137053 53.193651 
L 231.583825 53.193651 
L 231.583825 61.816759 
L 229.137053 61.816759 
z
" style="fill:#0000ff;"/>
   </g>
   <g id="patch_90">
    <path clip-path="url(#p98e33a92f1)" d="M 231.176029 53.193651 
L 233.622802 53.193651 
L 233.622802 71.640795 
L 231.176029 71.640795 
z
" style="fill:#0000ff;"/>
   </g>
   <g id="patch_91">
    <path clip-path="url(#p98e33a92f1)" d="M 233.215006 53.193651 
L 235.661779 53.193651 
L 235.661779 72.828774 
L 233.215006 72.828774 
z
" style="fill:#0000ff;"/>
   </g>
   <g id="patch_92">
    <path clip-path="url(#p98e33a92f1)" d="M 235.253983 53.193651 
L 237.700755 53.193651 
L 237.700755 58.798765 
L 235.253983 58.798765 
z
" style="fill:#0000ff;"/>
   </g>
   <g id="patch_93">
    <path clip-path="url(#p98e33a92f1)" d="M 237.29296 53.193651 
L 239.739732 53.193651 
L 239.739732 48.118082 
L 237.29296 48.118082 
z
" style="fill:#ff0000;"/>
   </g>
   <g id="patch_94">
    <path clip-path="url(#p98e33a92f1)" d="M 239.331937 53.193651 
L 241.778709 53.193651 
L 241.778709 89.29986 
L 239.331937 89.29986 
z
" style="fill:#0000ff;"/>
   </g>
   <g id="patch_95">
    <path clip-path="url(#p98e33a92f1)" d="M 241.370914 53.193651 
L 243.817686 53.193651 
L 243.817686 53.602345 
L 241.370914 53.602345 
z
" style="fill:#0000ff;"/>
   </g>
   <g id="patch_96">
    <path clip-path="url(#p98e33a92f1)" d="M 243.409891 53.193651 
L 245.856663 53.193651 
L 245.856663 53.468889 
L 243.409891 53.468889 
z
" style="fill:#0000ff;"/>
   </g>
   <g id="patch_97">
    <path clip-path="url(#p98e33a92f1)" d="M 245.448867 53.193651 
L 247.89564 53.193651 
L 247.89564 58.121997 
L 245.448867 58.121997 
z
" style="fill:#0000ff;"/>
   </g>
   <g id="patch_98">
    <path clip-path="url(#p98e33a92f1)" d="M 247.487844 53.193651 
L 249.934617 53.193651 
L 249.934617 59.248664 
L 247.487844 59.248664 
z
" style="fill:#0000ff;"/>
   </g>
   <g id="patch_99">
    <path clip-path="url(#p98e33a92f1)" d="M 249.526821 53.193651 
L 251.973593 53.193651 
L 251.973593 67.63381 
L 249.526821 67.63381 
z
" style="fill:#0000ff;"/>
   </g>
   <g id="patch_100">
    <path clip-path="url(#p98e33a92f1)" d="M 251.565798 53.193651 
L 254.01257 53.193651 
L 254.01257 48.92822 
L 251.565798 48.92822 
z
" style="fill:#ff0000;"/>
   </g>
   <g id="patch_101">
    <path clip-path="url(#p98e33a92f1)" d="M 253.604775 53.193651 
L 256.051547 53.193651 
L 256.051547 90.359006 
L 253.604775 90.359006 
z
" style="fill:#0000ff;"/>
   </g>
   <g id="patch_102">
    <path clip-path="url(#p98e33a92f1)" d="M 255.643752 53.193651 
L 258.090524 53.193651 
L 258.090524 66.359853 
L 255.643752 66.359853 
z
" style="fill:#0000ff;"/>
   </g>
   <g id="patch_103">
    <path clip-path="url(#p98e33a92f1)" d="M 257.682729 53.193651 
L 260.129501 53.193651 
L 260.129501 68.907703 
L 257.682729 68.907703 
z
" style="fill:#0000ff;"/>
   </g>
   <g id="patch_104">
    <path clip-path="url(#p98e33a92f1)" d="M 259.721705 53.193651 
L 262.168478 53.193651 
L 262.168478 59.779766 
L 259.721705 59.779766 
z
" style="fill:#0000ff;"/>
   </g>
   <g id="patch_105">
    <path clip-path="url(#p98e33a92f1)" d="M 261.760682 53.193651 
L 264.207455 53.193651 
L 264.207455 61.646775 
L 261.760682 61.646775 
z
" style="fill:#0000ff;"/>
   </g>
   <g id="patch_106">
    <path clip-path="url(#p98e33a92f1)" d="M 263.799659 53.193651 
L 266.246431 53.193651 
L 266.246431 54.023072 
L 263.799659 54.023072 
z
" style="fill:#0000ff;"/>
   </g>
   <g id="patch_107">
    <path clip-path="url(#p98e33a92f1)" d="M 265.838636 53.193651 
L 268.285408 53.193651 
L 268.285408 55.241109 
L 265.838636 55.241109 
z
" style="fill:#0000ff;"/>
   </g>
   <g id="patch_108">
    <path clip-path="url(#p98e33a92f1)" d="M 267.877613 53.193651 
L 270.324385 53.193651 
L 270.324385 52.832651 
L 267.877613 52.832651 
z
" style="fill:#ff0000;"/>
   </g>
   <g id="patch_109">
    <path clip-path="url(#p98e33a92f1)" d="M 269.91659 53.193651 
L 272.363362 53.193651 
L 272.363362 54.160348 
L 269.91659 54.160348 
z
" style="fill:#0000ff;"/>
   </g>
   <g id="patch_110">
    <path clip-path="url(#p98e33a92f1)" d="M 271.955567 53.193651 
L 274.402339 53.193651 
L 274.402339 72.004216 
L 271.955567 72.004216 
z
" style="fill:#0000ff;"/>
   </g>
   <g id="patch_111">
    <path clip-path="url(#p98e33a92f1)" d="M 273.994543 53.193651 
L 276.441316 53.193651 
L 276.441316 67.297338 
L 273.994543 67.297338 
z
" style="fill:#0000ff;"/>
   </g>
   <g id="patch_112">
    <path clip-path="url(#p98e33a92f1)" d="M 276.03352 53.193651 
L 278.480293 53.193651 
L 278.480293 93.984344 
L 276.03352 93.984344 
z
" style="fill:#0000ff;"/>
   </g>
   <g id="patch_113">
    <path clip-path="url(#p98e33a92f1)" d="M 278.072497 53.193651 
L 280.519269 53.193651 
L 280.519269 107.408036 
L 278.072497 107.408036 
z
" style="fill:#0000ff;"/>
   </g>
   <g id="patch_114">
    <path clip-path="url(#p98e33a92f1)" d="M 280.111474 53.193651 
L 282.558246 53.193651 
L 282.558246 98.491488 
L 280.111474 98.491488 
z
" style="fill:#0000ff;"/>
   </g>
   <g id="patch_115">
    <path clip-path="url(#p98e33a92f1)" d="M 282.150451 53.193651 
L 284.597223 53.193651 
L 284.597223 108.699704 
L 282.150451 108.699704 
z
" style="fill:#0000ff;"/>
   </g>
   <g id="patch_116">
    <path clip-path="url(#p98e33a92f1)" d="M 284.189428 53.193651 
L 286.6362 53.193651 
L 286.6362 79.5571 
L 284.189428 79.5571 
z
" style="fill:#0000ff;"/>
   </g>
   <g id="patch_117">
    <path clip-path="url(#p98e33a92f1)" d="M 286.228405 53.193651 
L 288.675177 53.193651 
L 288.675177 75.27478 
L 286.228405 75.27478 
z
" style="fill:#0000ff;"/>
   </g>
   <g id="patch_118">
    <path clip-path="url(#p98e33a92f1)" d="M 288.267381 53.193651 
L 290.714154 53.193651 
L 290.714154 44.968915 
L 288.267381 44.968915 
z
" style="fill:#ff0000;"/>
   </g>
   <g id="patch_119">
    <path clip-path="url(#p98e33a92f1)" d="M 290.306358 53.193651 
L 292.753131 53.193651 
L 292.753131 58.256217 
L 290.306358 58.256217 
z
" style="fill:#0000ff;"/>
   </g>
   <g id="patch_120">
    <path clip-path="url(#p98e33a92f1)" d="M 292.345335 53.193651 
L 294.792107 53.193651 
L 294.792107 95.029866 
L 292.345335 95.029866 
z
" style="fill:#0000ff;"/>
   </g>
   <g id="patch_121">
    <path clip-path="url(#p98e33a92f1)" d="M 294.384312 53.193651 
L 296.831084 53.193651 
L 296.831084 37.630877 
L 294.384312 37.630877 
z
" style="fill:#ff0000;"/>
   </g>
   <g id="patch_122">
    <path clip-path="url(#p98e33a92f1)" d="M 296.423289 53.193651 
L 298.870061 53.193651 
L 298.870061 54.558031 
L 296.423289 54.558031 
z
" style="fill:#0000ff;"/>
   </g>
   <g id="patch_123">
    <path clip-path="url(#p98e33a92f1)" d="M 298.462266 53.193651 
L 300.909038 53.193651 
L 300.909038 53.828892 
L 298.462266 53.828892 
z
" style="fill:#0000ff;"/>
   </g>
   <g id="patch_124">
    <path clip-path="url(#p98e33a92f1)" d="M 300.501243 53.193651 
L 302.948015 53.193651 
L 302.948015 49.386202 
L 300.501243 49.386202 
z
" style="fill:#ff0000;"/>
   </g>
   <g id="patch_125">
    <path clip-path="url(#p98e33a92f1)" d="M 302.540219 53.193651 
L 304.986992 53.193651 
L 304.986992 55.834743 
L 302.540219 55.834743 
z
" style="fill:#0000ff;"/>
   </g>
   <g id="patch_126">
    <path clip-path="url(#p98e33a92f1)" d="M 304.579196 53.193651 
L 307.025969 53.193651 
L 307.025969 53.251993 
L 304.579196 53.251993 
z
" style="fill:#0000ff;"/>
   </g>
   <g id="patch_127">
    <path clip-path="url(#p98e33a92f1)" d="M 306.618173 53.193651 
L 309.064945 53.193651 
L 309.064945 56.305486 
L 306.618173 56.305486 
z
" style="fill:#0000ff;"/>
   </g>
   <g id="patch_128">
    <path clip-path="url(#p98e33a92f1)" d="M 308.65715 53.193651 
L 311.103922 53.193651 
L 311.103922 55.753898 
L 308.65715 55.753898 
z
" style="fill:#0000ff;"/>
   </g>
   <g id="patch_129">
    <path clip-path="url(#p98e33a92f1)" d="M 310.696127 53.193651 
L 313.142899 53.193651 
L 313.142899 51.481422 
L 310.696127 51.481422 
z
" style="fill:#ff0000;"/>
   </g>
   <g id="patch_130">
    <path clip-path="url(#p98e33a92f1)" d="M 312.735104 53.193651 
L 315.181876 53.193651 
L 315.181876 57.106526 
L 312.735104 57.106526 
z
" style="fill:#0000ff;"/>
   </g>
   <g id="patch_131">
    <path clip-path="url(#p98e33a92f1)" d="M 314.774081 53.193651 
L 317.220853 53.193651 
L 317.220853 62.901822 
L 314.774081 62.901822 
z
" style="fill:#0000ff;"/>
   </g>
   <g id="patch_132">
    <path clip-path="url(#p98e33a92f1)" d="M 316.813057 53.193651 
L 319.25983 53.193651 
L 319.25983 58.787463 
L 316.813057 58.787463 
z
" style="fill:#0000ff;"/>
   </g>
   <g id="patch_133">
    <path clip-path="url(#p98e33a92f1)" d="M 318.852034 53.193651 
L 321.298807 53.193651 
L 321.298807 63.815567 
L 318.852034 63.815567 
z
" style="fill:#0000ff;"/>
   </g>
   <g id="patch_134">
    <path clip-path="url(#p98e33a92f1)" d="M 320.891011 53.193651 
L 323.337783 53.193651 
L 323.337783 65.511879 
L 320.891011 65.511879 
z
" style="fill:#0000ff;"/>
   </g>
   <g id="patch_135">
    <path clip-path="url(#p98e33a92f1)" d="M 322.929988 53.193651 
L 325.37676 53.193651 
L 325.37676 77.852506 
L 322.929988 77.852506 
z
" style="fill:#0000ff;"/>
   </g>
   <g id="patch_136">
    <path clip-path="url(#p98e33a92f1)" d="M 324.968965 53.193651 
L 327.415737 53.193651 
L 327.415737 60.449569 
L 324.968965 60.449569 
z
" style="fill:#0000ff;"/>
   </g>
   <g id="patch_137">
    <path clip-path="url(#p98e33a92f1)" d="M 327.007942 53.193651 
L 329.454714 53.193651 
L 329.454714 55.321137 
L 327.007942 55.321137 
z
" style="fill:#0000ff;"/>
   </g>
   <g id="patch_138">
    <path clip-path="url(#p98e33a92f1)" d="M 329.046919 53.193651 
L 331.493691 53.193651 
L 331.493691 61.594216 
L 329.046919 61.594216 
z
" style="fill:#0000ff;"/>
   </g>
   <g id="patch_139">
    <path clip-path="url(#p98e33a92f1)" d="M 331.085895 53.193651 
L 333.532668 53.193651 
L 333.532668 78.216832 
L 331.085895 78.216832 
z
" style="fill:#0000ff;"/>
   </g>
   <g id="patch_140">
    <path clip-path="url(#p98e33a92f1)" d="M 333.124872 53.193651 
L 335.571645 53.193651 
L 335.571645 73.568616 
L 333.124872 73.568616 
z
" style="fill:#0000ff;"/>
   </g>
   <g id="patch_141">
    <path clip-path="url(#p98e33a92f1)" d="M 335.163849 53.193651 
L 337.610621 53.193651 
L 337.610621 64.913902 
L 335.163849 64.913902 
z
" style="fill:#0000ff;"/>
   </g>
   <g id="patch_142">
    <path clip-path="url(#p98e33a92f1)" d="M 337.202826 53.193651 
L 339.649598 53.193651 
L 339.649598 92.552665 
L 337.202826 92.552665 
z
" style="fill:#0000ff;"/>
   </g>
   <g id="patch_143">
    <path clip-path="url(#p98e33a92f1)" d="M 339.241803 53.193651 
L 341.688575 53.193651 
L 341.688575 75.087276 
L 339.241803 75.087276 
z
" style="fill:#0000ff;"/>
   </g>
   <g id="patch_144">
    <path clip-path="url(#p98e33a92f1)" d="M 341.28078 53.193651 
L 343.727552 53.193651 
L 343.727552 80.764772 
L 341.28078 80.764772 
z
" style="fill:#0000ff;"/>
   </g>
   <g id="patch_145">
    <path clip-path="url(#p98e33a92f1)" d="M 343.319757 53.193651 
L 345.766529 53.193651 
L 345.766529 78.947232 
L 343.319757 78.947232 
z
" style="fill:#0000ff;"/>
   </g>
   <g id="patch_146">
    <path clip-path="url(#p98e33a92f1)" d="M 345.358733 53.193651 
L 347.805506 53.193651 
L 347.805506 56.525579 
L 345.358733 56.525579 
z
" style="fill:#0000ff;"/>
   </g>
   <g id="patch_147">
    <path clip-path="url(#p98e33a92f1)" d="M 347.39771 53.193651 
L 349.844483 53.193651 
L 349.844483 88.044615 
L 347.39771 88.044615 
z
" style="fill:#0000ff;"/>
   </g>
   <g id="patch_148">
    <path clip-path="url(#p98e33a92f1)" d="M 349.436687 53.193651 
L 351.883459 53.193651 
L 351.883459 39.669156 
L 349.436687 39.669156 
z
" style="fill:#ff0000;"/>
   </g>
   <g id="patch_149">
    <path clip-path="url(#p98e33a92f1)" d="M 351.475664 53.193651 
L 353.922436 53.193651 
L 353.922436 51.032224 
L 351.475664 51.032224 
z
" style="fill:#ff0000;"/>
   </g>
   <g id="patch_150">
    <path clip-path="url(#p98e33a92f1)" d="M 353.514641 53.193651 
L 355.961413 53.193651 
L 355.961413 39.392184 
L 353.514641 39.392184 
z
" style="fill:#ff0000;"/>
   </g>
   <g id="patch_151">
    <path clip-path="url(#p98e33a92f1)" d="M 355.553618 53.193651 
L 358.00039 53.193651 
L 358.00039 56.60809 
L 355.553618 56.60809 
z
" style="fill:#0000ff;"/>
   </g>
   <g id="patch_152">
    <path clip-path="url(#p98e33a92f1)" d="M 357.592595 53.193651 
L 360.039367 53.193651 
L 360.039367 56.526638 
L 357.592595 56.526638 
z
" style="fill:#0000ff;"/>
   </g>
   <g id="patch_153">
    <path clip-path="url(#p98e33a92f1)" d="M 359.631571 53.193651 
L 362.078344 53.193651 
L 362.078344 53.187588 
L 359.631571 53.187588 
z
" style="fill:#ff0000;"/>
   </g>
   <g id="patch_154">
    <path clip-path="url(#p98e33a92f1)" d="M 361.670548 53.193651 
L 364.117321 53.193651 
L 364.117321 54.122207 
L 361.670548 54.122207 
z
" style="fill:#0000ff;"/>
   </g>
   <g id="patch_155">
    <path clip-path="url(#p98e33a92f1)" d="M 363.709525 53.193651 
L 366.156297 53.193651 
L 366.156297 64.699689 
L 363.709525 64.699689 
z
" style="fill:#0000ff;"/>
   </g>
   <g id="patch_156">
    <path clip-path="url(#p98e33a92f1)" d="M 365.748502 53.193651 
L 368.195274 53.193651 
L 368.195274 78.756846 
L 365.748502 78.756846 
z
" style="fill:#0000ff;"/>
   </g>
   <g id="patch_157">
    <path clip-path="url(#p98e33a92f1)" d="M 367.787479 53.193651 
L 370.234251 53.193651 
L 370.234251 85.094365 
L 367.787479 85.094365 
z
" style="fill:#0000ff;"/>
   </g>
   <g id="patch_158">
    <path clip-path="url(#p98e33a92f1)" d="M 369.826456 53.193651 
L 372.273228 53.193651 
L 372.273228 44.538098 
L 369.826456 44.538098 
z
" style="fill:#ff0000;"/>
   </g>
   <g id="patch_159">
    <path clip-path="url(#p98e33a92f1)" d="M 371.865433 53.193651 
L 374.312205 53.193651 
L 374.312205 54.930932 
L 371.865433 54.930932 
z
" style="fill:#0000ff;"/>
   </g>
   <g id="patch_160">
    <path clip-path="url(#p98e33a92f1)" d="M 373.904409 53.193651 
L 376.351182 53.193651 
L 376.351182 98.001659 
L 373.904409 98.001659 
z
" style="fill:#0000ff;"/>
   </g>
   <g id="patch_161">
    <path clip-path="url(#p98e33a92f1)" d="M 375.943386 53.193651 
L 378.390159 53.193651 
L 378.390159 77.749437 
L 375.943386 77.749437 
z
" style="fill:#0000ff;"/>
   </g>
   <g id="patch_162">
    <path clip-path="url(#p98e33a92f1)" d="M 377.982363 53.193651 
L 380.429135 53.193651 
L 380.429135 57.755033 
L 377.982363 57.755033 
z
" style="fill:#0000ff;"/>
   </g>
   <g id="patch_163">
    <path clip-path="url(#p98e33a92f1)" d="M 380.02134 53.193651 
L 382.468112 53.193651 
L 382.468112 55.102398 
L 380.02134 55.102398 
z
" style="fill:#0000ff;"/>
   </g>
   <g id="patch_164">
    <path clip-path="url(#p98e33a92f1)" d="M 382.060317 53.193651 
L 384.507089 53.193651 
L 384.507089 76.309275 
L 382.060317 76.309275 
z
" style="fill:#0000ff;"/>
   </g>
   <g id="patch_165">
    <path clip-path="url(#p98e33a92f1)" d="M 384.099294 53.193651 
L 386.546066 53.193651 
L 386.546066 52.827723 
L 384.099294 52.827723 
z
" style="fill:#ff0000;"/>
   </g>
   <g id="patch_166">
    <path clip-path="url(#p98e33a92f1)" d="M 386.138271 53.193651 
L 388.585043 53.193651 
L 388.585043 59.290322 
L 386.138271 59.290322 
z
" style="fill:#0000ff;"/>
   </g>
   <g id="patch_167">
    <path clip-path="url(#p98e33a92f1)" d="M 388.177247 53.193651 
L 390.62402 53.193651 
L 390.62402 47.683639 
L 388.177247 47.683639 
z
" style="fill:#ff0000;"/>
   </g>
   <g id="patch_168">
    <path d="M 54.804531 135 
L 54.804531 30 
" style="fill:none;stroke:#000000;stroke-linecap:square;stroke-linejoin:miter;stroke-width:0.8;"/>
   </g>
   <g id="patch_169">
    <path d="M 389.604531 135 
L 389.604531 30 
" style="fill:none;stroke:#000000;stroke-linecap:square;stroke-linejoin:miter;stroke-width:0.8;"/>
   </g>
   <g id="patch_170">
    <path d="M 54.804531 135 
L 389.604531 135 
" style="fill:none;stroke:#000000;stroke-linecap:square;stroke-linejoin:miter;stroke-width:0.8;"/>
   </g>
   <g id="patch_171">
    <path d="M 54.804531 30 
L 389.604531 30 
" style="fill:none;stroke:#000000;stroke-linecap:square;stroke-linejoin:miter;stroke-width:0.8;"/>
   </g>
  </g>
  <g id="axes_2">
   <g id="patch_172">
    <path clip-path="url(#p1bf85a80dc)" d="M 55.007072 18.866667 
L 71.210339 18.866667 
L 71.210339 16.533333 
L 55.007072 16.533333 
z
"/>
   </g>
   <g id="patch_173">
    <path clip-path="url(#p1bf85a80dc)" d="M 71.210339 17.7 
L 65.134114 27.033333 
L 65.134114 22.366667 
L 55.007072 22.366667 
L 55.007072 13.033333 
L 65.134114 13.033333 
L 65.134114 8.366667 
z
" style="fill:#90ee90;stroke:#000000;stroke-linejoin:miter;"/>
   </g>
   <g id="patch_174">
    <path clip-path="url(#p1bf85a80dc)" d="M 71.210339 18.866667 
L 83.362789 18.866667 
L 83.362789 16.533333 
L 71.210339 16.533333 
z
"/>
   </g>
   <g id="patch_175">
    <path clip-path="url(#p1bf85a80dc)" d="M 83.362789 22.833333 
L 103.616872 22.833333 
L 103.616872 12.566667 
L 83.362789 12.566667 
z
" style="fill:#e6e6fa;stroke:#000000;stroke-linejoin:miter;"/>
   </g>
   <g id="patch_176">
    <path clip-path="url(#p1bf85a80dc)" d="M 103.616872 18.866667 
L 125.896364 18.866667 
L 125.896364 16.533333 
L 103.616872 16.533333 
z
"/>
   </g>
   <g id="patch_177">
    <path clip-path="url(#p1bf85a80dc)" d="M 125.896364 18.866667 
L 146.150448 18.866667 
L 146.150448 16.533333 
L 125.896364 16.533333 
z
"/>
   </g>
   <g id="patch_178">
    <path clip-path="url(#p1bf85a80dc)" d="M 146.150448 17.7 
L 140.074223 27.033333 
L 140.074223 22.366667 
L 125.896364 22.366667 
L 125.896364 13.033333 
L 140.074223 13.033333 
L 140.074223 8.366667 
z
" style="fill:#90ee90;stroke:#000000;stroke-linejoin:miter;"/>
   </g>
   <g id="patch_179">
    <path clip-path="url(#p1bf85a80dc)" d="M 146.150448 18.866667 
L 150.201264 18.866667 
L 150.201264 16.533333 
L 146.150448 16.533333 
z
"/>
   </g>
   <g id="patch_180">
    <path clip-path="url(#p1bf85a80dc)" d="M 150.201264 18.866667 
L 170.455348 18.866667 
L 170.455348 16.533333 
L 150.201264 16.533333 
z
"/>
   </g>
   <g id="patch_181">
    <path clip-path="url(#p1bf85a80dc)" d="M 170.455348 17.7 
L 164.379123 27.033333 
L 164.379123 22.366667 
L 150.201264 22.366667 
L 150.201264 13.033333 
L 164.379123 13.033333 
L 164.379123 8.366667 
z
" style="fill:#90ee90;stroke:#000000;stroke-linejoin:miter;"/>
   </g>
   <g id="patch_182">
    <path clip-path="url(#p1bf85a80dc)" d="M 170.455348 18.866667 
L 182.607798 18.866667 
L 182.607798 16.533333 
L 170.455348 16.533333 
z
"/>
   </g>
   <g id="patch_183">
    <path clip-path="url(#p1bf85a80dc)" d="M 182.607798 22.833333 
L 202.861882 22.833333 
L 202.861882 12.566667 
L 182.607798 12.566667 
z
" style="fill:#e6e6fa;stroke:#000000;stroke-linejoin:miter;"/>
   </g>
   <g id="patch_184">
    <path clip-path="url(#p1bf85a80dc)" d="M 202.861882 18.866667 
L 206.912698 18.866667 
L 206.912698 16.533333 
L 202.861882 16.533333 
z
"/>
   </g>
   <g id="patch_185">
    <path clip-path="url(#p1bf85a80dc)" d="M 206.912698 18.866667 
L 221.090557 18.866667 
L 221.090557 16.533333 
L 206.912698 16.533333 
z
"/>
   </g>
   <g id="patch_186">
    <path clip-path="url(#p1bf85a80dc)" d="M 221.090557 17.7 
L 215.014332 27.033333 
L 215.014332 22.366667 
L 206.912698 22.366667 
L 206.912698 13.033333 
L 215.014332 13.033333 
L 215.014332 8.366667 
z
" style="fill:#90ee90;stroke:#000000;stroke-linejoin:miter;"/>
   </g>
   <g id="patch_187">
    <path clip-path="url(#p1bf85a80dc)" d="M 221.090557 18.866667 
L 227.166782 18.866667 
L 227.166782 16.533333 
L 221.090557 16.533333 
z
"/>
   </g>
   <g id="patch_188">
    <path clip-path="url(#p1bf85a80dc)" d="M 227.166782 22.833333 
L 261.598724 22.833333 
L 261.598724 12.566667 
L 227.166782 12.566667 
z
" style="fill:#e6e6fa;stroke:#000000;stroke-linejoin:miter;"/>
   </g>
   <g id="patch_189">
    <path clip-path="url(#p1bf85a80dc)" d="M 261.598724 18.866667 
L 275.776582 18.866667 
L 275.776582 16.533333 
L 261.598724 16.533333 
z
"/>
   </g>
   <g id="patch_190">
    <path clip-path="url(#p1bf85a80dc)" d="M 275.776582 18.866667 
L 287.929032 18.866667 
L 287.929032 16.533333 
L 275.776582 16.533333 
z
"/>
   </g>
   <g id="patch_191">
    <path clip-path="url(#p1bf85a80dc)" d="M 287.929032 17.7 
L 281.852807 27.033333 
L 281.852807 22.366667 
L 275.776582 22.366667 
L 275.776582 13.033333 
L 281.852807 13.033333 
L 281.852807 8.366667 
z
" style="fill:#90ee90;stroke:#000000;stroke-linejoin:miter;"/>
   </g>
   <g id="patch_192">
    <path clip-path="url(#p1bf85a80dc)" d="M 287.929032 18.866667 
L 308.183116 18.866667 
L 308.183116 16.533333 
L 287.929032 16.533333 
z
"/>
   </g>
   <g id="patch_193">
    <path clip-path="url(#p1bf85a80dc)" d="M 308.183116 22.833333 
L 330.462607 22.833333 
L 330.462607 12.566667 
L 308.183116 12.566667 
z
" style="fill:#e6e6fa;stroke:#000000;stroke-linejoin:miter;"/>
   </g>
   <g id="patch_194">
    <path clip-path="url(#p1bf85a80dc)" d="M 330.462607 18.866667 
L 336.538833 18.866667 
L 336.538833 16.533333 
L 330.462607 16.533333 
z
"/>
   </g>
   <g id="patch_195">
    <path clip-path="url(#p1bf85a80dc)" d="M 336.538833 18.866667 
L 342.615058 18.866667 
L 342.615058 16.533333 
L 336.538833 16.533333 
z
"/>
   </g>
   <g id="patch_196">
    <path clip-path="url(#p1bf85a80dc)" d="M 342.615058 17.7 
L 336.538833 27.033333 
L 336.538833 22.366667 
L 336.538833 22.366667 
L 336.538833 13.033333 
L 336.538833 13.033333 
L 336.538833 8.366667 
z
" style="fill:#90ee90;stroke:#000000;stroke-linejoin:miter;"/>
   </g>
   <g id="patch_197">
    <path clip-path="url(#p1bf85a80dc)" d="M 342.615058 18.866667 
L 358.818324 18.866667 
L 358.818324 16.533333 
L 342.615058 16.533333 
z
"/>
   </g>
   <g id="patch_198">
    <path clip-path="url(#p1bf85a80dc)" d="M 358.818324 22.833333 
L 389.19945 22.833333 
L 389.19945 12.566667 
L 358.818324 12.566667 
z
" style="fill:#e6e6fa;stroke:#000000;stroke-linejoin:miter;"/>
   </g>
  </g>
 </g>
 <defs>
  <clipPath id="p98e33a92f1">
   <rect height="105" width="334.8" x="54.804531" y="30"/>
  </clipPath>
  <clipPath id="p1bf85a80dc">
   <rect height="21" width="334.8" x="54.804531" y="7.2"/>
  </clipPath>
 </defs>
</svg>
